M48
;Layer_Color=9474304
;FILE_FORMAT=4:4
METRIC
;TYPE=PLATED
T01F00S00C0.2000
T02F00S00C0.2032
T03F00S00C0.2540
T04F00S00C0.3300
T07F00S00C0.8400
T08F00S00C0.8500
T09F00S00C0.9000
T10F00S00C1.0000
T11F00S00C1.0160
T12F00S00C1.0200
T13F00S00C1.1000
T14F00S00C1.1500
T15F00S00C1.2000
T16F00S00C1.3000
T17F00S00C1.4000
T19F00S00C2.0000
T20F00S00C2.1000
T21F00S00C2.2000
T22F00S00C2.5000
;TYPE=NON_PLATED
T23F00S00C1.2700
T24F00S00C4.4000
%
T01
X00763718Y00903636
Y00908636
X00768718Y00908636
Y00903636
X00764721Y00950110
X00767814Y00956389
X00758768Y01027636
X00757768Y01057636
X00784464Y01060263
X00791450Y01059809
X00696768Y01032136
X00700513Y01024636
X00701768Y01017636
X00700513Y01010750
X00715768Y01145636
Y01150886
Y01156136
X00798268Y01153136
Y01148136
Y01143136
X00830768Y01143136
Y01148136
Y01153136
X00835768Y01153136
Y01148136
Y01143136
X00867768Y01143136
Y01148136
Y01153136
X00865168Y01174886
Y01179886
Y01184886
Y01189886
X00860168Y01189886
Y01184886
Y01179886
Y01174886
X00871824Y01108984
X00934054Y01100761
Y01095761
Y01090761
X00939054Y01090761
Y01095761
Y01100761
X00973847Y01101636
Y01096636
Y01091636
X00978847Y01091636
Y01096636
Y01101636
X00983847Y01101636
X00983847Y01096636
X00983847Y01091636
X00984875Y01072014
X00989875
X00994875
X00999875
X01004875
X01009875
X01014875
X01019875
X01019875Y01065014
X01014875
X01009875
X01004875
X00999875
X00994875
X00989875
X00984875
X00979875
X00974875
X00969875
X00964875
Y01058014
X00969875
X00974875
X00979875
X00984875
X00989875
X00994875
X00999875
X01004875
X01009875
X01014875
X01019875
X01002768Y01038636
Y01033636
X00997768
X00992768
X00987768
X00982768
X00977768
X00972768
X00967768
X00962768
X00962768Y01038636
X00967768
X00972768
X00977768
X00982768
X00987768
X00992768
X00997768
X01048268Y01038136
X01059507
X01051768Y01024636
X01066375Y01065136
X01066309Y01075014
X01066375Y01085858
X01075920Y01119810
X01080920
Y01124810
X01075920
X01085920Y01119810
X01096202Y01130216
X01082702Y01138269
X01078202Y01175636
X01065701Y01175581
X01062109Y01187545
X01124768Y01188636
X01129768
X01134768
X01139768
X01144768
X01149768
X01154768
X01159768
X01164768
Y01181636
X01159768
X01154768
X01149768
X01144768
X01139768
X01134768
X01129768
X01124768
X01151768Y01158948
X01156768
X01161768
X01166768
X01171768
X01176768
X01176768Y01153948
X01171768
X01166768
X01161768
X01156768
X01151768
X01147518Y01126136
X01136768Y01126135
X01122921Y01125310
Y01120310
X01117921
X01112921
X01112921Y01125310
X01117921
X01139018Y01078136
X01144018
X01149018
X01154018
X01159018
Y01073136
X01154018
X01149018
X01144018
X01139018
X01164018
X01169018
X01174018
X01174018Y01078136
X01169018
X01164018
X01164018Y01041136
X01169018
X01174018
X01179018
X01184018
X01189018
Y01036136
X01184018
X01179018
X01174018
X01169018
X01164018
X01159018
X01154018
X01149018
X01144018
X01139018
X01134018
X01134018Y01041136
X01139018
X01144018
X01149018
X01154018
X01159018
Y01005886
X01154018
X01149018
Y01000886
X01144018
X01139018
X01134018
X01129018
X01124018
X01119018
X01114018
X01109018
X01109018Y01005886
X01114018
X01119018
X01124018
X01129018
X01134018
X01139018
X01144018
X01154018Y01000886
X01159018
X01164018
X01169018
X01174018
X01179018
X01184018
X01189018
Y01005886
X01184018
X01179018
X01174018
X01169018
X01164018
X01109768Y00949636
X01087768Y00930136
X00996865Y00914304
X00921768Y00938636
X00894768Y00918636
X00862768Y00913636
X00843768Y00944636
X00831294Y00938218
X00860168Y00963886
Y00968886
Y00973886
Y00978886
Y00983886
X00865168
Y00978886
Y00973886
Y00968886
Y00963886
X00843451Y01016783
X00821518Y01039636
X00799768Y01029636
X00964875Y01072014
X00969875
X00974875
X00979875
X01005518Y01095636
X01005518Y01100636
X01005518Y01105636
X01002125Y01126546
X00997125
X00992125
X00987125
X00982125
X00977125
X00972125
X00967125
X00991698Y01140636
Y01145636
Y01150636
Y01155636
X00939054
Y01150636
Y01145636
Y01140636
X01040625Y01122296
X01051625
X01193702Y01155635
X01198702
X01203702
X01208702
X01213702
X01218702
X01223702
X01228702
X01233702
X01233702Y01160635
X01228702
X01223702
X01218702
X01213702
X01208702
X01203702
X01198702
X01193702
X01211702Y01181635
X01216702
X01221702
X01226702
X01231702
X01236702
X01241702
X01246702
X01251702
Y01188635
X01246702
X01241702
X01236702
X01231702
X01226702
X01221702
X01216702
X01211702
X01244799Y01155635
Y01150635
Y01145635
X01249799
Y01140635
Y01135635
Y01130635
Y01125635
Y01120635
X01244799
Y01125635
Y01130635
Y01135635
Y01140635
X01249799Y01150635
Y01155635
X01286427Y01160922
X01299268Y01178386
Y01188636
X01274518Y01039636
Y01034636
Y01029636
Y01024636
X01269518
Y01029636
Y01034636
Y01039636
X01194018Y01041136
X01194018Y01036136
X01194018Y01005886
X01194018Y01000886
X02087368Y01041386
X02092368
X02097368
Y01046386
X02092368
X02087368
X02102368
X02107368
X02112368
X02117368
X02122368
X02122368Y01041386
X02127368
X02117368
X02112368
X02107368
X02102368
X02148168
Y01046386
X02153168
X02158168
X02163168
X02168168
X02173168
X02178168
X02183168
X02188168
X02188168Y01041386
X02183168
X02178168
X02173168
X02168168
X02163168
X02158168
X02153168
X02133768Y01095636
Y01105636
Y01115636
Y01125636
Y01135636
Y01145636
Y01155636
Y01165636
Y01175636
Y01185636
X02191768Y01187636
Y01177636
Y01167636
Y01157636
Y01147636
Y01137636
Y01127636
Y01117636
Y01107636
Y01097636
Y01087636
X02192768Y00914636
X02096833Y00915403
X02088768Y00908636
X02607768Y01397636
Y01402636
X02613268
Y01397636
X02618268
Y01402636
X02617268Y01438636
Y01443636
X02612268
Y01438636
X02606768
Y01443636
Y01476636
Y01481636
X02612268
Y01476636
X02617268
Y01481636
X02202768Y01480636
X02197768
Y01506636
X02202768
Y01531636
X02197768
Y01556636
X02202768
Y01582636
X02197768
X02133768Y01571636
Y01566636
X02128768
Y01571636
X02123268
Y01566636
Y01533636
Y01528636
X02128768
Y01533636
X02133768
Y01528636
Y01495636
X02128768
Y01490636
X02133768
X02123268
Y01495636
Y01457636
Y01452636
X02128768
X02133768
Y01457636
X02128768
Y01419636
X02133768
Y01414636
X02128768
X02123268
Y01419636
X02072768Y01411636
X02056268
X02039268
X02022768
X02006268
X01989268
Y01481636
X01997768
X02006268
X02014268
X02022768
X02031268
X02039268
X02047768
X02056268
X02064268
X02072768
X02055768Y01586636
X02050768
X02045775Y01586636
X02039268Y01331636
X02022768
X02006268
X01989268
Y01271636
X02006268
X02022768
X02039268
X02056268
X02072768
Y01331636
X02056268
X02133768Y01335636
Y01325636
Y01315636
Y01305636
Y01295636
Y01285636
Y01275636
Y01265636
Y01255636
Y01245636
Y01235636
Y01225636
Y01215636
Y01205636
Y01195636
X02191768Y01197636
Y01207636
Y01217636
Y01227636
Y01237636
Y01247636
Y01257636
Y01267636
Y01277636
Y01287636
Y01297636
Y01307636
Y01317636
Y01327636
Y01337636
X02197768Y01400636
X02202768
Y01426636
X02197768
Y01454636
X02202768
X01845775Y01502886
X01840775
Y01512636
X01845775
Y01519136
X01840775
Y01525636
X01845775
Y01532136
X01840775
Y01538636
X01845775
Y01545136
X01840775
Y01551636
X01845775
Y01558136
X01840775
Y01564636
X01845775
Y01571136
X01840775
Y01577636
X01845775
X01902768Y01586636
X01907768
X01912768
X01353968Y01582636
X01315440Y01560638
X01305058Y01552944
X01296813Y01547726
Y01540726
X01297334Y01562292
X01283768Y01254976
Y01246136
X01300268Y01238636
X01299046Y01209417
Y01199136
X01251702Y01195635
X01246702
X01241702
X01236702
X01231702
X01226702
X01221702
X01216702
X01211702
X01212702Y01216323
X01217702
Y01221323
X01222702
X01222702Y01216323
X01207702
X01202702
X01197702
X01197702Y01221323
X01202702
X01207702
X01212702
X01209518Y01263886
Y01268886
X01204518
X01199518
X01199518Y01263886
X01204518
X01236518Y01266136
X01241518
X01246518
Y01271136
X01241518
X01236518
X01239702Y01251136
X01228952Y01251135
X01182768Y01221636
Y01216636
X01177768
X01172768
X01167768
X01162768
X01157768
X01152768
X01147768
X01142768
X01142768Y01221636
X01147768
X01152768
X01157768
X01162768
X01167768
X01172768
X01177768
X01164768Y01195636
X01159768
X01154768
X01149768
X01144768
X01139768
X01134768
X01129768
X01124768
X01119518Y01228386
Y01233386
X01114518
X01109518
X01109518Y01228386
X01114518
X01115268Y01249386
X01110268
X01105268
X01100268
Y01254386
X01105268
X01110268
X01115268
X01120268
Y01249386
X01083268Y01272136
X01067375Y01276136
X01066031Y01283795
X01067517Y01265938
X01048518Y01249136
X01002768Y01249636
Y01244636
X00997768
X00992768
X00987768
X00982768
X00977768
X00972768
X00967768
X00962768
X00962768Y01249636
X00967768
X00972768
X00977768
X00982768
X00987768
X00992768
X00997768
X00999875Y01269014
X00994875
X00989875
X00984875
X00979875
X00974875
X00969875
X00964875
Y01276014
X00969875
X00974875
X00979875
X00984875
X00989875
X00994875
X00999875
X01004875
X01009875
X01014875
X01019875
Y01269014
X01014875
X01009875
X01004875
X01004875Y01283014
X00999875
X00994875
X00989875
X00984875
X00979875
X00974875
X00969875
X00964875
X00973847Y01302636
Y01307636
Y01312636
X00978847Y01312636
X00983847Y01312636
X00983847Y01307636
X00983847Y01302636
X00978847
Y01307636
X01005518Y01306636
X01005518Y01311636
X01005518Y01316636
X01002125Y01337546
X00997125
X00992125
X00987125
X00982125
X00977125
X00972125
X00967125
X00991698Y01351636
Y01356636
Y01361636
Y01366636
X00939054
Y01361636
Y01356636
Y01351636
Y01311761
Y01306761
Y01301761
X00934054Y01301761
Y01306761
Y01311761
X00871824Y01319984
X00867768Y01354136
Y01359136
Y01364136
X00865168Y01385886
Y01390886
Y01395886
Y01400886
Y01405886
X00860168
Y01400886
Y01395886
Y01390886
Y01385886
X00835768Y01364136
Y01359136
X00830768
Y01354136
X00835768Y01354136
X00830768Y01364136
X00798268Y01364136
Y01359136
Y01354136
X00799768Y01451636
X00821518Y01461636
X00843451Y01438783
X00871824Y01530984
X00867768Y01565136
Y01570136
Y01575136
X00835768Y01575136
Y01570136
Y01565136
X00830768Y01565136
Y01570136
Y01575136
X00798268Y01575136
Y01570136
Y01565136
X00939054Y01562636
Y01567636
Y01572636
Y01577636
X00991698
Y01572636
Y01567636
Y01562636
X00992125Y01548546
X00987125
X00982125
X00977125
X00972125
X00967125
X00997125
X01002125
X01005518Y01527636
X01005518Y01522636
X01005518Y01517636
X00983847Y01518636
X00983847Y01513636
X00978847
Y01518636
Y01523636
X00983847Y01523636
X00973847Y01523636
Y01518636
Y01513636
X00974875Y01494014
X00979875
X00984875
X00989875
X00994875
X00999875
X01004875
X01009875
X01014875
X01019875
X01019875Y01487014
X01014875
X01009875
X01004875
X00999875
X00994875
X00989875
X00984875
X00979875
X00974875
X00969875
X00964875
Y01480014
X00969875
X00974875
X00979875
X00984875
X00989875
X00994875
X00999875
X01004875
X01009875
X01014875
X01019875
X01002768Y01460636
X00997768
Y01455636
X00992768
X00987768
X00982768
X00977768
X00972768
X00967768
X00962768
X00962768Y01460636
X00967768
X00972768
X00977768
X00982768
X00987768
X00992768
X01002768Y01455636
X01052132Y01459522
X01068529Y01482315
X01067375Y01497296
X01060464Y01513904
X01051625Y01544296
X01040625
X01102722Y01554636
X01145725Y01549636
X01126768Y01485636
X01131463Y01458886
X01183768Y01456636
X01183568Y01332636
Y01327636
X01178568
X01173568
X01168568
X01163568
X01158568
X01153568
X01148568
X01148568Y01332636
X01153568
X01158568
X01163568
X01168568
X01173568
X01178568
X01132768
X01127768
X01122768
X01117768
X01112768
X01107768
X01102768
X01097768
X01092768
X01092768Y01327636
X01097768
X01102768
X01107768
X01112768
X01117768
X01122768
X01127768
X01132768
X01051625Y01333296
X01040625
X01019875Y01283014
X01014875
X01009875
X01073450Y01194135
X00865168Y01194886
X00860168
X00843451Y01227783
X00821518Y01250636
X00799768Y01240636
X00934054Y01512761
Y01517761
Y01522761
X00939054
Y01517761
Y01512761
X00964875Y01494014
X00969875
X01093411Y01493993
X01096768Y01506636
X00791450Y01481809
X00784464Y01482263
X00757768Y01479636
X00758768Y01449636
X00710268Y01426536
X00703268Y01421336
X00715768Y01367136
Y01361886
Y01356636
X00757768Y01268636
X00784464Y01271263
X00791450Y01270809
X00758768Y01238636
X00707779Y01225418
X00698768Y01230918
X00694768Y01237136
X00698768Y01243636
X00715768Y01567636
Y01572886
Y01578136
X00710768Y01634636
X00704768Y01630336
X00758768Y01660636
X00757768Y01690636
X00784464Y01693263
X00791450Y01692809
X00791268Y01809380
X00781768Y01822568
X00787768Y01829636
X00766768Y01833636
X00763768Y01825636
X00715768Y01789136
Y01783886
Y01778636
X00798268Y01781136
Y01786136
Y01776136
X00795268Y01803636
X00801768Y01816636
X00808765Y01822136
X00795268Y01830636
X00830768Y01786136
Y01781136
Y01776136
X00835768Y01776136
Y01781136
Y01786136
X00867768Y01786136
Y01781136
Y01776136
X00871824Y01741984
X00934054Y01733761
Y01728761
Y01723761
X00939054Y01723761
Y01728761
Y01733761
X00973847Y01734636
Y01729636
Y01724636
X00978847Y01724636
Y01729636
Y01734636
X00983847Y01734636
X00983847Y01729636
X00983847Y01724636
X00984875Y01705014
X00989875
X00994875
X00999875
X01004875
X01009875
X01014875
X01019875
X01019875Y01698014
X01014875
X01009875
X01004875
X00999875
X00994875
X00989875
X00984875
X00979875
X00974875
X00969875
X00964875
Y01691014
X00969875
X00974875
X00979875
X00984875
X00989875
X00994875
X00999875
X01004875
X01009875
X01014875
X01019875
X01002768Y01671636
X00997768
X00992768
X00987768
X00982768
X00977768
X00972768
Y01666636
X00967768
X00962768
X00962768Y01671636
X00967768
X00977768Y01666636
X00982768
X00987768
X00992768
X00997768
X01002768
X01048375Y01671136
X01067375Y01698136
Y01708296
Y01718858
X01070222Y01738636
X01075722Y01745877
X01071698Y01753460
X01061875Y01755296
X01051625
X01040625
X01082698Y01755738
X01088198Y01764597
X01092198Y01776154
X01103198Y01770478
X01111900Y01760055
X01090722Y01747435
X01098722Y01722760
Y01677636
X01005518Y01728636
X01005518Y01733636
X01005518Y01738636
X01002125Y01759546
X00997125
X00992125
X00987125
X00982125
X00977125
X00972125
X00967125
X00991698Y01773636
Y01778636
Y01783636
Y01788636
X00989305Y01796627
X00997125
X01005198Y01795625
X01013198
X01020386Y01795136
X01028768
X01061198Y01796636
Y01789636
X01061099Y01879138
X01052768Y01879636
X01021768
X00989198Y01880596
X00972768Y01879636
X00965519Y01844984
X00956886Y01845775
X00949198Y01844984
X00941198
X00933198
X00925198
X00917198
X00908705Y01844921
X00908944Y01829780
X00917518Y01829633
X00925198Y01830636
X00933198
X00940768
X00957198
X00965198
X00981198Y01845306
X01005198Y01845775
X01010768Y01907136
X00997198
X01029198
X01043268
X01100198Y01872636
X01106872Y01855281
X01130515Y01833636
X01133370Y01880127
X01141777Y01885195
X01177768Y01882550
X01164518Y01930886
X01141777Y01934636
X01157198Y01788636
X01165198Y01794368
X00973198Y01796760
X00939054Y01788636
Y01783636
Y01778636
Y01773636
X00964875Y01705014
X00969875
X00974875
X00979875
X00821518Y01672636
X00799768Y01662636
X00843451Y01649783
X00860168Y01616886
Y01611886
Y01606886
Y01601886
Y01596886
X00865168Y01596886
Y01601886
Y01606886
Y01611886
Y01616886
X00901768Y01831495
X01205768Y01845636
X01215270Y01843949
X01223384Y01843589
X01230362Y01844132
X01237493Y01836315
X01238768Y01795060
X01229198Y01794368
X01215892Y01794492
X01208239Y01794368
X01277156Y01786395
X01286343
X01293198Y01797636
X01305268Y01770225
X01308768Y01752636
X01322768Y01744573
X01333198Y01744900
X01356152Y01744326
X01375768
X01404465Y01744367
X01417768Y01739826
X01397872Y01787665
X01356152Y01794425
X01322761Y01784239
X01331463Y01716242
X01348768Y01717636
X01336768Y01694136
Y01683136
X01351768Y01682136
X01365968Y01693636
Y01662636
X01331393Y01661418
X01339968Y01637636
X01300768Y01638636
X01297768Y01613886
X01290268Y01695136
X01315768Y01705636
X01285340Y01831636
X01277198
X01292768Y01882550
X01295768Y01915636
X01301768Y01923636
X01309460Y01929136
X01268768Y01907136
X01244768Y01901636
X01236768Y01882550
X01349152
X01390768Y01922136
Y01934636
X01498768Y01824245
X01484745Y01804636
X01489583Y01794584
X01543623Y01810633
X01548308Y01816636
X01438768Y01635636
X01433968Y01601636
X01437968Y01592136
X01454395Y01591051
X01625595Y01602136
X01626711Y01611636
Y01621252
X01625595Y01643636
X01646851Y01654263
X01863325Y01648293
X01855768Y01640636
X01878275Y01638136
X01880875Y01622233
X01873900Y01621643
X01888143Y01621237
X01920025Y01621386
X01928016Y01622265
X01930871Y01655543
X01924025Y01664136
X01912525Y01658636
X01905275
X01898275
X01888941Y01661720
X01885649Y01655543
X01939525Y01662386
X01952225
X01912768Y01591636
X01907768
X01902768
X01864775Y01597136
X01855525Y01614386
X01840469Y01623235
Y01594889
X01835038Y01789636
X01820768Y01792491
X01863593Y01787973
X01875897Y01787845
X01888774Y01787973
X01900768Y01788000
X01914768Y01787949
X01939724Y01788000
X01951768Y01788212
X01982768Y01824636
X01724268Y01881636
X01732768Y01908136
X01715768Y01908384
X01697493Y01936360
X01678030Y01938932
X01661768Y01904384
X01645768Y01903381
X02003884Y01962136
X02018268
X02018024Y01788434
X02006097Y01788148
X02031768
X02044768Y01787984
X02056300Y01788027
X02081758Y01787984
X02094768
X02094725Y01662386
X02082025
X02073371Y01655543
X02066525Y01664136
X02055025Y01658636
X02047775
X02040775
X02031441Y01661720
X02028149Y01655543
X02020775Y01638136
X02023375Y01622233
X02030643Y01621237
X02062525Y01621386
X02070516Y01622265
X02073768Y01601636
X02055768Y01591636
X02050768
X02045768
X02007275Y01597136
X01998025Y01614386
X01998275Y01638136
X02005825Y01648293
X02124268Y01609636
Y01604636
X02129768
X02134768
Y01609636
X02129768
X02197768Y01607636
X02202768
Y01633636
X02197768
Y01646636
X02202768
Y01659636
X02197768
Y01674636
X02202768
Y01687636
X02197768
Y01700636
X02202768
X02231268Y01891636
X02265268Y01890636
X02501447Y01871592
X02501491Y01864521
X02501447Y01857592
X02556724Y01864342
X02556680Y01821873
X02556636Y01808333
X02537904Y01772917
X02627057Y01751064
X02615955Y01735096
X02585015Y01705636
X02443768Y01734636
X02584768Y01883041
X02273254Y02050328
X02256568Y02305260
X02249710
X02242852
X02235994
X02229136
X02222278
X02215420
X02222786Y02297640
X02229136
X02235994
X02242852
X02300642Y02303258
X02301640Y02330454
Y02336157
Y02342096
Y02348349
Y02354288
Y02360541
Y02366480
X02306958Y02364177
Y02358081
Y02351985
Y02345889
Y02339793
Y02333697
Y02327601
X02369320Y02335786
Y02342286
Y02348786
Y02355494
Y02361994
X02116568Y02305260
X02109710
X02102852
X02095994
X02089136
X02082278
X02082786Y02297640
X02089136
X02095994
X02102852
X02051906Y02319934
Y02326434
X02046826Y02329632
Y02323132
Y02316632
Y02362132
Y02368632
Y02375132
X02051906Y02371934
Y02365434
Y02358934
X01989277Y02357886
Y02351534
Y02345034
Y02338534
Y02332034
Y02325534
Y02319034
Y02312326
Y02305826
Y02364386
Y02370886
Y02377594
X01982048Y02377728
X01975417Y02377780
Y02371073
Y02364572
Y02358072
Y02351720
Y02345220
Y02338721
Y02332220
Y02325720
Y02319220
X01982048Y02319168
Y02325668
Y02332168
Y02338668
Y02345168
Y02351668
Y02358020
Y02364520
Y02371020
X01968848Y02370886
Y02364386
Y02357886
Y02351534
Y02345034
Y02338534
Y02332034
Y02325534
Y02319034
Y02312326
Y02305826
X01975417Y02306013
Y02312513
X01982048Y02312460
Y02305960
X01968848Y02377594
X01925965Y02082445
X01902171Y02083765
X01867241Y02081265
Y02070265
X01955989Y02041304
X01764768Y02146636
X01753285Y02146729
X01739481Y02151743
X01666351Y02169056
X01667047Y02179977
X01643768Y02127636
X01654209Y02115976
Y02090636
X01618768
X01619127Y02055572
X01653207Y02055634
X01653795Y02031863
X01600768Y02032136
X01595000Y02108259
X01544768Y02108266
X01553768Y02074476
X01564771Y02073016
X01563768Y02055976
X01576768Y02010255
X01494768Y02019976
X01518428Y02074476
X01466649Y02128205
X01457165Y02132033
X01471920Y02179748
X01479436Y02174207
X01323178Y02171886
X01314768Y02171636
X01390822Y02258521
X01289768Y02019636
X01308268Y01999636
X01263268Y01984954
X01198520Y02019318
X01968848Y02384094
Y02390594
Y02397094
Y02403594
Y02410094
X01975417Y02410280
Y02403780
Y02397280
Y02390780
Y02384280
X01982048Y02384228
Y02390728
Y02397228
Y02403728
Y02410228
X01989277Y02410094
Y02403594
Y02397094
Y02390594
Y02384094
T02
X02153402Y02020920
X02275875Y02020766
X01134640Y02494912
X01730268Y02485136
T03
X00768241Y01977982
X00775611
X00782589
X01834031Y01983622
X01873268
X02092292Y01972136
X02103487Y01946334
X02107694Y01908163
X02194268Y01722871
X02221518Y01731136
X02279282Y01736136
X02288268Y01697136
X02287999Y01686886
X02295768Y01679636
X02455014Y01677067
X02461629Y01677319
X02468229
X02450625Y01689071
X02495837Y01668155
X02502437
X02550768Y01692872
X02509223Y01772961
Y01779703
Y01786445
Y01793186
X02501750
Y01786445
Y01779703
Y01772961
X02494379
Y01779703
Y01786445
Y01793186
X02487401
Y01786445
Y01779703
Y01772961
X02475955Y01772858
Y01779600
Y01786342
Y01793084
X02468482
Y01786342
Y01779600
Y01772858
X02461111
Y01779600
Y01786342
Y01793084
X02454133
Y01786342
Y01779600
Y01772858
X02453743Y01803320
Y01810062
Y01816804
Y01823546
X02460721
Y01816804
Y01810062
Y01803320
X02468091
Y01810062
Y01816804
Y01823546
X02475564
Y01816804
Y01810062
Y01803320
X02487401
Y01810062
Y01816804
Y01823546
X02494379
Y01816804
Y01810062
Y01803320
X02501750
Y01810062
Y01816804
Y01823546
X02509223
Y01816804
Y01810062
Y01803320
X02598589Y01810858
X02421864Y02018882
X02405768Y02024636
X02386117
X02432018Y02042403
X02430768Y02230527
X02450268
X02394418Y02197034
X02381718Y02197288
Y02265374
X02376813Y02239136
X02323843Y02225605
X02303518Y02224965
X02280768Y02213272
X02265223Y02212974
X02255163Y02222758
X02242118Y02216704
X02229512Y02211561
X02230768Y02235746
X02211004
X02202244Y02208602
X02204018Y02194636
X02191318Y02193991
X02140218Y02194555
X02127518Y02193991
X02131662Y02233719
X02120349Y02233528
X02112612Y02225605
X02102118Y02219146
X02088930Y02212338
X02076718Y02234636
X02063768
X02046974Y02231011
X02051318Y02193991
X02064018
X02073843Y02273048
X02084418Y02272367
X02125416Y02267944
X02131768Y02275636
X02141416Y02273048
X02164768Y02282636
X02135472Y02300631
X02194760Y02257867
X02223518Y02269647
X02217918Y02276651
X02260119Y02273048
X02269535Y02275407
X02280218Y02268159
X02314297Y02261348
X02265223Y02235746
X02297845Y02069560
X02313268Y02036886
X02348768
X02358515Y02024636
X02372802Y02069636
X02294880Y02004988
X02239542Y02019088
X02229512Y01997885
X02172532Y02020920
X02158268Y02010236
X02159143Y01985979
X02147681Y01984905
X02099972
X02092292Y02000421
X02104198Y02004595
X02083488Y02014636
X02048768Y02001104
X02033068Y02011770
X02017742Y02054566
X01996001Y02055036
X02050829Y02064241
X02064018Y02067310
X02124694Y02055471
X02151643Y02067961
X02174564Y02054886
X02203114Y02067310
X02005768Y02233242
X02013768Y02251636
X01974995Y02244636
X01950768Y02323517
X01944026
X01937284
X01930542
Y02330495
X01937284
X01944026
X01950768
Y02337865
X01944026
X01937284
X01930542
Y02345338
X01937284
X01944026
X01950768
X01885768Y02334928
Y02325386
X01848768
X01846952Y02314136
Y02307199
X01827518Y02319934
X01810768Y02339434
X01814818Y02365434
X01776201Y02361040
X01765768Y02362338
X01751168Y02360136
X01745798Y02346526
X01722601Y02347636
X01708768Y02342671
X01692768
X01672335Y02314446
X01735768Y02319934
X01764018Y02321158
X01847281Y02349184
X01834720Y02199636
X01838432Y02161045
X01853418
X01840218Y02135880
X01809370Y02156621
X01791301Y02173091
X01775701Y02172125
X01747320Y02161000
X01731563
X01719863
X01726789Y02205888
X01743018Y02201636
X01759470Y02198772
X01681718Y02192238
X01669631Y02205888
X01642111Y02205492
X01589373Y02230757
X01777624Y02123636
X01759889Y02081960
X01773795Y02033886
X01773450Y02007845
X01804071Y02000595
X01834031Y01991924
X01901589Y02001091
X01955768Y01987959
X01862991Y02051808
X01831819Y02087701
X01880592Y02104973
X01723622Y02054384
X01686843Y01986272
X01564998Y02189151
X01567945Y02230757
X01575088
X01582231
X01547702Y02255386
X01502974Y02312045
X01481116Y02335386
X01418999Y02322738
X01431957Y02361836
X01301813Y02351545
X01284751Y02351193
X01268363Y02350841
X01192993Y02359595
Y02375409
X01195470Y02239390
X01256813Y02228272
X01249563Y02190036
X01264563
X01229313
Y02177386
X01268714Y02157596
X01308315Y02161157
X01331271Y02199702
X01345768Y02240295
X01383015Y02169427
X01390158
X01397300
X01404443
X01471768Y02145636
X01478768Y02138636
X01268566Y02074804
X01189563Y02120859
X01180276Y02159636
X01179260Y02184636
X01177694Y02218731
X01135595Y02232136
X01129715Y02111886
X00968994Y02121378
Y02128120
Y02134862
Y02141604
Y02148346
Y02155088
X00962016
Y02148346
Y02141604
Y02134862
Y02128120
Y02121378
X00954645
Y02128120
Y02134862
Y02141604
Y02148346
Y02155088
X00947172
Y02148346
Y02141604
Y02134862
Y02128120
Y02121378
X01014943Y02269938
Y02276680
Y02283422
Y02290164
X01022416
Y02283422
Y02276680
Y02269938
X01029786
Y02276680
Y02283422
Y02290164
X01036765
Y02283422
Y02276680
Y02269938
X01036586Y02296906
Y02303647
Y02310390
Y02317131
Y02323873
Y02330615
Y02337357
Y02344099
Y02350841
Y02357583
Y02364325
Y02371067
X01029113
Y02364325
Y02357583
Y02350841
X01029216Y02344099
Y02337357
Y02330615
Y02323873
Y02317131
Y02310390
Y02303647
Y02296906
X01021743
Y02303647
Y02310390
Y02317131
Y02323873
Y02330615
Y02337357
Y02344099
Y02350841
Y02357583
Y02364325
Y02371067
X01014765
Y02364325
Y02357583
Y02350841
X01043564Y02344099
Y02337357
Y02330615
Y02323873
Y02317131
Y02310390
Y02303647
Y02296906
X00884557Y02335143
Y02341885
Y02348627
Y02355369
X00877579
Y02348627
Y02341885
Y02335143
X00870209
Y02341885
Y02348627
Y02355369
X00870106Y02362111
X00877084
X00862736
X00855994
X00849252
X00842510
Y02369584
X00849252
X00855994
X00862736
Y02376954
X00855994
X00849252
X00842510
X00870106Y02376459
Y02369481
X00862736Y02355369
Y02348627
Y02341885
Y02335143
X00782589Y02092596
Y02085854
Y02079112
Y02072370
Y02065628
Y02058886
Y02052144
Y02045402
Y02038660
Y02031918
Y02025176
Y02018434
Y02011692
Y02004950
Y01998208
Y01991466
Y01984724
X00775611
Y01991466
Y01998208
Y02004950
Y02011692
Y02018434
Y02025176
Y02031918
Y02038660
Y02045402
Y02052144
Y02058886
Y02065628
Y02072370
Y02079112
Y02085854
Y02092596
X00768241
Y02085854
Y02079112
Y02072370
Y02065628
Y02058886
Y02052144
Y02045402
Y02038660
Y02031918
Y02025176
Y02018434
Y02011692
Y02004950
Y01998208
Y01991466
Y01984724
X00842510Y02383932
X00849252
X00855994
X00862736
X00953914Y02386002
X00960657
X00967398
X00974140
X00980882
X00987624
X00994366
X01001108
Y02393475
X00994366
X00987624
X00980882
X00974140
X00967398
X00960657
X00953914
Y02400845
X00960657
X00967398
X00974140
X00980882
X00987624
X00994366
X01001108
Y02407823
X00994366
X00987624
X00980882
X00974140
X00967398
X00960657
X00953914
X00952215Y02595419
X00944845
X00937867
X00930418
X00923048
X00916070
X00959688
X00966699
X00974069
X00981542
X00843042Y02598016
Y02605489
Y02612859
Y02619838
X00833914Y02595419
X00826441
X00819071
X00812092
X00803288Y02598588
Y02605567
Y02612937
Y02620410
X01100768Y02619661
Y02626403
Y02633145
Y02639887
Y02646629
Y02653371
Y02660113
X01108241
Y02653371
Y02646629
Y02639887
Y02633145
Y02626403
Y02619661
X01115611
Y02626403
Y02633145
Y02639887
Y02646629
Y02653371
Y02660113
X01122589
Y02653371
Y02646629
Y02639887
Y02633145
Y02626403
Y02619661
X01130768
Y02626403
Y02633145
Y02639887
Y02646629
Y02653371
Y02660113
X01138241
Y02653371
Y02646629
Y02639887
Y02633145
Y02626403
Y02619661
X01145611
Y02626403
Y02633145
Y02639887
Y02646629
Y02653371
Y02660113
X01152589
Y02653371
Y02646629
Y02639887
Y02633145
Y02626403
Y02619661
X01155611Y02709410
Y02716152
Y02722894
Y02729636
Y02736600
Y02743342
Y02750084
Y02756826
X01162589
Y02750084
Y02743342
Y02736600
Y02729636
Y02722894
Y02716152
Y02709410
X01148241
Y02716152
Y02722894
Y02729636
Y02736600
Y02743342
Y02750084
Y02756826
X01147746Y02763568
Y02770310
Y02777052
X01140768Y02777263
Y02770522
Y02763568
Y02757037
Y02750084
Y02743553
Y02736600
Y02729636
Y02722894
Y02716152
Y02709410
X01133295Y02709636
Y02716378
Y02723120
Y02729862
Y02736812
Y02743553
Y02750295
Y02757037
Y02763780
Y02770522
Y02777263
X01125925
Y02770522
Y02763780
Y02757037
Y02750295
Y02743553
Y02736812
Y02729862
Y02723120
Y02716378
Y02709636
X01118947
Y02716378
Y02723120
Y02729862
Y02736812
Y02743553
Y02750295
Y02757037
X01155117Y02763568
Y02770310
Y02777052
X01162589
Y02770310
Y02763568
X01444559Y02762369
X01451301
X01458043
X01464785
Y02769347
X01458043
X01451301
X01444559
Y02776717
X01451301
X01458043
X01464785
X01475056
X01481798
X01488540
X01495282
Y02769347
X01488540
X01481798
X01475056
Y02762369
X01481798
X01488540
X01495282
X01529526Y02645245
Y02638503
Y02631761
X01536504
Y02638503
Y02645245
X01543874
Y02638503
Y02631761
X01551347
Y02638503
Y02645245
X01537836Y02388778
X01282313Y02408839
X01246113Y02403795
X01212018Y02392045
X01224129Y02494589
X01675768Y02464636
X01693768Y02408823
X01706066Y02415729
X01720768Y02384636
X01751168Y02403594
X01735768Y02445954
X01745768Y02514636
X01765768Y02534636
X01790819Y02522636
X01817394Y02530958
Y02537700
Y02544442
Y02551184
Y02557926
Y02564668
Y02571410
Y02578152
Y02584894
Y02591636
X01824373
Y02584894
Y02578152
Y02571410
Y02564668
Y02557926
Y02551184
Y02544442
Y02537700
Y02530958
X01831743
Y02537700
Y02544442
Y02551184
Y02557926
Y02564668
Y02571410
Y02578152
X01839216Y02584894
Y02591636
X01846194
Y02584894
Y02578152
X01853564
Y02571410
X01861037
Y02578152
Y02584894
Y02591636
X01868015
Y02584894
Y02578152
Y02571410
Y02564668
Y02557926
Y02551184
Y02544442
Y02537700
Y02530958
X01874993
Y02537700
Y02544442
Y02551184
Y02557926
Y02564668
X01875385Y02571410
Y02578152
Y02584894
Y02591636
X01882858
Y02584894
Y02578152
X01889837
Y02584894
Y02591636
X01897207
Y02584894
Y02578152
Y02571410
Y02564668
Y02557926
Y02551184
X01904185
Y02544442
Y02537700
Y02530958
X01896712
Y02537700
Y02544442
X01889837
Y02537700
X01889342Y02530958
X01882364
Y02537700
Y02544442
Y02551184
X01882858Y02557926
X01889837
Y02564668
Y02571410
X01882364
Y02564668
X01889837Y02551184
X01904680Y02557926
Y02564668
Y02571410
Y02578152
Y02584894
Y02591636
X01853564
Y02584894
X01860542Y02564668
Y02557926
Y02551184
Y02544442
Y02537700
Y02530958
X01853172
Y02537700
Y02544442
Y02551184
Y02557926
X01846194
Y02564668
X01839216
Y02557926
Y02551184
Y02544442
Y02537700
Y02530958
X01846194
Y02537700
Y02544442
Y02551184
X01839216Y02571410
X01805768Y02614494
X01765768Y02628501
X01689964Y02630361
Y02637103
Y02643845
Y02650587
X01682491
Y02643845
Y02637103
Y02630361
X01675121
Y02637103
Y02643845
Y02650587
X01668143
Y02643845
Y02637103
Y02630361
X01627111Y02631761
Y02638503
Y02645245
X01619638
Y02638503
Y02631761
X01612268
Y02638503
Y02645245
X01605289
Y02638503
Y02631761
X01695768Y02539636
X01717328Y02535398
X01806558Y02435636
X01860344Y02429345
X01859768Y02449194
X01894116Y02449795
X01900858
X01907600
X01914342
Y02442425
X01907600
X01900858
X01894116
Y02435447
X01900858
X01907600
X01914342
Y02457268
X01907600
X01900858
X01894116
X01930542Y02463315
X01937284
X01944026
X01950768
Y02470293
X01944026
X01937284
X01930542
Y02477663
X01937284
X01944026
X01950768
Y02485136
X01944026
X01937284
X01930542
X01930739Y02684410
Y02691152
Y02697894
Y02704636
X01938212
Y02697894
Y02691152
Y02684410
X01945582
Y02691152
Y02697894
Y02704636
X01952560
Y02697894
Y02691152
Y02684410
X01963947
Y02691152
Y02697894
Y02704636
X01971420
Y02697894
Y02691152
Y02684410
X01978790
Y02691152
Y02697894
Y02704636
X01952560Y02712285
Y02719027
Y02725769
Y02732511
X01945582
Y02725769
Y02719027
Y02712285
X01938212
Y02719027
Y02725769
Y02732511
X01930739
Y02725769
Y02719027
Y02712285
X01904680Y02711910
Y02718652
Y02725394
Y02732136
X01897207
Y02725394
Y02718652
Y02711910
Y02704636
Y02697894
Y02691152
Y02684410
Y02677668
Y02670926
X01889837
Y02677668
Y02684410
Y02691152
Y02697894
Y02704636
X01882858
Y02697894
Y02691152
Y02684410
Y02677668
Y02670926
X01875385
Y02677668
Y02684410
Y02691152
Y02697894
Y02704636
Y02711910
Y02718652
Y02725394
Y02732136
X01868015
Y02725394
Y02718652
Y02711910
X01861037
Y02718652
Y02725394
Y02732136
X01853564
Y02725394
Y02718652
Y02711910
Y02704636
Y02697894
Y02691152
Y02684410
Y02677668
Y02670926
X01846194
Y02677668
Y02684410
Y02691152
Y02697894
Y02704636
X01839216
Y02697894
Y02691152
Y02684410
Y02677668
Y02670926
X01831743
Y02677668
Y02684410
Y02691152
Y02697894
Y02704636
Y02711910
Y02718652
Y02725394
Y02732136
X01824373
Y02725394
Y02718652
Y02711910
X01817394
Y02718652
Y02725394
Y02732136
X01839216
Y02725394
Y02718652
Y02711910
X01846194
Y02718652
Y02725394
Y02732136
X01882858
Y02725394
Y02718652
Y02711910
X01889837
Y02718652
Y02725394
Y02732136
X01904680Y02704636
Y02697894
Y02691152
Y02684410
Y02677668
Y02670926
X01868015
Y02677668
Y02684410
Y02691152
Y02697894
Y02704636
X01861037
Y02697894
Y02691152
Y02684410
Y02677668
Y02670926
X01824373
Y02677668
Y02684410
Y02691152
Y02697894
Y02704636
X01817394
Y02697894
Y02691152
Y02684410
Y02677668
Y02670926
X01985768Y02684410
Y02691152
Y02697894
Y02704636
X01998947
Y02697894
Y02691152
Y02684410
X02006420
Y02691152
Y02697894
Y02704636
X02013790
Y02697894
Y02691152
Y02684410
X02020768
Y02691152
Y02697894
Y02704636
X02033947
Y02697894
Y02691152
Y02684410
X02041420
Y02691152
Y02697894
Y02704636
X02048790
Y02697894
Y02691152
Y02684410
X02055768
Y02691152
Y02697894
Y02704636
X02401264Y02447136
X02412264
X02037590Y02779410
Y02786152
Y02792894
Y02799636
X02030116
Y02792894
Y02786152
Y02779410
X02022746
Y02786152
Y02792894
Y02799636
X02015768
Y02792894
Y02786152
Y02779410
X02007590
Y02786152
Y02792894
Y02799636
X02000116
Y02792894
Y02786152
Y02779410
X01992746
Y02786152
Y02792894
Y02799636
X01985768
Y02792894
Y02786152
Y02779410
Y02809373
Y02816115
Y02822857
Y02829599
X01992746
Y02822857
Y02816115
Y02809373
X02000116
Y02816115
Y02822857
Y02829599
X02007590
Y02822857
Y02816115
Y02809373
Y02839410
Y02846152
Y02852894
Y02859636
X02000116
Y02852894
Y02846152
Y02839410
X01992746
Y02846152
Y02852894
Y02859636
X01985768
Y02852894
Y02846152
Y02839410
X02015768
Y02846152
Y02852894
Y02859636
X02022746
Y02852894
Y02846152
Y02839410
X02030116
Y02846152
Y02852894
Y02859636
X02037590
Y02852894
Y02846152
Y02839410
X01977590
Y02846152
Y02852894
Y02859636
X01970116
Y02852894
Y02846152
Y02839410
X01962746
Y02846152
Y02852894
Y02859636
X01955768
Y02852894
Y02846152
Y02839410
Y02829599
Y02822857
Y02816115
Y02809373
X01962746
Y02816115
Y02822857
Y02829599
X01970116
Y02822857
Y02816115
Y02809373
X01977590
Y02816115
Y02822857
Y02829599
Y02799636
Y02792894
Y02786152
Y02779410
X01970116
Y02786152
Y02792894
Y02799636
X01962746
Y02792894
Y02786152
Y02779410
X01955768
Y02786152
Y02792894
Y02799636
X01945768
Y02792894
Y02786152
Y02779410
X01938790
Y02786152
Y02792894
Y02799636
X01931420
Y02792894
Y02786152
Y02779410
X01923947
Y02786152
Y02792894
Y02799636
Y02809373
Y02816115
Y02822857
Y02829599
X01931420
Y02822857
Y02816115
Y02809373
X01938790
Y02816115
Y02822857
Y02829599
X01945768
Y02822857
Y02816115
Y02809373
Y02839410
Y02846152
Y02852894
Y02859636
X01938790
Y02852894
Y02846152
Y02839410
X01931420
Y02846152
Y02852894
Y02859636
X01923947
Y02852894
Y02846152
Y02839410
X01913639
Y02846152
Y02852894
Y02859636
X01906661
Y02852894
Y02846152
Y02839410
X01899291
Y02846152
Y02852894
Y02859636
X01891818
Y02852894
Y02846152
Y02839410
Y02829599
Y02822857
Y02816115
Y02809373
X01899291
Y02816115
Y02822857
Y02829599
X01906661
Y02822857
Y02816115
Y02809373
X01913639
Y02816115
Y02822857
Y02829599
Y02799636
Y02792894
Y02786152
Y02779410
X01906661
Y02786152
Y02792894
Y02799636
X01899291
Y02792894
Y02786152
Y02779410
X01891818
Y02786152
Y02792894
Y02799636
X01495282Y02784190
X01488540
X01481798
X01475056
X01464785
X01458043
X01451301
X01444559
T04
X01381468Y01595636
Y01608636
Y01621636
X01394468
Y01608636
Y01595636
T07
X00838699Y01837856
X01419699
T08
X01655768Y02639636
Y02689636
T09
X00730018Y01100886
Y01150886
Y01311886
Y01361886
Y01522886
Y01572886
Y01733886
Y01783886
X00715768Y02722136
X01698268Y02804636
Y02879636
X01485768
Y02804636
X00798897Y02782136
Y02857136
X00715768Y02797136
T10
X02550768Y02017136
Y02292136
X00966617Y02307136
Y02232136
X00878268Y02079636
X00803268
Y01999636
X00878268
X01995768Y02447136
Y02722136
X02038268Y02819636
X01763268
X01088268Y02824636
X00863268
T11
X00595768Y00959636
Y01089636
X00782768Y00928636
X00985768Y00819636
X01145768
X01180768Y00948636
X01523268Y00849636
X01555768
X01588268
X01793268
X01825768
X01858268
X02060768Y00929636
X02185768Y00819636
X02325768
X02073768Y01168636
X02655768Y01157136
Y01189636
X02605768Y00819636
X02465768
X02655768Y01222136
Y01427136
Y01459636
Y01492136
X02073768Y01244636
X01152768Y01472636
X01147768Y01510636
X01116268Y01510372
X00595768Y01479636
Y01349636
Y01219636
Y01609636
Y01739636
Y01869636
X01125768Y01947136
X01200694Y01934636
X01444768Y01736636
X01944768Y01862567
Y01895496
X01975768Y01918636
X02133018Y01918196
X02129209Y01884697
X02335768Y01859636
Y01824636
Y01784636
Y01744636
X02230768Y01672136
X02420768Y01744636
Y01784636
Y01824636
Y01859636
X02640768Y02145636
X01794412Y02101000
X01457843Y02196101
X01355768Y02279636
X01297796Y02116770
X01259831Y02118995
X01210018Y02138836
X01378268Y02002136
X01418268
X00880768Y02139636
X00880045Y02259636
X00595768Y02219636
Y02119636
Y02469636
T12
X01279768Y01580936
X01310768
Y01606336
X01279768
T13
X01155768Y01574636
Y01649636
T14
X02010373Y01906436
Y01931836
X02551918Y01936936
Y01962336
T15
X02414968Y00616036
X02516568
X02554968
Y00717636
X02516568
X02414968
X02656568
Y00616036
X02376568
Y00717636
X02274968
X02236568
Y00616036
X02274968
X02134968
Y00717636
X01196568Y00727636
Y00626036
X01094968
X01036568
Y00727636
X01094968
X00934968
Y00626036
X00392168Y00908836
Y01010436
Y01039201
Y01140801
Y01168836
X00493768
Y01140801
Y01039201
Y01010436
Y00908836
Y01270436
Y01298836
Y01400436
Y01428836
Y01530436
Y01558836
X00392168
Y01530436
Y01428836
Y01400436
Y01298836
Y01270436
Y01660436
Y01688836
Y01790436
Y01818836
Y01920436
X00493768
Y01818836
Y01790436
Y01688836
Y01660436
Y02118836
Y02220436
Y02268836
Y02370436
X00392168
Y02268836
Y02220436
Y02118836
Y02418836
Y02520436
X00493768
Y02418836
T16
X01513268Y02435636
Y02588236
Y02638636
Y02689036
X01588268
Y02638636
Y02588236
Y02435636
T17
X00729768Y00995636
Y01045636
Y01206636
Y01256636
Y01417636
Y01467636
Y01628636
Y01678636
X00724018Y02143336
Y02194136
Y02244936
T19
X01691194Y00684636
Y00784636
X01961194
Y00684636
X01421194
Y00784636
T20
X01274768Y00914636
Y00989636
Y01064636
Y01139636
X02014768
Y01064636
Y01289636
Y01364636
X01274768
Y01439636
Y01514636
Y01289636
T21
X02465768Y00679636
X02605768
X02325768
X02185768
X01145768Y00689636
X00985768
X00455768Y00959636
Y01090001
Y01219636
Y01349636
Y01479636
Y01609636
Y01739636
Y01869636
Y02169636
Y02319636
Y02469636
X00823268Y02397136
X00923268
Y02617136
X00823268
X01235768Y02637136
Y02737136
X01455768
Y02637136
T22
X02125768Y02429636
Y02829636
T23
X00862198Y01837856
X01396199Y01852855
T24
X00720768Y00934636
X02630768Y00934636
X01528768Y01590636
X01880768Y01844636
X01887589Y02237522
X00720768Y01984636
X01410439Y02428105
X02127852Y02629636
X02620768Y02429636
Y02829636
X01593268Y02844636
X00720768
M30
