G04*
G04 #@! TF.GenerationSoftware,Altium Limited,Altium Designer,24.3.1 (35)*
G04*
G04 Layer_Color=9218505*
%FSAX44Y44*%
%MOMM*%
G71*
G04*
G04 #@! TF.SameCoordinates,E5C3A734-9551-4337-A472-1AACCBF89162*
G04*
G04*
G04 #@! TF.FilePolarity,Positive*
G04*
G01*
G75*
%ADD10C,0.2500*%
%ADD11C,0.1500*%
%ADD12C,0.2000*%
%ADD13C,0.1778*%
%ADD25C,0.2032*%
%ADD26C,0.1524*%
%ADD260R,1.3208X0.5080*%
G54D10*
X01983775Y01606886D02*
G03*
X01983775Y01606886I-00001250J00000000D01*
G01*
X02126275D02*
G03*
X02126275Y01606886I-00001250J00000000D01*
G01*
X02023018Y02292636D02*
G03*
X02023018Y02292636I-00001250J00000000D01*
G01*
X02163018D02*
G03*
X02163018Y02292636I-00001250J00000000D01*
G01*
X01007972Y01129136D02*
G03*
X01007972Y01129136I-00001250J00000000D01*
G01*
X01117921Y01218792D02*
G03*
X01117921Y01218792I-00001250J00000000D01*
G01*
X01261049Y01158479D02*
G03*
X01261049Y01158479I-00001250J00000000D01*
G01*
X00853018Y01233636D02*
G03*
X00853018Y01233636I-00001250J00000000D01*
G01*
X01029222Y01245858D02*
G03*
X01029222Y01245858I-00001250J00000000D01*
G01*
X00853018Y01444636D02*
G03*
X00853018Y01444636I-00001250J00000000D01*
G01*
X01029222Y01456858D02*
G03*
X01029222Y01456858I-00001250J00000000D01*
G01*
Y01034858D02*
G03*
X01029222Y01034858I-00001250J00000000D01*
G01*
X00853018Y01022636D02*
G03*
X00853018Y01022636I-00001250J00000000D01*
G01*
Y01655636D02*
G03*
X00853018Y01655636I-00001250J00000000D01*
G01*
X01029222Y01667858D02*
G03*
X01029222Y01667858I-00001250J00000000D01*
G01*
G54D11*
X01570268Y01590636D02*
G03*
X01570268Y01590636I-00041500J00000000D01*
G01*
X02662268Y02429636D02*
G03*
X02662268Y02429636I-00041500J00000000D01*
G01*
Y02829636D02*
G03*
X02662268Y02829636I-00041500J00000000D01*
G01*
X02672268Y00934636D02*
G03*
X02672268Y00934636I-00041500J00000000D01*
G01*
X00762268Y02844636D02*
G03*
X00762268Y02844636I-00041500J00000000D01*
G01*
X01634768D02*
G03*
X01634768Y02844636I-00041500J00000000D01*
G01*
X00762268Y01984636D02*
G03*
X00762268Y01984636I-00041500J00000000D01*
G01*
X02169352Y02629636D02*
G03*
X02169352Y02629636I-00041500J00000000D01*
G01*
X01451939Y02428105D02*
G03*
X01451939Y02428105I-00041500J00000000D01*
G01*
X01929089Y02237522D02*
G03*
X01929089Y02237522I-00041500J00000000D01*
G01*
X01922268Y01844636D02*
G03*
X01922268Y01844636I-00041500J00000000D01*
G01*
X00762268Y00934636D02*
G03*
X00762268Y00934636I-00041500J00000000D01*
G01*
X01865775Y01494386D02*
X01868375D01*
X01941030D02*
X01961275D01*
X01865775Y01615386D02*
X01868375D01*
X01941030D02*
X01961275D01*
X00823768Y01630886D02*
X00830518D01*
X02008275Y01494386D02*
X02010875D01*
X02083530D02*
X02103775D01*
X02008275Y01615386D02*
X02010875D01*
X02083530D02*
X02103775D01*
X02135918Y02405136D02*
X02138518D01*
X02043018D02*
X02063263D01*
X02135918Y02284136D02*
X02138518D01*
X02043018D02*
X02063263D01*
X02275918Y02405136D02*
X02278518D01*
X02183018D02*
X02203263D01*
X02275918Y02284136D02*
X02278518D01*
X02183018D02*
X02203263D01*
X01016472Y01122886D02*
X01029472D01*
X01016472Y01135386D02*
X01029472D01*
X01183671Y01162542D02*
X01186171D01*
Y01165042D01*
Y01212542D02*
Y01215042D01*
X01183671D02*
X01186171D01*
X01108671Y01162542D02*
Y01165042D01*
Y01162542D02*
X01111171D01*
X01108671Y01215042D02*
X01111171D01*
X01108671Y01212542D02*
Y01215042D01*
X01190299Y01214729D02*
X01192799D01*
X01190299Y01212229D02*
Y01214729D01*
Y01162229D02*
Y01164729D01*
Y01162229D02*
X01192799D01*
X01267799Y01212229D02*
Y01214729D01*
X01265299D02*
X01267799D01*
X01265299Y01162229D02*
X01267799D01*
Y01164729D01*
X00838268Y01232036D02*
X00843768D01*
X00838268Y01210536D02*
X00843768D01*
X00958472Y01302108D02*
X00960972D01*
X00958472Y01299608D02*
Y01302108D01*
Y01249608D02*
Y01252108D01*
Y01249608D02*
X00960972D01*
X01035972Y01299608D02*
Y01302108D01*
X01033472D02*
X01035972D01*
X01033472Y01249608D02*
X01035972D01*
Y01252108D01*
X00823768Y01208886D02*
X00830518D01*
X00820518Y01195386D02*
X00830518D01*
X00839018D02*
X00849018D01*
X00839018Y01208886D02*
X00849018D01*
X00838268Y01443036D02*
X00843768D01*
X00838268Y01421536D02*
X00843768D01*
X00958472Y01513108D02*
X00960972D01*
X00958472Y01510608D02*
Y01513108D01*
Y01460608D02*
Y01463108D01*
Y01460608D02*
X00960972D01*
X01035972Y01510608D02*
Y01513108D01*
X01033472D02*
X01035972D01*
X01033472Y01460608D02*
X01035972D01*
Y01463108D01*
X00823768Y01419886D02*
X00830518D01*
X00820518Y01406386D02*
X00830518D01*
X00839018D02*
X00849018D01*
X00839018Y01419886D02*
X00849018D01*
X00839018Y00984386D02*
X00849018D01*
X00839018Y00997886D02*
X00849018D01*
X00823527D02*
X00830518D01*
X00820518Y00984386D02*
X00830518D01*
X00958472Y01091108D02*
X00960972D01*
X00958472Y01088608D02*
Y01091108D01*
Y01038608D02*
Y01041108D01*
Y01038608D02*
X00960972D01*
X01035972Y01088608D02*
Y01091108D01*
X01033472D02*
X01035972D01*
X01033472Y01038608D02*
X01035972D01*
Y01041108D01*
X00838268Y01021036D02*
X00843768D01*
X00838268Y00999536D02*
X00843768D01*
X00838268Y01654036D02*
X00843768D01*
X00838268Y01632536D02*
X00843768D01*
X00820518Y01617386D02*
X00830518D01*
X01035972Y01671608D02*
Y01674108D01*
X01033472Y01671608D02*
X01035972D01*
X01033472Y01724108D02*
X01035972D01*
Y01721608D02*
Y01724108D01*
X00958472Y01671608D02*
X00960972D01*
X00958472D02*
Y01674108D01*
Y01721608D02*
Y01724108D01*
X00960972D01*
X00839018Y01630886D02*
X00849018D01*
X00839018Y01617386D02*
X00849018D01*
G54D12*
X00796018Y01247136D02*
X00807018D01*
X00797018Y01268386D02*
X00816268D01*
X00796018Y01458136D02*
X00807018D01*
X00797018Y01479386D02*
X00816268D01*
X00796018Y01036136D02*
X00807018D01*
X00797018Y01057386D02*
X00816268D01*
X00797018Y01690386D02*
X00816268D01*
X00796018Y01669136D02*
X00807018D01*
G54D13*
X01632042Y01616272D02*
Y01622872D01*
X01645877D01*
Y01616272D02*
Y01622872D01*
Y01592401D02*
Y01599000D01*
X01632042Y01592401D02*
X01645877D01*
X01632042D02*
Y01599000D01*
X00866561Y01717444D02*
Y01723286D01*
Y01717444D02*
X00876975D01*
Y01723286D01*
X00866561Y01735986D02*
Y01741828D01*
X00876975D01*
Y01735986D02*
Y01741828D01*
X01142956Y01250538D02*
Y01252570D01*
Y01229456D02*
X01146258D01*
X01164038D02*
X01182580D01*
Y01252570D01*
X01142956D02*
X01182580D01*
X01142956Y01229456D02*
Y01250538D01*
X01146258Y01229456D02*
X01164038D01*
X01190867Y01145287D02*
Y01147319D01*
Y01124205D02*
X01194169D01*
X01211949D02*
X01230491D01*
Y01147319D01*
X01190867D02*
X01230491D01*
X01190867Y01124205D02*
Y01145287D01*
X01194169Y01124205D02*
X01211949D01*
X00823425Y01014136D02*
Y01019978D01*
X00813011D02*
X00823425D01*
X00813011Y01014136D02*
Y01019978D01*
X00823425Y00995594D02*
Y01001436D01*
X00813011Y00995594D02*
X00823425D01*
X00813011D02*
Y01001436D01*
X00994511Y01814986D02*
Y01820828D01*
X00984098D02*
X00994511D01*
X00984098Y01814986D02*
Y01820828D01*
X00994511Y01796444D02*
Y01802286D01*
X00984098Y01796444D02*
X00994511D01*
X00984098D02*
Y01802286D01*
X00997962Y01824562D02*
X01004562D01*
X00997962Y01810727D02*
Y01824562D01*
Y01810727D02*
X01004562D01*
X01021834D02*
X01028433D01*
Y01824562D01*
X01021834D02*
X01028433D01*
X01017842Y01845401D02*
Y01852000D01*
Y01845401D02*
X01031677D01*
Y01852000D01*
Y01869272D02*
Y01875871D01*
X01017842D02*
X01031677D01*
X01017842Y01869272D02*
Y01875871D01*
X01002561Y01850444D02*
Y01856286D01*
Y01850444D02*
X01012975D01*
Y01856286D01*
X01002561Y01868986D02*
Y01874828D01*
X01012975D01*
Y01868986D02*
Y01874828D01*
X01299475Y01239986D02*
Y01245828D01*
X01289061D02*
X01299475D01*
X01289061Y01239986D02*
Y01245828D01*
X01299475Y01221444D02*
Y01227286D01*
X01289061Y01221444D02*
X01299475D01*
X01289061D02*
Y01227286D01*
X00986405Y01868986D02*
Y01874828D01*
X00975991D02*
X00986405D01*
X00975991Y01868986D02*
Y01874828D01*
X00986405Y01850444D02*
Y01856286D01*
X00975991Y01850444D02*
X00986405D01*
X00975991D02*
Y01856286D01*
X01325975Y01696986D02*
Y01702828D01*
X01315561D02*
X01325975D01*
X01315561Y01696986D02*
Y01702828D01*
X01325975Y01678444D02*
Y01684286D01*
X01315561Y01678444D02*
X01325975D01*
X01315561D02*
Y01684286D01*
X01356732Y01588562D02*
X01363332D01*
X01356732Y01574727D02*
Y01588562D01*
Y01574727D02*
X01363332D01*
X01380604D02*
X01387203D01*
Y01588562D01*
X01380604D02*
X01387203D01*
X00985991Y01850444D02*
Y01856286D01*
Y01850444D02*
X00996405D01*
Y01856286D01*
X00985991Y01868986D02*
Y01874828D01*
X00996405D01*
Y01868986D02*
Y01874828D01*
X01430733Y01589562D02*
X01437332D01*
X01430733Y01575727D02*
Y01589562D01*
Y01575727D02*
X01437332D01*
X01454604D02*
X01461203D01*
Y01589562D01*
X01454604D02*
X01461203D01*
X01420393Y01604272D02*
Y01610871D01*
X01406559D02*
X01420393D01*
X01406559Y01604272D02*
Y01610871D01*
Y01580401D02*
Y01587000D01*
Y01580401D02*
X01420393D01*
Y01587000D01*
X01439842Y01595401D02*
Y01602000D01*
Y01595401D02*
X01453677D01*
Y01602000D01*
Y01619272D02*
Y01625871D01*
X01439842D02*
X01453677D01*
X01439842Y01619272D02*
Y01625871D01*
X01422042Y01611401D02*
Y01618000D01*
Y01611401D02*
X01435877D01*
Y01618000D01*
Y01635272D02*
Y01641871D01*
X01422042D02*
X01435877D01*
X01422042Y01635272D02*
Y01641871D01*
X01406542Y01611401D02*
Y01618000D01*
Y01611401D02*
X01420377D01*
Y01618000D01*
Y01635272D02*
Y01641871D01*
X01406542D02*
X01420377D01*
X01406542Y01635272D02*
Y01641871D01*
X01223722Y01226444D02*
Y01232286D01*
Y01226444D02*
X01234136D01*
Y01232286D01*
X01223722Y01244986D02*
Y01250828D01*
X01234136D01*
Y01244986D02*
Y01250828D01*
X01234495Y01226444D02*
Y01232286D01*
Y01226444D02*
X01244909D01*
Y01232286D01*
X01234495Y01244986D02*
Y01250828D01*
X01244909D01*
Y01244986D02*
Y01250828D01*
X01141975Y01144985D02*
Y01150827D01*
X01131561D02*
X01141975D01*
X01131561Y01144985D02*
Y01150827D01*
X01141975Y01126443D02*
Y01132285D01*
X01131561Y01126443D02*
X01141975D01*
X01131561D02*
Y01132285D01*
X01152725Y01144986D02*
Y01150828D01*
X01142311D02*
X01152725D01*
X01142311Y01144986D02*
Y01150828D01*
X01152725Y01126444D02*
Y01132286D01*
X01142311Y01126444D02*
X01152725D01*
X01142311D02*
Y01132286D01*
X01278475Y01238986D02*
Y01244828D01*
X01268061D02*
X01278475D01*
X01268061Y01238986D02*
Y01244828D01*
X01278475Y01220444D02*
Y01226286D01*
X01268061Y01220444D02*
X01278475D01*
X01268061D02*
Y01226286D01*
X01278561Y01220444D02*
Y01226286D01*
Y01220444D02*
X01288975D01*
Y01226286D01*
X01278561Y01238986D02*
Y01244828D01*
X01288975D01*
Y01238986D02*
Y01244828D01*
X01274010Y01214624D02*
X01279852D01*
X01274010Y01204210D02*
Y01214624D01*
Y01204210D02*
X01279852D01*
X01292552Y01214624D02*
X01298394D01*
Y01204210D02*
Y01214624D01*
X01292552Y01204210D02*
X01298394D01*
X01274076Y01204343D02*
X01279918D01*
X01274076Y01193929D02*
Y01204343D01*
Y01193929D02*
X01279918D01*
X01292618Y01204343D02*
X01298460D01*
Y01193929D02*
Y01204343D01*
X01292618Y01193929D02*
X01298460D01*
X01292618Y01183429D02*
X01298460D01*
Y01193843D01*
X01292618D02*
X01298460D01*
X01274076Y01183429D02*
X01279918D01*
X01274076D02*
Y01193843D01*
X01279918D01*
X01257561Y01220444D02*
Y01226286D01*
Y01220444D02*
X01267975D01*
Y01226286D01*
X01257561Y01238986D02*
Y01244828D01*
X01267975D01*
Y01238986D02*
Y01244828D01*
X01247061Y01220444D02*
Y01226286D01*
Y01220444D02*
X01257475D01*
Y01226286D01*
X01247061Y01238986D02*
Y01244828D01*
X01257475D01*
Y01238986D02*
Y01244828D01*
X01292618Y01173179D02*
X01298460D01*
Y01183593D01*
X01292618D02*
X01298460D01*
X01274076Y01173179D02*
X01279918D01*
X01274076D02*
Y01183593D01*
X01279918D01*
X01274076Y01173235D02*
X01279918D01*
X01274076Y01162821D02*
Y01173235D01*
Y01162821D02*
X01279918D01*
X01292618Y01173235D02*
X01298460D01*
Y01162821D02*
Y01173235D01*
X01292618Y01162821D02*
X01298460D01*
X01129409Y01150985D02*
Y01156827D01*
X01118995D02*
X01129409D01*
X01118995Y01150985D02*
Y01156827D01*
X01129409Y01132443D02*
Y01138285D01*
X01118995Y01132443D02*
X01129409D01*
X01118995D02*
Y01138285D01*
X01108495Y01132443D02*
Y01138285D01*
Y01132443D02*
X01118909D01*
Y01138285D01*
X01108495Y01150985D02*
Y01156827D01*
X01118909D01*
Y01150985D02*
Y01156827D01*
X01078010Y01183342D02*
X01083852D01*
X01078010Y01172928D02*
Y01183342D01*
Y01172928D02*
X01083852D01*
X01096552Y01183342D02*
X01102394D01*
Y01172928D02*
Y01183342D01*
X01096552Y01172928D02*
X01102394D01*
X01078010Y01214450D02*
X01083852D01*
X01078010Y01204036D02*
Y01214450D01*
Y01204036D02*
X01083852D01*
X01096552Y01214450D02*
X01102394D01*
Y01204036D02*
Y01214450D01*
X01096552Y01204036D02*
X01102394D01*
X01096552Y01183428D02*
X01102394D01*
Y01193842D01*
X01096552D02*
X01102394D01*
X01078010Y01183428D02*
X01083852D01*
X01078010D02*
Y01193842D01*
X01083852D01*
X01078010Y01204092D02*
X01083852D01*
X01078010Y01193678D02*
Y01204092D01*
Y01193678D02*
X01083852D01*
X01096552Y01204092D02*
X01102394D01*
Y01193678D02*
Y01204092D01*
X01096552Y01193678D02*
X01102394D01*
X01087495Y01132443D02*
Y01138285D01*
Y01132443D02*
X01097909D01*
Y01138285D01*
X01087495Y01150985D02*
Y01156827D01*
X01097909D01*
Y01150985D02*
Y01156827D01*
X01096618Y01162647D02*
X01102460D01*
Y01173062D01*
X01096618D02*
X01102460D01*
X01078076D02*
X01083918D01*
X01108409Y01150985D02*
Y01156827D01*
X01097995D02*
X01108409D01*
X01097995Y01150985D02*
Y01156827D01*
X01108409Y01132443D02*
Y01138285D01*
X01097995Y01132443D02*
X01108409D01*
X01097995D02*
Y01138285D01*
X01087409Y01140443D02*
Y01146285D01*
X01076995Y01140443D02*
X01087409D01*
X01076995D02*
Y01146285D01*
X00973418Y01312854D02*
Y01318696D01*
Y01312854D02*
X00983832D01*
Y01318696D01*
X00973418Y01331396D02*
Y01337238D01*
X00983832D01*
Y01331396D02*
Y01337238D01*
X00962918Y01312854D02*
Y01318696D01*
Y01312854D02*
X00973332D01*
Y01318696D01*
X00962918Y01331396D02*
Y01337238D01*
X00973332D01*
Y01331396D02*
Y01337238D01*
X01060725Y01260589D02*
X01066567D01*
Y01271003D01*
X01060725D02*
X01066567D01*
X01042183Y01260589D02*
X01048025D01*
X01042183D02*
Y01271003D01*
X01048025D01*
X00720811Y01218444D02*
Y01224286D01*
Y01218444D02*
X00731225D01*
Y01224286D01*
X00720811Y01236986D02*
Y01242828D01*
X00731225D01*
Y01236986D02*
Y01242828D01*
X00755694Y01252272D02*
Y01258872D01*
X00741859D02*
X00755694D01*
X00741859Y01252272D02*
Y01258872D01*
Y01228400D02*
Y01235000D01*
Y01228400D02*
X00755694D01*
Y01235000D01*
X01060725Y01281089D02*
X01066567D01*
Y01291503D01*
X01060725D02*
X01066567D01*
X01042183Y01281089D02*
X01048025D01*
X01042183D02*
Y01291503D01*
X01048025D01*
X01056582Y01326646D02*
Y01332488D01*
X01046168D02*
X01056582D01*
X01046168Y01326646D02*
Y01332488D01*
X01056582Y01308104D02*
Y01313946D01*
X01046168Y01308104D02*
X01056582D01*
X01046168D02*
Y01313946D01*
X01060725Y01291589D02*
X01066567D01*
Y01302003D01*
X01060725D02*
X01066567D01*
X01042183Y01291589D02*
X01048025D01*
X01042183D02*
Y01302003D01*
X01048025D01*
X01067082Y01326646D02*
Y01332488D01*
X01056668D02*
X01067082D01*
X01056668Y01326646D02*
Y01332488D01*
X01067082Y01308104D02*
Y01313946D01*
X01056668Y01308104D02*
X01067082D01*
X01056668D02*
Y01313946D01*
X01025832Y01326396D02*
Y01332238D01*
X01015418D02*
X01025832D01*
X01015418Y01326396D02*
Y01332238D01*
X01025832Y01307854D02*
Y01313696D01*
X01015418Y01307854D02*
X01025832D01*
X01015418D02*
Y01313696D01*
X00778118Y01232429D02*
X00783960D01*
Y01242843D01*
X00778118D02*
X00783960D01*
X00759576Y01232429D02*
X00765418D01*
X00759576D02*
Y01242843D01*
X00765418D01*
X00832811Y01240944D02*
Y01246786D01*
Y01240944D02*
X00843225D01*
Y01246786D01*
X00832811Y01259486D02*
Y01265328D01*
X00843225D01*
Y01259486D02*
Y01265328D01*
X00778118Y01253429D02*
X00783960D01*
Y01263843D01*
X00778118D02*
X00783960D01*
X00759576Y01253429D02*
X00765418D01*
X00759576D02*
Y01263843D01*
X00765418D01*
X00867154Y01251460D02*
X00873753D01*
Y01265295D01*
X00867154D02*
X00873753D01*
X00843282D02*
X00849882D01*
X00843282Y01251460D02*
Y01265295D01*
Y01251460D02*
X00849882D01*
X00811018Y01196986D02*
X00820018D01*
X00811018Y01172786D02*
Y01196986D01*
Y01172786D02*
X00820018D01*
X00850018D02*
X00859018D01*
Y01196986D01*
X00850018D02*
X00859018D01*
X00712483Y01207636D02*
Y01222386D01*
Y01195636D02*
Y01207636D01*
X00701053D02*
Y01222386D01*
Y01195636D02*
Y01207636D01*
X00984098Y01312854D02*
Y01318696D01*
Y01312854D02*
X00994511D01*
Y01318696D01*
X00984098Y01331396D02*
Y01337238D01*
X00994511D01*
Y01331396D02*
Y01337238D01*
X00994668Y01312854D02*
Y01318696D01*
Y01312854D02*
X01005082D01*
Y01318696D01*
X00994668Y01331396D02*
Y01337238D01*
X01005082D01*
Y01331396D02*
Y01337238D01*
X00741475Y01236986D02*
Y01242828D01*
X00731061D02*
X00741475D01*
X00731061Y01236986D02*
Y01242828D01*
X00741475Y01218444D02*
Y01224286D01*
X00731061Y01218444D02*
X00741475D01*
X00731061D02*
Y01224286D01*
X01042183Y01281253D02*
X01048025D01*
X01042183Y01270839D02*
Y01281253D01*
Y01270839D02*
X01048025D01*
X01060725Y01281253D02*
X01066567D01*
Y01270839D02*
Y01281253D01*
X01060725Y01270839D02*
X01066567D01*
X01035668Y01308104D02*
Y01313946D01*
Y01308104D02*
X01046082D01*
Y01313946D01*
X01035668Y01326646D02*
Y01332488D01*
X01046082D01*
Y01326646D02*
Y01332488D01*
X00759576Y01252843D02*
X00765418D01*
X00759576Y01242429D02*
Y01252843D01*
Y01242429D02*
X00765418D01*
X00778118Y01252843D02*
X00783960D01*
Y01242429D02*
Y01252843D01*
X00778118Y01242429D02*
X00783960D01*
X00813011Y01206594D02*
Y01212436D01*
Y01206594D02*
X00823425D01*
Y01212436D01*
X00813011Y01225136D02*
Y01230978D01*
X00823425D01*
Y01225136D02*
Y01230978D01*
X00858311Y01206444D02*
Y01212286D01*
Y01206444D02*
X00868725D01*
Y01212286D01*
X00858311Y01224986D02*
Y01230828D01*
X00868725D01*
Y01224986D02*
Y01230828D01*
X00759576Y01273843D02*
X00765418D01*
X00759576Y01263429D02*
Y01273843D01*
Y01263429D02*
X00765418D01*
X00778118Y01273843D02*
X00783960D01*
Y01263429D02*
Y01273843D01*
X00778118Y01263429D02*
X00783960D01*
X00832725Y01259486D02*
Y01265328D01*
X00822311D02*
X00832725D01*
X00822311Y01259486D02*
Y01265328D01*
X00832725Y01240944D02*
Y01246786D01*
X00822311Y01240944D02*
X00832725D01*
X00822311D02*
Y01246786D01*
X00790118Y01274429D02*
X00795960D01*
Y01284843D01*
X00790118D02*
X00795960D01*
X00771576Y01274429D02*
X00777418D01*
X00771576D02*
Y01284843D01*
X00777418D01*
X01035832Y01326396D02*
Y01332238D01*
X01025418D02*
X01035832D01*
X01025418Y01326396D02*
Y01332238D01*
X01035832Y01307854D02*
Y01313696D01*
X01025418Y01307854D02*
X01035832D01*
X01025418D02*
Y01313696D01*
X01060725Y01250089D02*
X01066567D01*
Y01260502D01*
X01060725D02*
X01066567D01*
X01042183Y01250089D02*
X01048025D01*
X01042183D02*
Y01260502D01*
X01048025D01*
X00866561Y01295444D02*
Y01301286D01*
Y01295444D02*
X00876975D01*
Y01301286D01*
X00866561Y01313986D02*
Y01319828D01*
X00876975D01*
Y01313986D02*
Y01319828D01*
X00973418Y01523854D02*
Y01529696D01*
Y01523854D02*
X00983832D01*
Y01529696D01*
X00973418Y01542396D02*
Y01548238D01*
X00983832D01*
Y01542396D02*
Y01548238D01*
X00962918Y01523854D02*
Y01529696D01*
Y01523854D02*
X00973332D01*
Y01529696D01*
X00962918Y01542396D02*
Y01548238D01*
X00973332D01*
Y01542396D02*
Y01548238D01*
X01060725Y01471588D02*
X01066567D01*
Y01482003D01*
X01060725D02*
X01066567D01*
X01042183Y01471588D02*
X01048025D01*
X01042183D02*
Y01482003D01*
X01048025D01*
X00720811Y01429444D02*
Y01435286D01*
Y01429444D02*
X00731225D01*
Y01435286D01*
X00720811Y01447986D02*
Y01453828D01*
X00731225D01*
Y01447986D02*
Y01453828D01*
X00755694Y01463272D02*
Y01469872D01*
X00741859D02*
X00755694D01*
X00741859Y01463272D02*
Y01469872D01*
Y01439400D02*
Y01446000D01*
Y01439400D02*
X00755694D01*
Y01446000D01*
X01060725Y01492089D02*
X01066567D01*
Y01502503D01*
X01060725D02*
X01066567D01*
X01042183Y01492089D02*
X01048025D01*
X01042183D02*
Y01502503D01*
X01048025D01*
X01056582Y01537646D02*
Y01543488D01*
X01046168D02*
X01056582D01*
X01046168Y01537646D02*
Y01543488D01*
X01056582Y01519104D02*
Y01524946D01*
X01046168Y01519104D02*
X01056582D01*
X01046168D02*
Y01524946D01*
X01060725Y01502589D02*
X01066567D01*
Y01513003D01*
X01060725D02*
X01066567D01*
X01042183Y01502589D02*
X01048025D01*
X01042183D02*
Y01513003D01*
X01048025D01*
X01067082Y01537646D02*
Y01543488D01*
X01056668D02*
X01067082D01*
X01056668Y01537646D02*
Y01543488D01*
X01067082Y01519104D02*
Y01524946D01*
X01056668Y01519104D02*
X01067082D01*
X01056668D02*
Y01524946D01*
X01025832Y01537396D02*
Y01543238D01*
X01015418D02*
X01025832D01*
X01015418Y01537396D02*
Y01543238D01*
X01025832Y01518854D02*
Y01524696D01*
X01015418Y01518854D02*
X01025832D01*
X01015418D02*
Y01524696D01*
X00778118Y01443429D02*
X00783960D01*
Y01453843D01*
X00778118D02*
X00783960D01*
X00759576Y01443429D02*
X00765418D01*
X00759576D02*
Y01453843D01*
X00765418D01*
X00832811Y01451944D02*
Y01457786D01*
Y01451944D02*
X00843225D01*
Y01457786D01*
X00832811Y01470486D02*
Y01476328D01*
X00843225D01*
Y01470486D02*
Y01476328D01*
X00778118Y01464429D02*
X00783960D01*
Y01474843D01*
X00778118D02*
X00783960D01*
X00759576Y01464429D02*
X00765418D01*
X00759576D02*
Y01474843D01*
X00765418D01*
X00867154Y01462460D02*
X00873753D01*
Y01476295D01*
X00867154D02*
X00873753D01*
X00843282D02*
X00849882D01*
X00843282Y01462460D02*
Y01476295D01*
Y01462460D02*
X00849882D01*
X00811018Y01407986D02*
X00820018D01*
X00811018Y01383786D02*
Y01407986D01*
Y01383786D02*
X00820018D01*
X00850018D02*
X00859018D01*
Y01407986D01*
X00850018D02*
X00859018D01*
X00719483Y01440636D02*
Y01455386D01*
Y01428636D02*
Y01440636D01*
X00708053D02*
Y01455386D01*
Y01428636D02*
Y01440636D01*
X00984098Y01523854D02*
Y01529696D01*
Y01523854D02*
X00994511D01*
Y01529696D01*
X00984098Y01542396D02*
Y01548238D01*
X00994511D01*
Y01542396D02*
Y01548238D01*
X00994668Y01523854D02*
Y01529696D01*
Y01523854D02*
X01005082D01*
Y01529696D01*
X00994668Y01542396D02*
Y01548238D01*
X01005082D01*
Y01542396D02*
Y01548238D01*
X00741475Y01447986D02*
Y01453828D01*
X00731061D02*
X00741475D01*
X00731061Y01447986D02*
Y01453828D01*
X00741475Y01429444D02*
Y01435286D01*
X00731061Y01429444D02*
X00741475D01*
X00731061D02*
Y01435286D01*
X01042183Y01492253D02*
X01048025D01*
X01042183Y01481839D02*
Y01492253D01*
Y01481839D02*
X01048025D01*
X01060725Y01492253D02*
X01066567D01*
Y01481839D02*
Y01492253D01*
X01060725Y01481839D02*
X01066567D01*
X01035668Y01519104D02*
Y01524946D01*
Y01519104D02*
X01046082D01*
Y01524946D01*
X01035668Y01537646D02*
Y01543488D01*
X01046082D01*
Y01537646D02*
Y01543488D01*
X00759576Y01463843D02*
X00765418D01*
X00759576Y01453429D02*
Y01463843D01*
Y01453429D02*
X00765418D01*
X00778118Y01463843D02*
X00783960D01*
Y01453429D02*
Y01463843D01*
X00778118Y01453429D02*
X00783960D01*
X00813011Y01417594D02*
Y01423436D01*
Y01417594D02*
X00823425D01*
Y01423436D01*
X00813011Y01436136D02*
Y01441978D01*
X00823425D01*
Y01436136D02*
Y01441978D01*
X00858311Y01417444D02*
Y01423286D01*
Y01417444D02*
X00868725D01*
Y01423286D01*
X00858311Y01435986D02*
Y01441828D01*
X00868725D01*
Y01435986D02*
Y01441828D01*
X00759576Y01484843D02*
X00765418D01*
X00759576Y01474429D02*
Y01484843D01*
Y01474429D02*
X00765418D01*
X00778118Y01484843D02*
X00783960D01*
Y01474429D02*
Y01484843D01*
X00778118Y01474429D02*
X00783960D01*
X00832725Y01470486D02*
Y01476328D01*
X00822311D02*
X00832725D01*
X00822311Y01470486D02*
Y01476328D01*
X00832725Y01451944D02*
Y01457786D01*
X00822311Y01451944D02*
X00832725D01*
X00822311D02*
Y01457786D01*
X00790118Y01485429D02*
X00795960D01*
Y01495843D01*
X00790118D02*
X00795960D01*
X00771576Y01485429D02*
X00777418D01*
X00771576D02*
Y01495843D01*
X00777418D01*
X01035832Y01537396D02*
Y01543238D01*
X01025418D02*
X01035832D01*
X01025418Y01537396D02*
Y01543238D01*
X01035832Y01518854D02*
Y01524696D01*
X01025418Y01518854D02*
X01035832D01*
X01025418D02*
Y01524696D01*
X01060725Y01461089D02*
X01066567D01*
Y01471503D01*
X01060725D02*
X01066567D01*
X01042183Y01461089D02*
X01048025D01*
X01042183D02*
Y01471503D01*
X01048025D01*
X00866561Y01506444D02*
Y01512286D01*
Y01506444D02*
X00876975D01*
Y01512286D01*
X00866561Y01524986D02*
Y01530828D01*
X00876975D01*
Y01524986D02*
Y01530828D01*
X00866561Y01084444D02*
Y01090286D01*
Y01084444D02*
X00876975D01*
Y01090286D01*
X00866561Y01102986D02*
Y01108828D01*
X00876975D01*
Y01102986D02*
Y01108828D01*
X01060725Y01039089D02*
X01066567D01*
Y01049502D01*
X01060725D02*
X01066567D01*
X01042183Y01039089D02*
X01048025D01*
X01042183D02*
Y01049502D01*
X01048025D01*
X01035832Y01115396D02*
Y01121238D01*
X01025418D02*
X01035832D01*
X01025418Y01115396D02*
Y01121238D01*
X01035832Y01096854D02*
Y01102696D01*
X01025418Y01096854D02*
X01035832D01*
X01025418D02*
Y01102696D01*
X00790118Y01063429D02*
X00795960D01*
Y01073843D01*
X00790118D02*
X00795960D01*
X00771576Y01063429D02*
X00777418D01*
X00771576D02*
Y01073843D01*
X00777418D01*
X00832725Y01048486D02*
Y01054328D01*
X00822311D02*
X00832725D01*
X00822311Y01048486D02*
Y01054328D01*
X00832725Y01029944D02*
Y01035786D01*
X00822311Y01029944D02*
X00832725D01*
X00822311D02*
Y01035786D01*
X00759576Y01062843D02*
X00765418D01*
X00759576Y01052429D02*
Y01062843D01*
Y01052429D02*
X00765418D01*
X00778118Y01062843D02*
X00783960D01*
Y01052429D02*
Y01062843D01*
X00778118Y01052429D02*
X00783960D01*
X00858311Y00995444D02*
Y01001286D01*
Y00995444D02*
X00868725D01*
Y01001286D01*
X00858311Y01013986D02*
Y01019828D01*
X00868725D01*
Y01013986D02*
Y01019828D01*
X00759576Y01041843D02*
X00765418D01*
X00759576Y01031429D02*
Y01041843D01*
Y01031429D02*
X00765418D01*
X00778118Y01041843D02*
X00783960D01*
Y01031429D02*
Y01041843D01*
X00778118Y01031429D02*
X00783960D01*
X01035668Y01097104D02*
Y01102946D01*
Y01097104D02*
X01046082D01*
Y01102946D01*
X01035668Y01115646D02*
Y01121488D01*
X01046082D01*
Y01115646D02*
Y01121488D01*
X01042183Y01070253D02*
X01048025D01*
X01042183Y01059838D02*
Y01070253D01*
Y01059838D02*
X01048025D01*
X01060725Y01070253D02*
X01066567D01*
Y01059838D02*
Y01070253D01*
X01060725Y01059838D02*
X01066567D01*
X00741475Y01025986D02*
Y01031828D01*
X00731061D02*
X00741475D01*
X00731061Y01025986D02*
Y01031828D01*
X00741475Y01007444D02*
Y01013286D01*
X00731061Y01007444D02*
X00741475D01*
X00731061D02*
Y01013286D01*
X00994668Y01101854D02*
Y01107696D01*
Y01101854D02*
X01005082D01*
Y01107696D01*
X00994668Y01120396D02*
Y01126238D01*
X01005082D01*
Y01120396D02*
Y01126238D01*
X00984098Y01101854D02*
Y01107696D01*
Y01101854D02*
X00994511D01*
Y01107696D01*
X00984098Y01120396D02*
Y01126238D01*
X00994511D01*
Y01120396D02*
Y01126238D01*
X00712483Y00996636D02*
Y01011386D01*
Y00984636D02*
Y00996636D01*
X00701053D02*
Y01011386D01*
Y00984636D02*
Y00996636D01*
X00811018Y00985986D02*
X00820018D01*
X00811018Y00961786D02*
Y00985986D01*
Y00961786D02*
X00820018D01*
X00850018D02*
X00859018D01*
Y00985986D01*
X00850018D02*
X00859018D01*
X00867154Y01040460D02*
X00873753D01*
Y01054295D01*
X00867154D02*
X00873753D01*
X00843282D02*
X00849882D01*
X00843282Y01040460D02*
Y01054295D01*
Y01040460D02*
X00849882D01*
X00778118Y01042429D02*
X00783960D01*
Y01052843D01*
X00778118D02*
X00783960D01*
X00759576Y01042429D02*
X00765418D01*
X00759576D02*
Y01052843D01*
X00765418D01*
X00832811Y01029944D02*
Y01035786D01*
Y01029944D02*
X00843225D01*
Y01035786D01*
X00832811Y01048486D02*
Y01054328D01*
X00843225D01*
Y01048486D02*
Y01054328D01*
X00778118Y01021429D02*
X00783960D01*
Y01031843D01*
X00778118D02*
X00783960D01*
X00759576Y01021429D02*
X00765418D01*
X00759576D02*
Y01031843D01*
X00765418D01*
X01025832Y01115396D02*
Y01121238D01*
X01015418D02*
X01025832D01*
X01015418Y01115396D02*
Y01121238D01*
X01025832Y01096854D02*
Y01102696D01*
X01015418Y01096854D02*
X01025832D01*
X01015418D02*
Y01102696D01*
X01067082Y01108646D02*
Y01114488D01*
X01056668D02*
X01067082D01*
X01056668Y01108646D02*
Y01114488D01*
X01067082Y01090104D02*
Y01095946D01*
X01056668Y01090104D02*
X01067082D01*
X01056668D02*
Y01095946D01*
X01060725Y01080589D02*
X01066567D01*
Y01091003D01*
X01060725D02*
X01066567D01*
X01042183Y01080589D02*
X01048025D01*
X01042183D02*
Y01091003D01*
X01048025D01*
X01056582Y01115646D02*
Y01121488D01*
X01046168D02*
X01056582D01*
X01046168Y01115646D02*
Y01121488D01*
X01056582Y01097104D02*
Y01102946D01*
X01046168Y01097104D02*
X01056582D01*
X01046168D02*
Y01102946D01*
X01060725Y01070089D02*
X01066567D01*
Y01080502D01*
X01060725D02*
X01066567D01*
X01042183Y01070089D02*
X01048025D01*
X01042183D02*
Y01080502D01*
X01048025D01*
X00755694Y01041272D02*
Y01047871D01*
X00741859D02*
X00755694D01*
X00741859Y01041272D02*
Y01047871D01*
Y01017401D02*
Y01024000D01*
Y01017401D02*
X00755694D01*
Y01024000D01*
X00720811Y01007444D02*
Y01013286D01*
Y01007444D02*
X00731225D01*
Y01013286D01*
X00720811Y01025986D02*
Y01031828D01*
X00731225D01*
Y01025986D02*
Y01031828D01*
X01060725Y01049588D02*
X01066567D01*
Y01060003D01*
X01060725D02*
X01066567D01*
X01042183Y01049588D02*
X01048025D01*
X01042183D02*
Y01060003D01*
X01048025D01*
X00962918Y01101854D02*
Y01107696D01*
Y01101854D02*
X00973332D01*
Y01107696D01*
X00962918Y01120396D02*
Y01126238D01*
X00973332D01*
Y01120396D02*
Y01126238D01*
X00973418Y01101854D02*
Y01107696D01*
Y01101854D02*
X00983832D01*
Y01107696D01*
X00973418Y01120396D02*
Y01126238D01*
X00983832D01*
Y01120396D02*
Y01126238D01*
X00755694Y01650401D02*
Y01657000D01*
X00741859Y01650401D02*
X00755694D01*
X00741859D02*
Y01657000D01*
Y01674272D02*
Y01680871D01*
X00755694D01*
Y01674272D02*
Y01680871D01*
X00813011Y01628594D02*
Y01634436D01*
Y01628594D02*
X00823425D01*
Y01634436D01*
X00813011Y01647136D02*
Y01652978D01*
X00823425D01*
Y01647136D02*
Y01652978D01*
X00850018Y01618986D02*
X00859018D01*
Y01594786D02*
Y01618986D01*
X00850018Y01594786D02*
X00859018D01*
X00811018D02*
X00820018D01*
X00811018D02*
Y01618986D01*
X00820018D01*
X01067082Y01748646D02*
Y01754488D01*
X01056668D02*
X01067082D01*
X01056668Y01748646D02*
Y01754488D01*
X01067082Y01730104D02*
Y01735946D01*
X01056668Y01730104D02*
X01067082D01*
X01056668D02*
Y01735946D01*
X01046168Y01730104D02*
Y01735946D01*
Y01730104D02*
X01056582D01*
Y01735946D01*
X01046168Y01748646D02*
Y01754488D01*
X01056582D01*
Y01748646D02*
Y01754488D01*
X01060725Y01682589D02*
X01066567D01*
Y01693002D01*
X01060725D02*
X01066567D01*
X01042183Y01682589D02*
X01048025D01*
X01042183D02*
Y01693002D01*
X01048025D01*
X01060725Y01713589D02*
X01066567D01*
Y01724003D01*
X01060725D02*
X01066567D01*
X01042183Y01713589D02*
X01048025D01*
X01042183D02*
Y01724003D01*
X01048025D01*
X01060725Y01672088D02*
X01066567D01*
Y01682502D01*
X01060725D02*
X01066567D01*
X01042183Y01672088D02*
X01048025D01*
X01042183D02*
Y01682502D01*
X01048025D01*
X00994668Y01734854D02*
Y01740696D01*
Y01734854D02*
X01005082D01*
Y01740696D01*
X00994668Y01753396D02*
Y01759238D01*
X01005082D01*
Y01753396D02*
Y01759238D01*
X01035832Y01748396D02*
Y01754238D01*
X01025418D02*
X01035832D01*
X01025418Y01748396D02*
Y01754238D01*
X01035832Y01729854D02*
Y01735696D01*
X01025418Y01729854D02*
X01035832D01*
X01025418D02*
Y01735696D01*
X01025832Y01748396D02*
Y01754238D01*
X01015418D02*
X01025832D01*
X01015418Y01748396D02*
Y01754238D01*
X01025832Y01729854D02*
Y01735696D01*
X01015418Y01729854D02*
X01025832D01*
X01015418D02*
Y01735696D01*
X01046082Y01748646D02*
Y01754488D01*
X01035668D02*
X01046082D01*
X01035668Y01748646D02*
Y01754488D01*
X01046082Y01730104D02*
Y01735946D01*
X01035668Y01730104D02*
X01046082D01*
X01035668D02*
Y01735946D01*
X01060725Y01692838D02*
X01066567D01*
Y01703253D01*
X01060725D02*
X01066567D01*
X01042183Y01692838D02*
X01048025D01*
X01042183D02*
Y01703253D01*
X01048025D01*
X01042183Y01713503D02*
X01048025D01*
X01042183Y01703089D02*
Y01713503D01*
Y01703089D02*
X01048025D01*
X01060725Y01713503D02*
X01066567D01*
Y01703089D02*
Y01713503D01*
X01060725Y01703089D02*
X01066567D01*
X00983832Y01753396D02*
Y01759238D01*
X00973418D02*
X00983832D01*
X00973418Y01753396D02*
Y01759238D01*
X00983832Y01734854D02*
Y01740696D01*
X00973418Y01734854D02*
X00983832D01*
X00973418D02*
Y01740696D01*
X00984098Y01734854D02*
Y01740696D01*
Y01734854D02*
X00994511D01*
Y01740696D01*
X00984098Y01753396D02*
Y01759238D01*
X00994511D01*
Y01753396D02*
Y01759238D01*
X00973332Y01753396D02*
Y01759238D01*
X00962918D02*
X00973332D01*
X00962918Y01753396D02*
Y01759238D01*
X00973332Y01734854D02*
Y01740696D01*
X00962918Y01734854D02*
X00973332D01*
X00962918D02*
Y01740696D01*
X00759576Y01685843D02*
X00765418D01*
X00759576Y01675429D02*
Y01685843D01*
Y01675429D02*
X00765418D01*
X00778118Y01685843D02*
X00783960D01*
Y01675429D02*
Y01685843D01*
X00778118Y01675429D02*
X00783960D01*
X00843225Y01681486D02*
Y01687328D01*
X00832811D02*
X00843225D01*
X00832811Y01681486D02*
Y01687328D01*
X00843225Y01662944D02*
Y01668786D01*
X00832811Y01662944D02*
X00843225D01*
X00832811D02*
Y01668786D01*
X00731225Y01658986D02*
Y01664828D01*
X00720811D02*
X00731225D01*
X00720811Y01658986D02*
Y01664828D01*
X00731225Y01640444D02*
Y01646286D01*
X00720811Y01640444D02*
X00731225D01*
X00720811D02*
Y01646286D01*
X00759576Y01664843D02*
X00765418D01*
X00759576Y01654429D02*
Y01664843D01*
Y01654429D02*
X00765418D01*
X00778118Y01664843D02*
X00783960D01*
Y01654429D02*
Y01664843D01*
X00778118Y01654429D02*
X00783960D01*
X00868725Y01646986D02*
Y01652828D01*
X00858311D02*
X00868725D01*
X00858311Y01646986D02*
Y01652828D01*
X00868725Y01628444D02*
Y01634286D01*
X00858311Y01628444D02*
X00868725D01*
X00858311D02*
Y01634286D01*
X00822311Y01662944D02*
Y01668786D01*
Y01662944D02*
X00832725D01*
Y01668786D01*
X00822311Y01681486D02*
Y01687328D01*
X00832725D01*
Y01681486D02*
Y01687328D01*
X00771576Y01706843D02*
X00777418D01*
X00771576Y01696429D02*
Y01706843D01*
Y01696429D02*
X00777418D01*
X00790118Y01706843D02*
X00795960D01*
Y01696429D02*
Y01706843D01*
X00790118Y01696429D02*
X00795960D01*
X00843282Y01673460D02*
X00849882D01*
X00843282D02*
Y01687295D01*
X00849882D01*
X00867154D02*
X00873753D01*
Y01673460D02*
Y01687295D01*
X00867154Y01673460D02*
X00873753D01*
X00731061Y01640444D02*
Y01646286D01*
Y01640444D02*
X00741475D01*
Y01646286D01*
X00731061Y01658986D02*
Y01664828D01*
X00741475D01*
Y01658986D02*
Y01664828D01*
X00708053Y01639636D02*
Y01651636D01*
Y01666386D01*
X00719483Y01639636D02*
Y01651636D01*
Y01666386D01*
X00778118Y01664429D02*
X00783960D01*
Y01674843D01*
X00778118D02*
X00783960D01*
X00759576Y01664429D02*
X00765418D01*
X00759576D02*
Y01674843D01*
X00765418D01*
X00778118Y01685429D02*
X00783960D01*
Y01695843D01*
X00778118D02*
X00783960D01*
X00759576Y01685429D02*
X00765418D01*
X00759576D02*
Y01695843D01*
X00765418D01*
G54D25*
X00322326Y00186814D02*
Y00171579D01*
X00329944D01*
X00332483Y00174118D01*
Y00176657D01*
X00329944Y00179196D01*
X00322326D01*
X00329944D01*
X00332483Y00181735D01*
Y00184275D01*
X00329944Y00186814D01*
X00322326D01*
X00340100Y00171579D02*
X00345179D01*
X00347718Y00174118D01*
Y00179196D01*
X00345179Y00181735D01*
X00340100D01*
X00337561Y00179196D01*
Y00174118D01*
X00340100Y00171579D01*
X00355335Y00184275D02*
Y00181735D01*
X00352796D01*
X00357874D01*
X00355335D01*
Y00174118D01*
X00357874Y00171579D01*
X00368031Y00184275D02*
Y00181735D01*
X00365492D01*
X00370570D01*
X00368031D01*
Y00174118D01*
X00370570Y00171579D01*
X00380727D02*
X00385806D01*
X00388345Y00174118D01*
Y00179196D01*
X00385806Y00181735D01*
X00380727D01*
X00378188Y00179196D01*
Y00174118D01*
X00380727Y00171579D01*
X00393423D02*
Y00181735D01*
X00395962D01*
X00398501Y00179196D01*
Y00171579D01*
Y00179196D01*
X00401040Y00181735D01*
X00403580Y00179196D01*
Y00171579D01*
X00431511Y00186814D02*
X00426432D01*
X00423893Y00184275D01*
Y00174118D01*
X00426432Y00171579D01*
X00431511D01*
X00434050Y00174118D01*
Y00184275D01*
X00431511Y00186814D01*
X00439128Y00181735D02*
X00444207Y00171579D01*
X00449285Y00181735D01*
X00461981Y00171579D02*
X00456903D01*
X00454363Y00174118D01*
Y00179196D01*
X00456903Y00181735D01*
X00461981D01*
X00464520Y00179196D01*
Y00176657D01*
X00454363D01*
X00469598Y00181735D02*
Y00171579D01*
Y00176657D01*
X00472137Y00179196D01*
X00474677Y00181735D01*
X00477216D01*
X00484833Y00171579D02*
X00489912D01*
X00487373D01*
Y00186814D01*
X00484833D01*
X00500069Y00181735D02*
X00505147D01*
X00507686Y00179196D01*
Y00171579D01*
X00500069D01*
X00497529Y00174118D01*
X00500069Y00176657D01*
X00507686D01*
X00512764Y00181735D02*
Y00174118D01*
X00515304Y00171579D01*
X00522921D01*
Y00169039D01*
X00520382Y00166500D01*
X00517843D01*
X00522921Y00171579D02*
Y00181735D01*
G54D26*
X01245602Y01124840D02*
Y01129919D01*
Y01127379D01*
X01237984D01*
Y01132458D02*
X01245602D01*
Y01136266D01*
X01244332Y01137536D01*
X01241793D01*
X01240523Y01136266D01*
Y01132458D01*
X01237984Y01143884D02*
X01245602D01*
X01241793Y01140075D01*
Y01145154D01*
X01239254Y01147693D02*
X01237984Y01148962D01*
Y01151502D01*
X01239254Y01152771D01*
X01244332D01*
X01245602Y01151502D01*
Y01148962D01*
X01244332Y01147693D01*
X01243063D01*
X01241793Y01148962D01*
Y01152771D01*
X01197691Y01230091D02*
Y01235169D01*
Y01232630D01*
X01190073D01*
Y01237709D02*
X01197691D01*
Y01241517D01*
X01196421Y01242787D01*
X01193882D01*
X01192612Y01241517D01*
Y01237709D01*
X01190073Y01249135D02*
X01197691D01*
X01193882Y01245326D01*
Y01250404D01*
X01196421Y01252944D02*
X01197691Y01254213D01*
Y01256752D01*
X01196421Y01258022D01*
X01195151D01*
X01193882Y01256752D01*
X01192612Y01258022D01*
X01191343D01*
X01190073Y01256752D01*
Y01254213D01*
X01191343Y01252944D01*
X01192612D01*
X01193882Y01254213D01*
X01195151Y01252944D01*
X01196421D01*
X01193882Y01254213D02*
Y01256752D01*
X01020959Y01881479D02*
X01028577D01*
Y01885288D01*
X01027307Y01886558D01*
X01024768D01*
X01023498Y01885288D01*
Y01881479D01*
Y01884019D02*
X01020959Y01886558D01*
Y01892906D02*
X01028577D01*
X01024768Y01889097D01*
Y01894175D01*
X01027307Y01896714D02*
X01028577Y01897984D01*
Y01900523D01*
X01027307Y01901793D01*
X01022229D01*
X01020959Y01900523D01*
Y01897984D01*
X01022229Y01896714D01*
X01027307D01*
X01022925Y01828827D02*
Y01836445D01*
X01019116D01*
X01017846Y01835175D01*
Y01832636D01*
X01019116Y01831366D01*
X01022925D01*
X01020386D02*
X01017846Y01828827D01*
X01015307Y01835175D02*
X01014038Y01836445D01*
X01011498D01*
X01010229Y01835175D01*
Y01833906D01*
X01011498Y01832636D01*
X01012768D01*
X01011498D01*
X01010229Y01831366D01*
Y01830097D01*
X01011498Y01828827D01*
X01014038D01*
X01015307Y01830097D01*
X01007690D02*
X01006420Y01828827D01*
X01003881D01*
X01002611Y01830097D01*
Y01835175D01*
X01003881Y01836445D01*
X01006420D01*
X01007690Y01835175D01*
Y01833906D01*
X01006420Y01832636D01*
X01002611D01*
X01569535Y01639531D02*
Y01647148D01*
X01566996Y01644609D01*
X01564457Y01647148D01*
Y01639531D01*
X01561918D02*
Y01647148D01*
X01558109D01*
X01556839Y01645879D01*
Y01643340D01*
X01558109Y01642070D01*
X01561918D01*
X01554300Y01645879D02*
X01553030Y01647148D01*
X01550491D01*
X01549222Y01645879D01*
Y01644609D01*
X01550491Y01643340D01*
X01551761D01*
X01550491D01*
X01549222Y01642070D01*
Y01640801D01*
X01550491Y01639531D01*
X01553030D01*
X01554300Y01640801D01*
X02018569Y02265264D02*
Y02272670D01*
X02020051Y02274151D01*
X02023013D01*
X02024494Y02272670D01*
Y02265264D01*
X02033381Y02274151D02*
X02027456D01*
X02033381Y02268226D01*
Y02266745D01*
X02031900Y02265264D01*
X02028938D01*
X02027456Y02266745D01*
X02042268Y02274151D02*
X02036344D01*
X02042268Y02268226D01*
Y02266745D01*
X02040787Y02265264D01*
X02037825D01*
X02036344Y02266745D01*
X02160051Y02265264D02*
Y02272670D01*
X02161532Y02274151D01*
X02164494D01*
X02165975Y02272670D01*
Y02265264D01*
X02174862Y02274151D02*
X02168938D01*
X02174862Y02268226D01*
Y02266745D01*
X02173381Y02265264D01*
X02170419D01*
X02168938Y02266745D01*
X02183750Y02265264D02*
X02177825D01*
Y02269707D01*
X02180787Y02268226D01*
X02182268D01*
X02183750Y02269707D01*
Y02272670D01*
X02182268Y02274151D01*
X02179306D01*
X02177825Y02272670D01*
X02663016Y02478531D02*
Y02487418D01*
X02660054Y02484456D01*
X02657092Y02487418D01*
Y02478531D01*
X02654129D02*
Y02487418D01*
X02649686D01*
X02648205Y02485937D01*
Y02482974D01*
X02649686Y02481493D01*
X02654129D01*
X02639317Y02487418D02*
X02642280Y02485937D01*
X02645242Y02482974D01*
Y02480012D01*
X02643761Y02478531D01*
X02640799D01*
X02639317Y02480012D01*
Y02481493D01*
X02640799Y02482974D01*
X02645242D01*
X02661535Y02878531D02*
Y02887418D01*
X02658573Y02884456D01*
X02655610Y02887418D01*
Y02878531D01*
X02652648D02*
Y02887418D01*
X02648205D01*
X02646723Y02885937D01*
Y02882975D01*
X02648205Y02881493D01*
X02652648D01*
X02643761Y02887418D02*
X02637836D01*
Y02885937D01*
X02643761Y02880012D01*
Y02878531D01*
X02671535Y00983531D02*
Y00992418D01*
X02668573Y00989456D01*
X02665610Y00992418D01*
Y00983531D01*
X02662648D02*
Y00992418D01*
X02658205D01*
X02656723Y00990937D01*
Y00987974D01*
X02658205Y00986493D01*
X02662648D01*
X02653761Y00990937D02*
X02652280Y00992418D01*
X02649317D01*
X02647836Y00990937D01*
Y00989456D01*
X02649317Y00987974D01*
X02647836Y00986493D01*
Y00985012D01*
X02649317Y00983531D01*
X02652280D01*
X02653761Y00985012D01*
Y00986493D01*
X02652280Y00987974D01*
X02653761Y00989456D01*
Y00990937D01*
X02652280Y00987974D02*
X02649317D01*
X00781583Y02806296D02*
Y02815183D01*
X00778621Y02812221D01*
X00775659Y02815183D01*
Y02806296D01*
X00772696D02*
Y02815183D01*
X00768253D01*
X00766771Y02813702D01*
Y02810740D01*
X00768253Y02809258D01*
X00772696D01*
X00763809Y02807777D02*
X00762328Y02806296D01*
X00759366D01*
X00757884Y02807777D01*
Y02813702D01*
X00759366Y02815183D01*
X00762328D01*
X00763809Y02813702D01*
Y02812221D01*
X00762328Y02810740D01*
X00757884D01*
X01666321Y02863692D02*
Y02872579D01*
X01663358Y02869617D01*
X01660396Y02872579D01*
Y02863692D01*
X01657434D02*
Y02872579D01*
X01652990D01*
X01651509Y02871098D01*
Y02868136D01*
X01652990Y02866655D01*
X01657434D01*
X01648546Y02863692D02*
X01645584D01*
X01647065D01*
Y02872579D01*
X01648546Y02871098D01*
X01641140D02*
X01639659Y02872579D01*
X01636697D01*
X01635216Y02871098D01*
Y02865173D01*
X01636697Y02863692D01*
X01639659D01*
X01641140Y02865173D01*
Y02871098D01*
X00761535Y02033531D02*
Y02042418D01*
X00758573Y02039456D01*
X00755610Y02042418D01*
Y02033531D01*
X00752648D02*
Y02042418D01*
X00748204D01*
X00746723Y02040937D01*
Y02037974D01*
X00748204Y02036493D01*
X00752648D01*
X00737836Y02042418D02*
X00743761D01*
Y02037974D01*
X00740798Y02039456D01*
X00739317D01*
X00737836Y02037974D01*
Y02035012D01*
X00739317Y02033531D01*
X00742280D01*
X00743761Y02035012D01*
X02172322Y02678531D02*
Y02687418D01*
X02169360Y02684456D01*
X02166397Y02687418D01*
Y02678531D01*
X02163435D02*
Y02687418D01*
X02158991D01*
X02157510Y02685937D01*
Y02682975D01*
X02158991Y02681493D01*
X02163435D01*
X02154548Y02678531D02*
X02151586D01*
X02153067D01*
Y02687418D01*
X02154548Y02685937D01*
X02141217Y02678531D02*
X02147142D01*
X02141217Y02684456D01*
Y02685937D01*
X02142698Y02687418D01*
X02145661D01*
X02147142Y02685937D01*
X01454909Y02477000D02*
Y02485888D01*
X01451946Y02482925D01*
X01448984Y02485888D01*
Y02477000D01*
X01446021D02*
Y02485888D01*
X01441578D01*
X01440097Y02484406D01*
Y02481444D01*
X01441578Y02479963D01*
X01446021D01*
X01437134Y02477000D02*
X01434172D01*
X01435653D01*
Y02485888D01*
X01437134Y02484406D01*
X01429728D02*
X01428247Y02485888D01*
X01425285D01*
X01423804Y02484406D01*
Y02482925D01*
X01425285Y02481444D01*
X01426766D01*
X01425285D01*
X01423804Y02479963D01*
Y02478482D01*
X01425285Y02477000D01*
X01428247D01*
X01429728Y02478482D01*
X01926875Y02286417D02*
Y02295304D01*
X01923912Y02292341D01*
X01920950Y02295304D01*
Y02286417D01*
X01917987D02*
Y02295304D01*
X01913544D01*
X01912063Y02293823D01*
Y02290860D01*
X01913544Y02289379D01*
X01917987D01*
X01909100Y02286417D02*
X01906138D01*
X01907619D01*
Y02295304D01*
X01909100Y02293823D01*
X01901694Y02286417D02*
X01898732D01*
X01900213D01*
Y02295304D01*
X01901694Y02293823D01*
X01096577Y01126793D02*
X01088959D01*
Y01122984D01*
X01090229Y01121714D01*
X01092768D01*
X01094038Y01122984D01*
Y01126793D01*
Y01124253D02*
X01096577Y01121714D01*
Y01115366D02*
X01088959D01*
X01092768Y01119175D01*
Y01114097D01*
X01088959Y01106479D02*
X01090229Y01109018D01*
X01092768Y01111558D01*
X01095307D01*
X01096577Y01110288D01*
Y01107749D01*
X01095307Y01106479D01*
X01094038D01*
X01092768Y01107749D01*
Y01111558D01*
X01262229Y01264714D02*
X01260959Y01265984D01*
Y01268523D01*
X01262229Y01269793D01*
X01267307D01*
X01268577Y01268523D01*
Y01265984D01*
X01267307Y01264714D01*
X01260959Y01262175D02*
Y01257097D01*
X01262229D01*
X01267307Y01262175D01*
X01268577D01*
X01262229Y01254558D02*
X01260959Y01253288D01*
Y01250749D01*
X01262229Y01249479D01*
X01263498D01*
X01264768Y01250749D01*
Y01252018D01*
Y01250749D01*
X01266038Y01249479D01*
X01267307D01*
X01268577Y01250749D01*
Y01253288D01*
X01267307Y01254558D01*
X01324925Y01205666D02*
Y01213283D01*
X01321116D01*
X01319846Y01212014D01*
Y01209475D01*
X01321116Y01208205D01*
X01324925D01*
X01322386D02*
X01319846Y01205666D01*
X01312229Y01213283D02*
X01317307D01*
Y01209475D01*
X01314768Y01210744D01*
X01313498D01*
X01312229Y01209475D01*
Y01206936D01*
X01313498Y01205666D01*
X01316037D01*
X01317307Y01206936D01*
X01304611Y01213283D02*
X01309690D01*
Y01209475D01*
X01307150Y01210744D01*
X01305881D01*
X01304611Y01209475D01*
Y01206936D01*
X01305881Y01205666D01*
X01308420D01*
X01309690Y01206936D01*
X01324925Y01195327D02*
Y01202945D01*
X01321116D01*
X01319846Y01201675D01*
Y01199136D01*
X01321116Y01197866D01*
X01324925D01*
X01322386D02*
X01319846Y01195327D01*
X01312229Y01202945D02*
X01317307D01*
Y01199136D01*
X01314768Y01200406D01*
X01313498D01*
X01312229Y01199136D01*
Y01196597D01*
X01313498Y01195327D01*
X01316037D01*
X01317307Y01196597D01*
X01305881Y01195327D02*
Y01202945D01*
X01309690Y01199136D01*
X01304611D01*
X01301577Y01269793D02*
X01293959D01*
Y01265984D01*
X01295229Y01264714D01*
X01297768D01*
X01299038Y01265984D01*
Y01269793D01*
Y01267253D02*
X01301577Y01264714D01*
X01293959Y01257097D02*
Y01262175D01*
X01297768D01*
X01296498Y01259636D01*
Y01258366D01*
X01297768Y01257097D01*
X01300307D01*
X01301577Y01258366D01*
Y01260906D01*
X01300307Y01262175D01*
X01295229Y01254558D02*
X01293959Y01253288D01*
Y01250749D01*
X01295229Y01249479D01*
X01296498D01*
X01297768Y01250749D01*
Y01252018D01*
Y01250749D01*
X01299038Y01249479D01*
X01300307D01*
X01301577Y01250749D01*
Y01253288D01*
X01300307Y01254558D01*
X01290577Y01269793D02*
X01282959D01*
Y01265984D01*
X01284229Y01264714D01*
X01286768D01*
X01288038Y01265984D01*
Y01269793D01*
Y01267253D02*
X01290577Y01264714D01*
X01282959Y01257097D02*
Y01262175D01*
X01286768D01*
X01285498Y01259636D01*
Y01258366D01*
X01286768Y01257097D01*
X01289307D01*
X01290577Y01258366D01*
Y01260906D01*
X01289307Y01262175D01*
X01290577Y01249479D02*
Y01254558D01*
X01285498Y01249479D01*
X01284229D01*
X01282959Y01250749D01*
Y01253288D01*
X01284229Y01254558D01*
X01986676Y01632988D02*
Y01626641D01*
X01985407Y01625371D01*
X01982867D01*
X01981598Y01626641D01*
Y01632988D01*
X01979059Y01625371D02*
X01976519D01*
X01977789D01*
Y01632988D01*
X01979059Y01631719D01*
X01967632Y01625371D02*
X01972711D01*
X01967632Y01630449D01*
Y01631719D01*
X01968902Y01632988D01*
X01971441D01*
X01972711Y01631719D01*
X02129176Y01632988D02*
Y01626641D01*
X02127907Y01625371D01*
X02125367D01*
X02124098Y01626641D01*
Y01632988D01*
X02121559Y01625371D02*
X02119019D01*
X02120289D01*
Y01632988D01*
X02121559Y01631719D01*
X02115211D02*
X02113941Y01632988D01*
X02111402D01*
X02110132Y01631719D01*
Y01626641D01*
X02111402Y01625371D01*
X02113941D01*
X02115211Y01626641D01*
Y01631719D01*
X01143116Y01228445D02*
Y01222097D01*
X01141846Y01220827D01*
X01139307D01*
X01138038Y01222097D01*
Y01228445D01*
X01135498D02*
X01130420D01*
Y01227175D01*
X01135498Y01222097D01*
Y01220827D01*
X01212116Y01227445D02*
Y01221097D01*
X01210846Y01219827D01*
X01208307D01*
X01207038Y01221097D01*
Y01227445D01*
X01204498Y01221097D02*
X01203229Y01219827D01*
X01200690D01*
X01199420Y01221097D01*
Y01226175D01*
X01200690Y01227445D01*
X01203229D01*
X01204498Y01226175D01*
Y01224906D01*
X01203229Y01223636D01*
X01199420D01*
X01041387Y01127484D02*
X01049005D01*
Y01131292D01*
X01047735Y01132562D01*
X01045196D01*
X01043926Y01131292D01*
Y01127484D01*
Y01130023D02*
X01041387Y01132562D01*
X01047735Y01135101D02*
X01049005Y01136371D01*
Y01138910D01*
X01047735Y01140180D01*
X01046466D01*
X01045196Y01138910D01*
Y01137641D01*
Y01138910D01*
X01043926Y01140180D01*
X01042657D01*
X01041387Y01138910D01*
Y01136371D01*
X01042657Y01135101D01*
X00975959Y01881288D02*
X00983577D01*
Y01885097D01*
X00982307Y01886366D01*
X00979768D01*
X00978498Y01885097D01*
Y01881288D01*
Y01883827D02*
X00975959Y01886366D01*
Y01893984D02*
Y01888906D01*
X00981038Y01893984D01*
X00982307D01*
X00983577Y01892714D01*
Y01890175D01*
X00982307Y01888906D01*
X01257577Y01269523D02*
X01249959D01*
Y01265714D01*
X01251229Y01264445D01*
X01253768D01*
X01255038Y01265714D01*
Y01269523D01*
Y01266984D02*
X01257577Y01264445D01*
X01249959Y01256827D02*
Y01261906D01*
X01253768D01*
X01252498Y01259366D01*
Y01258097D01*
X01253768Y01256827D01*
X01256307D01*
X01257577Y01258097D01*
Y01260636D01*
X01256307Y01261906D01*
X01257577Y01254288D02*
Y01251749D01*
Y01253018D01*
X01249959D01*
X01251229Y01254288D01*
X01324925Y01172921D02*
Y01180538D01*
X01321116D01*
X01319846Y01179269D01*
Y01176729D01*
X01321116Y01175460D01*
X01324925D01*
X01322386D02*
X01319846Y01172921D01*
X01312229Y01180538D02*
X01317307D01*
Y01176729D01*
X01314768Y01177999D01*
X01313498D01*
X01312229Y01176729D01*
Y01174190D01*
X01313498Y01172921D01*
X01316037D01*
X01317307Y01174190D01*
X01309690Y01179269D02*
X01308420Y01180538D01*
X01305881D01*
X01304611Y01179269D01*
Y01174190D01*
X01305881Y01172921D01*
X01308420D01*
X01309690Y01174190D01*
Y01179269D01*
X01071925Y01164046D02*
Y01171663D01*
X01068116D01*
X01066846Y01170394D01*
Y01167855D01*
X01068116Y01166585D01*
X01071925D01*
X01069386D02*
X01066846Y01164046D01*
X01060498D02*
Y01171663D01*
X01064307Y01167855D01*
X01059229D01*
X01056690Y01165315D02*
X01055420Y01164046D01*
X01052881D01*
X01051611Y01165315D01*
Y01170394D01*
X01052881Y01171663D01*
X01055420D01*
X01056690Y01170394D01*
Y01169124D01*
X01055420Y01167855D01*
X01051611D01*
X01071925Y01174326D02*
Y01181944D01*
X01068116D01*
X01066846Y01180674D01*
Y01178135D01*
X01068116Y01176866D01*
X01071925D01*
X01069386D02*
X01066846Y01174326D01*
X01060498D02*
Y01181944D01*
X01064307Y01178135D01*
X01059229D01*
X01056690Y01180674D02*
X01055420Y01181944D01*
X01052881D01*
X01051611Y01180674D01*
Y01179405D01*
X01052881Y01178135D01*
X01051611Y01176866D01*
Y01175596D01*
X01052881Y01174326D01*
X01055420D01*
X01056690Y01175596D01*
Y01176866D01*
X01055420Y01178135D01*
X01056690Y01179405D01*
Y01180674D01*
X01055420Y01178135D02*
X01052881D01*
X01084577Y01136793D02*
X01076959D01*
Y01132984D01*
X01078229Y01131714D01*
X01080768D01*
X01082038Y01132984D01*
Y01136793D01*
Y01134253D02*
X01084577Y01131714D01*
Y01125366D02*
X01076959D01*
X01080768Y01129175D01*
Y01124097D01*
X01076959Y01121558D02*
Y01116479D01*
X01078229D01*
X01083307Y01121558D01*
X01084577D01*
X01127827Y01126793D02*
X01120209D01*
Y01122984D01*
X01121479Y01121714D01*
X01124018D01*
X01125287Y01122984D01*
Y01126793D01*
Y01124253D02*
X01127827Y01121714D01*
Y01115366D02*
X01120209D01*
X01124018Y01119175D01*
Y01114097D01*
X01127827Y01107749D02*
X01120209D01*
X01124018Y01111558D01*
Y01106479D01*
X01073925Y01194827D02*
Y01202445D01*
X01070116D01*
X01068846Y01201175D01*
Y01198636D01*
X01070116Y01197366D01*
X01073925D01*
X01071385D02*
X01068846Y01194827D01*
X01062498D02*
Y01202445D01*
X01066307Y01198636D01*
X01061229D01*
X01053611Y01194827D02*
X01058690D01*
X01053611Y01199906D01*
Y01201175D01*
X01054881Y01202445D01*
X01057420D01*
X01058690Y01201175D01*
X01350925Y01577827D02*
Y01585445D01*
X01347116D01*
X01345846Y01584175D01*
Y01581636D01*
X01347116Y01580366D01*
X01350925D01*
X01348385D02*
X01345846Y01577827D01*
X01343307Y01585445D02*
X01338229D01*
Y01584175D01*
X01343307Y01579097D01*
Y01577827D01*
X01335690Y01584175D02*
X01334420Y01585445D01*
X01331881D01*
X01330611Y01584175D01*
Y01579097D01*
X01331881Y01577827D01*
X01334420D01*
X01335690Y01579097D01*
Y01584175D01*
X01457925Y01562827D02*
Y01570445D01*
X01454116D01*
X01452846Y01569175D01*
Y01566636D01*
X01454116Y01565366D01*
X01457925D01*
X01455385D02*
X01452846Y01562827D01*
X01445229Y01570445D02*
X01447768Y01569175D01*
X01450307Y01566636D01*
Y01564097D01*
X01449038Y01562827D01*
X01446498D01*
X01445229Y01564097D01*
Y01565366D01*
X01446498Y01566636D01*
X01450307D01*
X01442690Y01564097D02*
X01441420Y01562827D01*
X01438881D01*
X01437611Y01564097D01*
Y01569175D01*
X01438881Y01570445D01*
X01441420D01*
X01442690Y01569175D01*
Y01567906D01*
X01441420Y01566636D01*
X01437611D01*
X01432577Y01668793D02*
X01424959D01*
Y01664984D01*
X01426229Y01663714D01*
X01428768D01*
X01430038Y01664984D01*
Y01668793D01*
Y01666254D02*
X01432577Y01663714D01*
X01424959Y01656097D02*
X01426229Y01658636D01*
X01428768Y01661175D01*
X01431307D01*
X01432577Y01659906D01*
Y01657366D01*
X01431307Y01656097D01*
X01430038D01*
X01428768Y01657366D01*
Y01661175D01*
X01426229Y01653558D02*
X01424959Y01652288D01*
Y01649749D01*
X01426229Y01648479D01*
X01427498D01*
X01428768Y01649749D01*
X01430038Y01648479D01*
X01431307D01*
X01432577Y01649749D01*
Y01652288D01*
X01431307Y01653558D01*
X01430038D01*
X01428768Y01652288D01*
X01427498Y01653558D01*
X01426229D01*
X01428768Y01652288D02*
Y01649749D01*
X01417577Y01576793D02*
X01409959D01*
Y01572984D01*
X01411229Y01571714D01*
X01413768D01*
X01415038Y01572984D01*
Y01576793D01*
Y01574254D02*
X01417577Y01571714D01*
X01409959Y01564097D02*
X01411229Y01566636D01*
X01413768Y01569175D01*
X01416307D01*
X01417577Y01567906D01*
Y01565366D01*
X01416307Y01564097D01*
X01415038D01*
X01413768Y01565366D01*
Y01569175D01*
X01409959Y01556479D02*
X01411229Y01559018D01*
X01413768Y01561558D01*
X01416307D01*
X01417577Y01560288D01*
Y01557749D01*
X01416307Y01556479D01*
X01415038D01*
X01413768Y01557749D01*
Y01561558D01*
X01325577Y01728793D02*
X01317959D01*
Y01724984D01*
X01319229Y01723714D01*
X01321768D01*
X01323038Y01724984D01*
Y01728793D01*
Y01726254D02*
X01325577Y01723714D01*
X01317959Y01716097D02*
X01319229Y01718636D01*
X01321768Y01721175D01*
X01324307D01*
X01325577Y01719906D01*
Y01717366D01*
X01324307Y01716097D01*
X01323038D01*
X01321768Y01717366D01*
Y01721175D01*
X01317959Y01713558D02*
Y01708479D01*
X01319229D01*
X01324307Y01713558D01*
X01325577D01*
X01931925Y01878827D02*
Y01886445D01*
X01929386Y01883906D01*
X01926846Y01886445D01*
Y01878827D01*
X01924307D02*
Y01886445D01*
X01920498D01*
X01919229Y01885175D01*
Y01882636D01*
X01920498Y01881366D01*
X01924307D01*
X01912881Y01878827D02*
Y01886445D01*
X01916690Y01882636D01*
X01911611D01*
X00689925Y00894827D02*
Y00902445D01*
X00687385Y00899906D01*
X00684846Y00902445D01*
Y00894827D01*
X00682307D02*
Y00902445D01*
X00678498D01*
X00677229Y00901175D01*
Y00898636D01*
X00678498Y00897366D01*
X00682307D01*
X00669611Y00894827D02*
X00674690D01*
X00669611Y00899906D01*
Y00901175D01*
X00670881Y00902445D01*
X00673420D01*
X00674690Y00901175D01*
X00995307Y01889636D02*
X00996577Y01888366D01*
Y01885827D01*
X00995307Y01884558D01*
X00990229D01*
X00988959Y01885827D01*
Y01888366D01*
X00990229Y01889636D01*
X00988959Y01892175D02*
Y01894714D01*
Y01893445D01*
X00996577D01*
X00995307Y01892175D01*
X01238229Y01269714D02*
X01236959Y01270984D01*
Y01273523D01*
X01238229Y01274793D01*
X01243307D01*
X01244577Y01273523D01*
Y01270984D01*
X01243307Y01269714D01*
X01236959Y01262097D02*
X01238229Y01264636D01*
X01240768Y01267175D01*
X01243307D01*
X01244577Y01265906D01*
Y01263366D01*
X01243307Y01262097D01*
X01242038D01*
X01240768Y01263366D01*
Y01267175D01*
X01238229Y01259558D02*
X01236959Y01258288D01*
Y01255749D01*
X01238229Y01254479D01*
X01243307D01*
X01244577Y01255749D01*
Y01258288D01*
X01243307Y01259558D01*
X01238229D01*
X01227229Y01269714D02*
X01225959Y01270984D01*
Y01273523D01*
X01227229Y01274793D01*
X01232307D01*
X01233577Y01273523D01*
Y01270984D01*
X01232307Y01269714D01*
X01225959Y01262097D02*
Y01267175D01*
X01229768D01*
X01228498Y01264636D01*
Y01263366D01*
X01229768Y01262097D01*
X01232307D01*
X01233577Y01263366D01*
Y01265906D01*
X01232307Y01267175D01*
Y01259558D02*
X01233577Y01258288D01*
Y01255749D01*
X01232307Y01254479D01*
X01227229D01*
X01225959Y01255749D01*
Y01258288D01*
X01227229Y01259558D01*
X01228498D01*
X01229768Y01258288D01*
Y01254479D01*
X01145229Y01117714D02*
X01143959Y01118984D01*
Y01121523D01*
X01145229Y01122793D01*
X01150307D01*
X01151577Y01121523D01*
Y01118984D01*
X01150307Y01117714D01*
X01151577Y01111366D02*
X01143959D01*
X01147768Y01115175D01*
Y01110097D01*
X01151577Y01102479D02*
Y01107558D01*
X01146498Y01102479D01*
X01145229D01*
X01143959Y01103749D01*
Y01106288D01*
X01145229Y01107558D01*
X01134229Y01117445D02*
X01132959Y01118714D01*
Y01121254D01*
X01134229Y01122523D01*
X01139307D01*
X01140577Y01121254D01*
Y01118714D01*
X01139307Y01117445D01*
X01140577Y01111097D02*
X01132959D01*
X01136768Y01114906D01*
Y01109827D01*
X01140577Y01107288D02*
Y01104749D01*
Y01106019D01*
X01132959D01*
X01134229Y01107288D01*
X01635284Y01578555D02*
X01634015Y01577285D01*
X01631475D01*
X01630206Y01578555D01*
Y01583634D01*
X01631475Y01584903D01*
X01634015D01*
X01635284Y01583634D01*
X01637823Y01584903D02*
X01640363D01*
X01639093D01*
Y01577285D01*
X01637823Y01578555D01*
X01644171Y01584903D02*
X01646710D01*
X01645441D01*
Y01577285D01*
X01644171Y01578555D01*
X01655598Y01577285D02*
X01650519D01*
Y01581094D01*
X01653058Y01579825D01*
X01654328D01*
X01655598Y01581094D01*
Y01583634D01*
X01654328Y01584903D01*
X01651789D01*
X01650519Y01583634D01*
X01319846Y01191175D02*
X01321116Y01192445D01*
X01323655D01*
X01324925Y01191175D01*
Y01186097D01*
X01323655Y01184827D01*
X01321116D01*
X01319846Y01186097D01*
X01317307Y01192445D02*
X01312229D01*
Y01191175D01*
X01317307Y01186097D01*
Y01184827D01*
X01309690Y01186097D02*
X01308420Y01184827D01*
X01305881D01*
X01304611Y01186097D01*
Y01191175D01*
X01305881Y01192445D01*
X01308420D01*
X01309690Y01191175D01*
Y01189906D01*
X01308420Y01188636D01*
X01304611D01*
X01273229Y01264714D02*
X01271959Y01265984D01*
Y01268523D01*
X01273229Y01269793D01*
X01278307D01*
X01279577Y01268523D01*
Y01265984D01*
X01278307Y01264714D01*
X01271959Y01262175D02*
Y01257097D01*
X01273229D01*
X01278307Y01262175D01*
X01279577D01*
X01271959Y01254558D02*
Y01249479D01*
X01273229D01*
X01278307Y01254558D01*
X01279577D01*
X01319846Y01167269D02*
X01321116Y01168538D01*
X01323655D01*
X01324925Y01167269D01*
Y01162190D01*
X01323655Y01160921D01*
X01321116D01*
X01319846Y01162190D01*
X01317307Y01168538D02*
X01312229D01*
Y01167269D01*
X01317307Y01162190D01*
Y01160921D01*
X01304611D02*
X01309690D01*
X01304611Y01165999D01*
Y01167269D01*
X01305881Y01168538D01*
X01308420D01*
X01309690Y01167269D01*
X01446229Y01652888D02*
X01444959Y01654158D01*
Y01656697D01*
X01446229Y01657967D01*
X01451307D01*
X01452577Y01656697D01*
Y01654158D01*
X01451307Y01652888D01*
X01452577Y01650349D02*
Y01647810D01*
Y01649080D01*
X01444959D01*
X01446229Y01650349D01*
Y01644001D02*
X01444959Y01642732D01*
Y01640192D01*
X01446229Y01638923D01*
X01451307D01*
X01452577Y01640192D01*
Y01642732D01*
X01451307Y01644001D01*
X01446229D01*
X01444959Y01636384D02*
Y01631305D01*
X01446229D01*
X01451307Y01636384D01*
X01452577D01*
X01410229Y01667888D02*
X01408959Y01669158D01*
Y01671697D01*
X01410229Y01672967D01*
X01415307D01*
X01416577Y01671697D01*
Y01669158D01*
X01415307Y01667888D01*
X01416577Y01665349D02*
Y01662810D01*
Y01664080D01*
X01408959D01*
X01410229Y01665349D01*
Y01659001D02*
X01408959Y01657732D01*
Y01655192D01*
X01410229Y01653923D01*
X01415307D01*
X01416577Y01655192D01*
Y01657732D01*
X01415307Y01659001D01*
X01410229D01*
X01408959Y01646305D02*
X01410229Y01648844D01*
X01412768Y01651384D01*
X01415307D01*
X01416577Y01650114D01*
Y01647575D01*
X01415307Y01646305D01*
X01414037D01*
X01412768Y01647575D01*
Y01651384D01*
X01010307Y01884558D02*
X01011577Y01883288D01*
Y01880749D01*
X01010307Y01879479D01*
X01005229D01*
X01003959Y01880749D01*
Y01883288D01*
X01005229Y01884558D01*
X01010307Y01887097D02*
X01011577Y01888366D01*
Y01890906D01*
X01010307Y01892175D01*
X01009038D01*
X01007768Y01890906D01*
Y01889636D01*
Y01890906D01*
X01006498Y01892175D01*
X01005229D01*
X01003959Y01890906D01*
Y01888366D01*
X01005229Y01887097D01*
X01010307Y01894714D02*
X01011577Y01895984D01*
Y01898523D01*
X01010307Y01899793D01*
X01009038D01*
X01007768Y01898523D01*
X01006498Y01899793D01*
X01005229D01*
X01003959Y01898523D01*
Y01895984D01*
X01005229Y01894714D01*
X01006498D01*
X01007768Y01895984D01*
X01009038Y01894714D01*
X01010307D01*
X01007768Y01895984D02*
Y01898523D01*
X00973452Y01812714D02*
X00972182Y01813984D01*
Y01816523D01*
X00973452Y01817793D01*
X00978530D01*
X00979800Y01816523D01*
Y01813984D01*
X00978530Y01812714D01*
X00973452Y01810175D02*
X00972182Y01808906D01*
Y01806366D01*
X00973452Y01805097D01*
X00974721D01*
X00975991Y01806366D01*
Y01807636D01*
Y01806366D01*
X00977260Y01805097D01*
X00978530D01*
X00979800Y01806366D01*
Y01808906D01*
X00978530Y01810175D01*
X00972182Y01802558D02*
Y01797479D01*
X00973452D01*
X00978530Y01802558D01*
X00979800D01*
X01066846Y01191175D02*
X01068116Y01192445D01*
X01070655D01*
X01071925Y01191175D01*
Y01186097D01*
X01070655Y01184827D01*
X01068116D01*
X01066846Y01186097D01*
X01059229Y01192445D02*
X01064307D01*
Y01188636D01*
X01061768Y01189906D01*
X01060498D01*
X01059229Y01188636D01*
Y01186097D01*
X01060498Y01184827D01*
X01063037D01*
X01064307Y01186097D01*
X01051611Y01192445D02*
X01056690D01*
Y01188636D01*
X01054150Y01189906D01*
X01052881D01*
X01051611Y01188636D01*
Y01186097D01*
X01052881Y01184827D01*
X01055420D01*
X01056690Y01186097D01*
X01100729Y01121714D02*
X01099459Y01122984D01*
Y01125523D01*
X01100729Y01126793D01*
X01105807D01*
X01107077Y01125523D01*
Y01122984D01*
X01105807Y01121714D01*
X01099459Y01114097D02*
Y01119175D01*
X01103268D01*
X01101998Y01116636D01*
Y01115366D01*
X01103268Y01114097D01*
X01105807D01*
X01107077Y01115366D01*
Y01117906D01*
X01105807Y01119175D01*
X01107077Y01107749D02*
X01099459D01*
X01103268Y01111558D01*
Y01106479D01*
X01111162Y01121714D02*
X01109893Y01122984D01*
Y01125523D01*
X01111162Y01126793D01*
X01116241D01*
X01117510Y01125523D01*
Y01122984D01*
X01116241Y01121714D01*
X01117510Y01115366D02*
X01109893D01*
X01113702Y01119175D01*
Y01114097D01*
X01109893Y01111558D02*
Y01106479D01*
X01111162D01*
X01116241Y01111558D01*
X01117510D01*
X01066846Y01211782D02*
X01068116Y01213052D01*
X01070655D01*
X01071925Y01211782D01*
Y01206704D01*
X01070655Y01205434D01*
X01068116D01*
X01066846Y01206704D01*
X01060498Y01205434D02*
Y01213052D01*
X01064307Y01209243D01*
X01059229D01*
X01051611Y01213052D02*
X01054150Y01211782D01*
X01056690Y01209243D01*
Y01206704D01*
X01055420Y01205434D01*
X01052881D01*
X01051611Y01206704D01*
Y01207973D01*
X01052881Y01209243D01*
X01056690D01*
G54D260*
X00706767Y01221606D02*
D03*
X00713768Y01454606D02*
D03*
X00706768Y01010606D02*
D03*
X00713767Y01665604D02*
D03*
M02*
