G04*
G04 #@! TF.GenerationSoftware,Altium Limited,Altium Designer,24.3.1 (35)*
G04*
G04 Layer_Color=16711935*
%FSAX44Y44*%
%MOMM*%
G71*
G04*
G04 #@! TF.SameCoordinates,E5C3A734-9551-4337-A472-1AACCBF89162*
G04*
G04*
G04 #@! TF.FilePolarity,Negative*
G04*
G01*
G75*
%ADD25C,0.2032*%
G04:AMPARAMS|DCode=81|XSize=0.5mm|YSize=0.6mm|CornerRadius=0.05mm|HoleSize=0mm|Usage=FLASHONLY|Rotation=180.000|XOffset=0mm|YOffset=0mm|HoleType=Round|Shape=RoundedRectangle|*
%AMROUNDEDRECTD81*
21,1,0.5000,0.5000,0,0,180.0*
21,1,0.4000,0.6000,0,0,180.0*
1,1,0.1000,-0.2000,0.2500*
1,1,0.1000,0.2000,0.2500*
1,1,0.1000,0.2000,-0.2500*
1,1,0.1000,-0.2000,-0.2500*
%
%ADD81ROUNDEDRECTD81*%
%ADD120R,1.1000X1.0500*%
%ADD127R,1.0500X1.1000*%
%ADD132R,1.4000X1.9500*%
%ADD133R,0.7000X0.9000*%
%ADD140C,2.0000*%
%ADD144R,0.9000X0.7000*%
G04:AMPARAMS|DCode=170|XSize=0.5mm|YSize=0.95mm|CornerRadius=0.1mm|HoleSize=0mm|Usage=FLASHONLY|Rotation=90.000|XOffset=0mm|YOffset=0mm|HoleType=Round|Shape=RoundedRectangle|*
%AMROUNDEDRECTD170*
21,1,0.5000,0.7500,0,0,90.0*
21,1,0.3000,0.9500,0,0,90.0*
1,1,0.2000,0.3750,0.1500*
1,1,0.2000,0.3750,-0.1500*
1,1,0.2000,-0.3750,-0.1500*
1,1,0.2000,-0.3750,0.1500*
%
%ADD170ROUNDEDRECTD170*%
%ADD172C,2.7000*%
G04:AMPARAMS|DCode=173|XSize=2.7mm|YSize=2.7mm|CornerRadius=0.054mm|HoleSize=0mm|Usage=FLASHONLY|Rotation=180.000|XOffset=0mm|YOffset=0mm|HoleType=Round|Shape=RoundedRectangle|*
%AMROUNDEDRECTD173*
21,1,2.7000,2.5920,0,0,180.0*
21,1,2.5920,2.7000,0,0,180.0*
1,1,0.1080,-1.2960,1.2960*
1,1,0.1080,1.2960,1.2960*
1,1,0.1080,1.2960,-1.2960*
1,1,0.1080,-1.2960,-1.2960*
%
%ADD173ROUNDEDRECTD173*%
G04:AMPARAMS|DCode=174|XSize=3.35mm|YSize=3.35mm|CornerRadius=0.0503mm|HoleSize=0mm|Usage=FLASHONLY|Rotation=90.000|XOffset=0mm|YOffset=0mm|HoleType=Round|Shape=RoundedRectangle|*
%AMROUNDEDRECTD174*
21,1,3.3500,3.2495,0,0,90.0*
21,1,3.2495,3.3500,0,0,90.0*
1,1,0.1005,1.6248,1.6248*
1,1,0.1005,1.6248,-1.6248*
1,1,0.1005,-1.6248,-1.6248*
1,1,0.1005,-1.6248,1.6248*
%
%ADD174ROUNDEDRECTD174*%
%ADD175C,1.8500*%
G04:AMPARAMS|DCode=176|XSize=1.75mm|YSize=1.75mm|CornerRadius=0.4625mm|HoleSize=0mm|Usage=FLASHONLY|Rotation=270.000|XOffset=0mm|YOffset=0mm|HoleType=Round|Shape=RoundedRectangle|*
%AMROUNDEDRECTD176*
21,1,1.7500,0.8250,0,0,270.0*
21,1,0.8250,1.7500,0,0,270.0*
1,1,0.9250,-0.4125,-0.4125*
1,1,0.9250,-0.4125,0.4125*
1,1,0.9250,0.4125,0.4125*
1,1,0.9250,0.4125,-0.4125*
%
%ADD176ROUNDEDRECTD176*%
%ADD177C,1.7500*%
%ADD178C,1.5000*%
G04:AMPARAMS|DCode=179|XSize=1.5mm|YSize=1.5mm|CornerRadius=0.4mm|HoleSize=0mm|Usage=FLASHONLY|Rotation=270.000|XOffset=0mm|YOffset=0mm|HoleType=Round|Shape=RoundedRectangle|*
%AMROUNDEDRECTD179*
21,1,1.5000,0.7000,0,0,270.0*
21,1,0.7000,1.5000,0,0,270.0*
1,1,0.8000,-0.3500,-0.3500*
1,1,0.8000,-0.3500,0.3500*
1,1,0.8000,0.3500,0.3500*
1,1,0.8000,0.3500,-0.3500*
%
%ADD179ROUNDEDRECTD179*%
G04:AMPARAMS|DCode=180|XSize=2.15mm|YSize=2.15mm|CornerRadius=0.0538mm|HoleSize=0mm|Usage=FLASHONLY|Rotation=90.000|XOffset=0mm|YOffset=0mm|HoleType=Round|Shape=RoundedRectangle|*
%AMROUNDEDRECTD180*
21,1,2.1500,2.0425,0,0,90.0*
21,1,2.0425,2.1500,0,0,90.0*
1,1,0.1075,1.0213,1.0213*
1,1,0.1075,1.0213,-1.0213*
1,1,0.1075,-1.0213,-1.0213*
1,1,0.1075,-1.0213,1.0213*
%
%ADD180ROUNDEDRECTD180*%
%ADD181C,2.1500*%
%ADD182C,2.1320*%
G04:AMPARAMS|DCode=183|XSize=3.35mm|YSize=3.35mm|CornerRadius=0.0503mm|HoleSize=0mm|Usage=FLASHONLY|Rotation=0.000|XOffset=0mm|YOffset=0mm|HoleType=Round|Shape=RoundedRectangle|*
%AMROUNDEDRECTD183*
21,1,3.3500,3.2495,0,0,0.0*
21,1,3.2495,3.3500,0,0,0.0*
1,1,0.1005,1.6248,-1.6248*
1,1,0.1005,-1.6248,-1.6248*
1,1,0.1005,-1.6248,1.6248*
1,1,0.1005,1.6248,1.6248*
%
%ADD183ROUNDEDRECTD183*%
G04:AMPARAMS|DCode=184|XSize=3.05mm|YSize=3.05mm|CornerRadius=0.0458mm|HoleSize=0mm|Usage=FLASHONLY|Rotation=270.000|XOffset=0mm|YOffset=0mm|HoleType=Round|Shape=RoundedRectangle|*
%AMROUNDEDRECTD184*
21,1,3.0500,2.9585,0,0,270.0*
21,1,2.9585,3.0500,0,0,270.0*
1,1,0.0915,-1.4793,-1.4793*
1,1,0.0915,-1.4793,1.4793*
1,1,0.0915,1.4793,1.4793*
1,1,0.0915,1.4793,-1.4793*
%
%ADD184ROUNDEDRECTD184*%
G04:AMPARAMS|DCode=185|XSize=1.55mm|YSize=1.55mm|CornerRadius=0.0465mm|HoleSize=0mm|Usage=FLASHONLY|Rotation=90.000|XOffset=0mm|YOffset=0mm|HoleType=Round|Shape=RoundedRectangle|*
%AMROUNDEDRECTD185*
21,1,1.5500,1.4570,0,0,90.0*
21,1,1.4570,1.5500,0,0,90.0*
1,1,0.0930,0.7285,0.7285*
1,1,0.0930,0.7285,-0.7285*
1,1,0.0930,-0.7285,-0.7285*
1,1,0.0930,-0.7285,0.7285*
%
%ADD185ROUNDEDRECTD185*%
%ADD186C,3.6000*%
%ADD187C,4.4000*%
G04:AMPARAMS|DCode=188|XSize=3.4mm|YSize=3.4mm|CornerRadius=0.051mm|HoleSize=0mm|Usage=FLASHONLY|Rotation=0.000|XOffset=0mm|YOffset=0mm|HoleType=Round|Shape=RoundedRectangle|*
%AMROUNDEDRECTD188*
21,1,3.4000,3.2980,0,0,0.0*
21,1,3.2980,3.4000,0,0,0.0*
1,1,0.1020,1.6490,-1.6490*
1,1,0.1020,-1.6490,-1.6490*
1,1,0.1020,-1.6490,1.6490*
1,1,0.1020,1.6490,1.6490*
%
%ADD188ROUNDEDRECTD188*%
%ADD189C,3.4000*%
%ADD190C,1.5500*%
%ADD191C,1.9000*%
%ADD192R,1.9000X1.9000*%
G04:AMPARAMS|DCode=193|XSize=1.55mm|YSize=1.55mm|CornerRadius=0.0465mm|HoleSize=0mm|Usage=FLASHONLY|Rotation=180.000|XOffset=0mm|YOffset=0mm|HoleType=Round|Shape=RoundedRectangle|*
%AMROUNDEDRECTD193*
21,1,1.5500,1.4570,0,0,180.0*
21,1,1.4570,1.5500,0,0,180.0*
1,1,0.0930,-0.7285,0.7285*
1,1,0.0930,0.7285,0.7285*
1,1,0.0930,0.7285,-0.7285*
1,1,0.0930,-0.7285,-0.7285*
%
%ADD193ROUNDEDRECTD193*%
%ADD194C,1.3500*%
G04:AMPARAMS|DCode=195|XSize=1.35mm|YSize=1.35mm|CornerRadius=0.0472mm|HoleSize=0mm|Usage=FLASHONLY|Rotation=270.000|XOffset=0mm|YOffset=0mm|HoleType=Round|Shape=RoundedRectangle|*
%AMROUNDEDRECTD195*
21,1,1.3500,1.2555,0,0,270.0*
21,1,1.2555,1.3500,0,0,270.0*
1,1,0.0945,-0.6278,-0.6278*
1,1,0.0945,-0.6278,0.6278*
1,1,0.0945,0.6278,0.6278*
1,1,0.0945,0.6278,-0.6278*
%
%ADD195ROUNDEDRECTD195*%
G04:AMPARAMS|DCode=196|XSize=1.4mm|YSize=4.1mm|CornerRadius=0.049mm|HoleSize=0mm|Usage=FLASHONLY|Rotation=0.000|XOffset=0mm|YOffset=0mm|HoleType=Round|Shape=RoundedRectangle|*
%AMROUNDEDRECTD196*
21,1,1.4000,4.0020,0,0,0.0*
21,1,1.3020,4.1000,0,0,0.0*
1,1,0.0980,0.6510,-2.0010*
1,1,0.0980,-0.6510,-2.0010*
1,1,0.0980,-0.6510,2.0010*
1,1,0.0980,0.6510,2.0010*
%
%ADD196ROUNDEDRECTD196*%
G04:AMPARAMS|DCode=197|XSize=3.4mm|YSize=1.2mm|CornerRadius=0.6mm|HoleSize=0mm|Usage=FLASHONLY|Rotation=0.000|XOffset=0mm|YOffset=0mm|HoleType=Round|Shape=RoundedRectangle|*
%AMROUNDEDRECTD197*
21,1,3.4000,0.0000,0,0,0.0*
21,1,2.2000,1.2000,0,0,0.0*
1,1,1.2000,1.1000,0.0000*
1,1,1.2000,-1.1000,0.0000*
1,1,1.2000,-1.1000,0.0000*
1,1,1.2000,1.1000,0.0000*
%
%ADD197ROUNDEDRECTD197*%
G04:AMPARAMS|DCode=198|XSize=3.2mm|YSize=1.2mm|CornerRadius=0.6mm|HoleSize=0mm|Usage=FLASHONLY|Rotation=0.000|XOffset=0mm|YOffset=0mm|HoleType=Round|Shape=RoundedRectangle|*
%AMROUNDEDRECTD198*
21,1,3.2000,0.0000,0,0,0.0*
21,1,2.0000,1.2000,0,0,0.0*
1,1,1.2000,1.0000,0.0000*
1,1,1.2000,-1.0000,0.0000*
1,1,1.2000,-1.0000,0.0000*
1,1,1.2000,1.0000,0.0000*
%
%ADD198ROUNDEDRECTD198*%
G04:AMPARAMS|DCode=199|XSize=3.8mm|YSize=3.8mm|CornerRadius=0.057mm|HoleSize=0mm|Usage=FLASHONLY|Rotation=0.000|XOffset=0mm|YOffset=0mm|HoleType=Round|Shape=RoundedRectangle|*
%AMROUNDEDRECTD199*
21,1,3.8000,3.6860,0,0,0.0*
21,1,3.6860,3.8000,0,0,0.0*
1,1,0.1140,1.8430,-1.8430*
1,1,0.1140,-1.8430,-1.8430*
1,1,0.1140,-1.8430,1.8430*
1,1,0.1140,1.8430,1.8430*
%
%ADD199ROUNDEDRECTD199*%
%ADD200C,3.8000*%
%ADD201C,3.5000*%
G04:AMPARAMS|DCode=202|XSize=2.7mm|YSize=2.7mm|CornerRadius=0.054mm|HoleSize=0mm|Usage=FLASHONLY|Rotation=270.000|XOffset=0mm|YOffset=0mm|HoleType=Round|Shape=RoundedRectangle|*
%AMROUNDEDRECTD202*
21,1,2.7000,2.5920,0,0,270.0*
21,1,2.5920,2.7000,0,0,270.0*
1,1,0.1080,-1.2960,-1.2960*
1,1,0.1080,-1.2960,1.2960*
1,1,0.1080,1.2960,1.2960*
1,1,0.1080,1.2960,-1.2960*
%
%ADD202ROUNDEDRECTD202*%
%ADD203C,3.0500*%
%ADD204R,1.6500X1.6500*%
%ADD205C,1.6500*%
G04:AMPARAMS|DCode=206|XSize=6.97mm|YSize=2.14mm|CornerRadius=0.0535mm|HoleSize=0mm|Usage=FLASHONLY|Rotation=0.000|XOffset=0mm|YOffset=0mm|HoleType=Round|Shape=RoundedRectangle|*
%AMROUNDEDRECTD206*
21,1,6.9700,2.0330,0,0,0.0*
21,1,6.8630,2.1400,0,0,0.0*
1,1,0.1070,3.4315,-1.0165*
1,1,0.1070,-3.4315,-1.0165*
1,1,0.1070,-3.4315,1.0165*
1,1,0.1070,3.4315,1.0165*
%
%ADD206ROUNDEDRECTD206*%
G04:AMPARAMS|DCode=207|XSize=6.97mm|YSize=2.14mm|CornerRadius=1.07mm|HoleSize=0mm|Usage=FLASHONLY|Rotation=0.000|XOffset=0mm|YOffset=0mm|HoleType=Round|Shape=RoundedRectangle|*
%AMROUNDEDRECTD207*
21,1,6.9700,0.0000,0,0,0.0*
21,1,4.8300,2.1400,0,0,0.0*
1,1,2.1400,2.4150,0.0000*
1,1,2.1400,-2.4150,0.0000*
1,1,2.1400,-2.4150,0.0000*
1,1,2.1400,2.4150,0.0000*
%
%ADD207ROUNDEDRECTD207*%
%ADD208C,2.0000*%
%ADD209R,2.0000X2.0000*%
%ADD210C,1.4480*%
%ADD211C,1.7780*%
%ADD212C,0.6300*%
%ADD213C,0.6000*%
%ADD233C,1.5000*%
G04:AMPARAMS|DCode=234|XSize=0.45mm|YSize=1.15mm|CornerRadius=0.0495mm|HoleSize=0mm|Usage=FLASHONLY|Rotation=0.000|XOffset=0mm|YOffset=0mm|HoleType=Round|Shape=RoundedRectangle|*
%AMROUNDEDRECTD234*
21,1,0.4500,1.0510,0,0,0.0*
21,1,0.3510,1.1500,0,0,0.0*
1,1,0.0990,0.1755,-0.5255*
1,1,0.0990,-0.1755,-0.5255*
1,1,0.0990,-0.1755,0.5255*
1,1,0.0990,0.1755,0.5255*
%
%ADD234ROUNDEDRECTD234*%
G04:AMPARAMS|DCode=235|XSize=1.15mm|YSize=0.45mm|CornerRadius=0.0495mm|HoleSize=0mm|Usage=FLASHONLY|Rotation=0.000|XOffset=0mm|YOffset=0mm|HoleType=Round|Shape=RoundedRectangle|*
%AMROUNDEDRECTD235*
21,1,1.1500,0.3510,0,0,0.0*
21,1,1.0510,0.4500,0,0,0.0*
1,1,0.0990,0.5255,-0.1755*
1,1,0.0990,-0.5255,-0.1755*
1,1,0.0990,-0.5255,0.1755*
1,1,0.0990,0.5255,0.1755*
%
%ADD235ROUNDEDRECTD235*%
G04:AMPARAMS|DCode=236|XSize=0.665mm|YSize=1.15mm|CornerRadius=0.0499mm|HoleSize=0mm|Usage=FLASHONLY|Rotation=180.000|XOffset=0mm|YOffset=0mm|HoleType=Round|Shape=RoundedRectangle|*
%AMROUNDEDRECTD236*
21,1,0.6650,1.0502,0,0,180.0*
21,1,0.5653,1.1500,0,0,180.0*
1,1,0.0998,-0.2826,0.5251*
1,1,0.0998,0.2826,0.5251*
1,1,0.0998,0.2826,-0.5251*
1,1,0.0998,-0.2826,-0.5251*
%
%ADD236ROUNDEDRECTD236*%
G04:AMPARAMS|DCode=237|XSize=1.15mm|YSize=1.1mm|CornerRadius=0.0495mm|HoleSize=0mm|Usage=FLASHONLY|Rotation=180.000|XOffset=0mm|YOffset=0mm|HoleType=Round|Shape=RoundedRectangle|*
%AMROUNDEDRECTD237*
21,1,1.1500,1.0010,0,0,180.0*
21,1,1.0510,1.1000,0,0,180.0*
1,1,0.0990,-0.5255,0.5005*
1,1,0.0990,0.5255,0.5005*
1,1,0.0990,0.5255,-0.5005*
1,1,0.0990,-0.5255,-0.5005*
%
%ADD237ROUNDEDRECTD237*%
%ADD240C,0.3938*%
G04:AMPARAMS|DCode=241|XSize=0.67mm|YSize=0.4mm|CornerRadius=0.05mm|HoleSize=0mm|Usage=FLASHONLY|Rotation=0.000|XOffset=0mm|YOffset=0mm|HoleType=Round|Shape=RoundedRectangle|*
%AMROUNDEDRECTD241*
21,1,0.6700,0.3000,0,0,0.0*
21,1,0.5700,0.4000,0,0,0.0*
1,1,0.1000,0.2850,-0.1500*
1,1,0.1000,-0.2850,-0.1500*
1,1,0.1000,-0.2850,0.1500*
1,1,0.1000,0.2850,0.1500*
%
%ADD241ROUNDEDRECTD241*%
%ADD242C,1.6031*%
G04:AMPARAMS|DCode=243|XSize=1.9mm|YSize=1.976mm|CornerRadius=0.0475mm|HoleSize=0mm|Usage=FLASHONLY|Rotation=270.000|XOffset=0mm|YOffset=0mm|HoleType=Round|Shape=RoundedRectangle|*
%AMROUNDEDRECTD243*
21,1,1.9000,1.8810,0,0,270.0*
21,1,1.8050,1.9760,0,0,270.0*
1,1,0.0950,-0.9405,-0.9025*
1,1,0.0950,-0.9405,0.9025*
1,1,0.0950,0.9405,0.9025*
1,1,0.0950,0.9405,-0.9025*
%
%ADD243ROUNDEDRECTD243*%
G04:AMPARAMS|DCode=244|XSize=2.35mm|YSize=1.33mm|CornerRadius=0.0532mm|HoleSize=0mm|Usage=FLASHONLY|Rotation=270.000|XOffset=0mm|YOffset=0mm|HoleType=Round|Shape=RoundedRectangle|*
%AMROUNDEDRECTD244*
21,1,2.3500,1.2236,0,0,270.0*
21,1,2.2436,1.3300,0,0,270.0*
1,1,0.1064,-0.6118,-1.1218*
1,1,0.1064,-0.6118,1.1218*
1,1,0.1064,0.6118,1.1218*
1,1,0.1064,0.6118,-1.1218*
%
%ADD244ROUNDEDRECTD244*%
G04:AMPARAMS|DCode=245|XSize=0.25mm|YSize=0.7mm|CornerRadius=0.05mm|HoleSize=0mm|Usage=FLASHONLY|Rotation=270.000|XOffset=0mm|YOffset=0mm|HoleType=Round|Shape=RoundedRectangle|*
%AMROUNDEDRECTD245*
21,1,0.2500,0.6000,0,0,270.0*
21,1,0.1500,0.7000,0,0,270.0*
1,1,0.1000,-0.3000,-0.0750*
1,1,0.1000,-0.3000,0.0750*
1,1,0.1000,0.3000,0.0750*
1,1,0.1000,0.3000,-0.0750*
%
%ADD245ROUNDEDRECTD245*%
G04:AMPARAMS|DCode=246|XSize=0.7mm|YSize=0.25mm|CornerRadius=0.05mm|HoleSize=0mm|Usage=FLASHONLY|Rotation=270.000|XOffset=0mm|YOffset=0mm|HoleType=Round|Shape=RoundedRectangle|*
%AMROUNDEDRECTD246*
21,1,0.7000,0.1500,0,0,270.0*
21,1,0.6000,0.2500,0,0,270.0*
1,1,0.1000,-0.0750,-0.3000*
1,1,0.1000,-0.0750,0.3000*
1,1,0.1000,0.0750,0.3000*
1,1,0.1000,0.0750,-0.3000*
%
%ADD246ROUNDEDRECTD246*%
%ADD247C,0.2282*%
G04:AMPARAMS|DCode=248|XSize=0.9mm|YSize=0.4mm|CornerRadius=0.05mm|HoleSize=0mm|Usage=FLASHONLY|Rotation=180.000|XOffset=0mm|YOffset=0mm|HoleType=Round|Shape=RoundedRectangle|*
%AMROUNDEDRECTD248*
21,1,0.9000,0.3000,0,0,180.0*
21,1,0.8000,0.4000,0,0,180.0*
1,1,0.1000,-0.4000,0.1500*
1,1,0.1000,0.4000,0.1500*
1,1,0.1000,0.4000,-0.1500*
1,1,0.1000,-0.4000,-0.1500*
%
%ADD248ROUNDEDRECTD248*%
G04:AMPARAMS|DCode=252|XSize=3.58mm|YSize=4mm|CornerRadius=0.0537mm|HoleSize=0mm|Usage=FLASHONLY|Rotation=0.000|XOffset=0mm|YOffset=0mm|HoleType=Round|Shape=RoundedRectangle|*
%AMROUNDEDRECTD252*
21,1,3.5800,3.8926,0,0,0.0*
21,1,3.4726,4.0000,0,0,0.0*
1,1,0.1074,1.7363,-1.9463*
1,1,0.1074,-1.7363,-1.9463*
1,1,0.1074,-1.7363,1.9463*
1,1,0.1074,1.7363,1.9463*
%
%ADD252ROUNDEDRECTD252*%
G04:AMPARAMS|DCode=253|XSize=0.25mm|YSize=0.555mm|CornerRadius=0.05mm|HoleSize=0mm|Usage=FLASHONLY|Rotation=0.000|XOffset=0mm|YOffset=0mm|HoleType=Round|Shape=RoundedRectangle|*
%AMROUNDEDRECTD253*
21,1,0.2500,0.4550,0,0,0.0*
21,1,0.1500,0.5550,0,0,0.0*
1,1,0.1000,0.0750,-0.2275*
1,1,0.1000,-0.0750,-0.2275*
1,1,0.1000,-0.0750,0.2275*
1,1,0.1000,0.0750,0.2275*
%
%ADD253ROUNDEDRECTD253*%
%ADD254R,2.0000X1.8602*%
%ADD255R,0.2500X0.1800*%
%ADD256R,3.5290X1.8780*%
G04:AMPARAMS|DCode=257|XSize=0.76mm|YSize=0.41mm|CornerRadius=0.0495mm|HoleSize=0mm|Usage=FLASHONLY|Rotation=0.000|XOffset=0mm|YOffset=0mm|HoleType=Round|Shape=RoundedRectangle|*
%AMROUNDEDRECTD257*
21,1,0.7600,0.3111,0,0,0.0*
21,1,0.6611,0.4100,0,0,0.0*
1,1,0.0989,0.3306,-0.1556*
1,1,0.0989,-0.3306,-0.1556*
1,1,0.0989,-0.3306,0.1556*
1,1,0.0989,0.3306,0.1556*
%
%ADD257ROUNDEDRECTD257*%
G36*
X00982446Y01074282D02*
X00982586Y01074141D01*
X00982662Y01073958D01*
X00982662Y01073858D01*
X00982662Y01055858D01*
X00982662Y01055858D01*
Y01055759D01*
X00982586Y01055575D01*
X00982445Y01055434D01*
X00982262Y01055358D01*
X00982162D01*
X00963972Y01055358D01*
X00963873D01*
X00963689Y01055434D01*
X00963548Y01055575D01*
X00963472Y01055759D01*
Y01055858D01*
Y01056358D01*
X00963472D01*
X00963463Y01056456D01*
X00963388Y01056636D01*
X00963250Y01056774D01*
X00963070Y01056849D01*
X00962972Y01056858D01*
X00960722Y01056858D01*
Y01056858D01*
X00960623D01*
X00960439Y01056934D01*
X00960298Y01057075D01*
X00960222Y01057259D01*
Y01057358D01*
X00960222Y01058858D01*
X00960222Y01058858D01*
X00960222Y01058958D01*
X00960298Y01059141D01*
X00960439Y01059282D01*
X00960623Y01059358D01*
X00960722Y01059358D01*
X00962972D01*
X00963070Y01059368D01*
X00963250Y01059443D01*
X00963388Y01059580D01*
X00963463Y01059761D01*
X00963472Y01059858D01*
X00963472Y01061358D01*
X00963472Y01061358D01*
X00963463Y01061456D01*
X00963388Y01061636D01*
X00963250Y01061774D01*
X00963070Y01061849D01*
X00962972Y01061858D01*
X00960722Y01061858D01*
X00960623D01*
X00960439Y01061934D01*
X00960298Y01062075D01*
X00960222Y01062259D01*
Y01062358D01*
X00960222Y01063858D01*
Y01063958D01*
X00960298Y01064141D01*
X00960439Y01064282D01*
X00960623Y01064358D01*
X00960722Y01064358D01*
X00962972D01*
X00963070Y01064368D01*
X00963250Y01064442D01*
X00963388Y01064580D01*
X00963463Y01064761D01*
X00963472Y01064858D01*
X00963472Y01066358D01*
X00963472Y01066358D01*
X00963463Y01066456D01*
X00963388Y01066636D01*
X00963250Y01066774D01*
X00963070Y01066849D01*
X00962972Y01066858D01*
X00960722D01*
X00960623Y01066858D01*
X00960439Y01066934D01*
X00960298Y01067075D01*
X00960222Y01067259D01*
X00960222Y01067358D01*
Y01068858D01*
X00960222D01*
Y01068958D01*
X00960298Y01069141D01*
X00960439Y01069282D01*
X00960623Y01069358D01*
X00960722D01*
X00962972Y01069358D01*
X00963070Y01069368D01*
X00963250Y01069442D01*
X00963388Y01069580D01*
X00963463Y01069761D01*
X00963472Y01069858D01*
X00963472Y01073858D01*
Y01073958D01*
X00963548Y01074141D01*
X00963689Y01074282D01*
X00963873Y01074358D01*
X00982162D01*
X00982262Y01074358D01*
X00982446Y01074282D01*
D02*
G37*
G36*
X01002426Y01047282D02*
X01002566Y01047141D01*
X01002642Y01046958D01*
X01002642Y01046858D01*
X01002642Y01046858D01*
X01002642Y01044108D01*
Y01044009D01*
X01002566Y01043825D01*
X01002425Y01043684D01*
X01002242Y01043608D01*
X01002142D01*
X01000602Y01043608D01*
X01000505Y01043599D01*
X01000324Y01043524D01*
X01000186Y01043386D01*
X01000112Y01043206D01*
X01000102Y01043108D01*
X01000102D01*
X01000102Y01040858D01*
Y01040759D01*
X01000026Y01040575D01*
X00999885Y01040434D01*
X00999702Y01040358D01*
X00999602D01*
Y01040358D01*
X00998102Y01040358D01*
X00998003Y01040358D01*
X00997819Y01040434D01*
X00997678Y01040575D01*
X00997602Y01040759D01*
Y01040858D01*
Y01043108D01*
X00997593Y01043206D01*
X00997518Y01043386D01*
X00997380Y01043524D01*
X00997200Y01043599D01*
X00997102Y01043608D01*
X00997102Y01043608D01*
X00995602Y01043608D01*
X00995505Y01043598D01*
X00995324Y01043524D01*
X00995186Y01043386D01*
X00995112Y01043206D01*
X00995102Y01043108D01*
X00995102Y01043108D01*
Y01040858D01*
X00995102Y01040759D01*
X00995026Y01040575D01*
X00994885Y01040434D01*
X00994702Y01040358D01*
X00993003D01*
X00992819Y01040434D01*
X00992678Y01040575D01*
X00992602Y01040759D01*
Y01040858D01*
Y01040858D01*
X00992602Y01043108D01*
X00992593Y01043206D01*
X00992518Y01043386D01*
X00992380Y01043524D01*
X00992200Y01043599D01*
X00992102Y01043608D01*
X00992102Y01043608D01*
X00990602Y01043608D01*
X00990505Y01043599D01*
X00990324Y01043524D01*
X00990186Y01043386D01*
X00990112Y01043206D01*
X00990102Y01043108D01*
Y01043108D01*
X00990102Y01040858D01*
X00990102Y01040759D01*
X00990026Y01040575D01*
X00989885Y01040434D01*
X00989702Y01040358D01*
X00989602Y01040358D01*
X00988003D01*
X00987819Y01040434D01*
X00987678Y01040575D01*
X00987602Y01040759D01*
Y01040858D01*
Y01040858D01*
X00987602Y01043108D01*
X00987593Y01043206D01*
X00987518Y01043386D01*
X00987380Y01043524D01*
X00987200Y01043599D01*
X00987102Y01043608D01*
Y01043608D01*
X00985602Y01043608D01*
X00985505Y01043599D01*
X00985324Y01043524D01*
X00985186Y01043386D01*
X00985112Y01043206D01*
X00985102Y01043108D01*
X00985102Y01043108D01*
X00985102Y01040858D01*
X00985102Y01040759D01*
X00985026Y01040575D01*
X00984885Y01040434D01*
X00984702Y01040358D01*
X00984602Y01040358D01*
X00984602D01*
X00983102Y01040358D01*
X00983003D01*
X00982819Y01040434D01*
X00982678Y01040575D01*
X00982602Y01040759D01*
Y01040858D01*
X00982602D01*
X00982602Y01043108D01*
X00982593Y01043206D01*
X00982518Y01043386D01*
X00982380Y01043524D01*
X00982200Y01043599D01*
X00982102Y01043608D01*
Y01043608D01*
X00980602Y01043608D01*
X00980505Y01043599D01*
X00980324Y01043524D01*
X00980186Y01043386D01*
X00980112Y01043206D01*
X00980102Y01043108D01*
Y01043108D01*
X00980102Y01040858D01*
X00980102Y01040759D01*
X00980026Y01040575D01*
X00979885Y01040434D01*
X00979702Y01040358D01*
X00979602Y01040358D01*
X00979602D01*
X00978102Y01040358D01*
X00978003D01*
X00977819Y01040434D01*
X00977678Y01040575D01*
X00977602Y01040759D01*
Y01040858D01*
X00977602D01*
X00977602Y01043108D01*
X00977593Y01043206D01*
X00977518Y01043386D01*
X00977380Y01043524D01*
X00977200Y01043599D01*
X00977102Y01043608D01*
Y01043608D01*
X00975602Y01043608D01*
X00975505Y01043599D01*
X00975324Y01043524D01*
X00975186Y01043386D01*
X00975112Y01043206D01*
X00975102Y01043108D01*
Y01043108D01*
X00975102Y01040858D01*
X00975102Y01040759D01*
X00975026Y01040575D01*
X00974885Y01040434D01*
X00974702Y01040358D01*
X00974602Y01040358D01*
X00974602D01*
X00973102Y01040358D01*
X00973003D01*
X00972819Y01040434D01*
X00972678Y01040575D01*
X00972602Y01040759D01*
Y01040858D01*
X00972602D01*
X00972602Y01043108D01*
X00972593Y01043206D01*
X00972518Y01043386D01*
X00972380Y01043524D01*
X00972200Y01043599D01*
X00972102Y01043608D01*
Y01043608D01*
X00970602Y01043608D01*
X00970505Y01043599D01*
X00970324Y01043524D01*
X00970186Y01043386D01*
X00970112Y01043206D01*
X00970102Y01043108D01*
Y01043108D01*
X00970102Y01040858D01*
X00970102Y01040759D01*
X00970026Y01040575D01*
X00969885Y01040434D01*
X00969702Y01040358D01*
X00969602Y01040358D01*
X00969602D01*
X00968102Y01040358D01*
X00968003D01*
X00967819Y01040434D01*
X00967678Y01040575D01*
X00967602Y01040759D01*
Y01040858D01*
X00967602Y01043108D01*
X00967593Y01043206D01*
X00967518Y01043386D01*
X00967380Y01043524D01*
X00967200Y01043599D01*
X00967102Y01043608D01*
Y01043608D01*
X00965463D01*
X00965279Y01043684D01*
X00965138Y01043825D01*
X00965062Y01044009D01*
Y01044108D01*
Y01044108D01*
X00965062Y01046858D01*
X00965062Y01046958D01*
X00965138Y01047141D01*
X00965279Y01047282D01*
X00965463Y01047358D01*
X00965562Y01047358D01*
X00965562Y01047358D01*
X01002142Y01047358D01*
X01002242Y01047358D01*
X01002426Y01047282D01*
D02*
G37*
G36*
X01034006D02*
X01034146Y01047141D01*
X01034222Y01046958D01*
X01034222Y01046858D01*
X01034222Y01045358D01*
X01034222D01*
Y01045259D01*
X01034146Y01045075D01*
X01034005Y01044934D01*
X01033822Y01044858D01*
X01033722D01*
X01029722Y01044858D01*
X01029722D01*
X01029625Y01044849D01*
X01029444Y01044774D01*
X01029306Y01044636D01*
X01029232Y01044456D01*
X01029222Y01044358D01*
X01029222Y01040858D01*
X01029222D01*
Y01040759D01*
X01029146Y01040575D01*
X01029005Y01040434D01*
X01028822Y01040358D01*
X01028722D01*
X01027222Y01040358D01*
X01027123Y01040358D01*
X01026939Y01040434D01*
X01026798Y01040575D01*
X01026722Y01040759D01*
X01026722Y01040858D01*
Y01046858D01*
X01026722Y01046958D01*
X01026798Y01047141D01*
X01026939Y01047282D01*
X01027123Y01047358D01*
X01027222Y01047358D01*
X01033722Y01047358D01*
X01033722Y01047358D01*
X01033822Y01047358D01*
X01034006Y01047282D01*
D02*
G37*
G36*
X00999602Y01089358D02*
X00999702Y01089358D01*
X00999885Y01089282D01*
X01000026Y01089141D01*
X01000102Y01088958D01*
X01000102Y01088858D01*
X01000102Y01086608D01*
X01000102D01*
X01000112Y01086511D01*
X01000186Y01086330D01*
X01000324Y01086192D01*
X01000505Y01086118D01*
X01000602Y01086108D01*
X01002142Y01086108D01*
Y01086108D01*
X01002242Y01086108D01*
X01002426Y01086032D01*
X01002566Y01085891D01*
X01002642Y01085708D01*
X01002642Y01085608D01*
X01002642Y01082858D01*
X01002642D01*
X01002642Y01082759D01*
X01002566Y01082575D01*
X01002426Y01082434D01*
X01002242Y01082358D01*
X01002142Y01082358D01*
X00965463D01*
X00965279Y01082434D01*
X00965138Y01082575D01*
X00965062Y01082759D01*
Y01082858D01*
Y01085608D01*
X00965062Y01085708D01*
X00965138Y01085891D01*
X00965279Y01086032D01*
X00965463Y01086108D01*
X00965562Y01086108D01*
X00967102Y01086108D01*
X00967102Y01086108D01*
X00967200Y01086118D01*
X00967380Y01086192D01*
X00967518Y01086330D01*
X00967593Y01086511D01*
X00967602Y01086608D01*
X00967602Y01088858D01*
X00967602Y01088958D01*
X00967678Y01089141D01*
X00967819Y01089282D01*
X00968003Y01089358D01*
X00968102Y01089358D01*
X00969602Y01089358D01*
X00969602Y01089358D01*
X00969702Y01089358D01*
X00969885Y01089282D01*
X00970026Y01089141D01*
X00970102Y01088958D01*
Y01088858D01*
X00970102Y01086608D01*
Y01086608D01*
X00970112Y01086511D01*
X00970186Y01086330D01*
X00970324Y01086192D01*
X00970505Y01086118D01*
X00970602Y01086108D01*
X00972102D01*
Y01086108D01*
X00972200Y01086118D01*
X00972380Y01086192D01*
X00972518Y01086330D01*
X00972593Y01086511D01*
X00972602Y01086608D01*
X00972602Y01088858D01*
X00972602D01*
X00972602Y01088958D01*
X00972678Y01089141D01*
X00972819Y01089282D01*
X00973003Y01089358D01*
X00973102Y01089358D01*
X00974602Y01089358D01*
Y01089358D01*
X00974702Y01089358D01*
X00974885Y01089282D01*
X00975026Y01089141D01*
X00975102Y01088958D01*
X00975102Y01088858D01*
X00975102Y01086608D01*
Y01086608D01*
X00975112Y01086511D01*
X00975186Y01086330D01*
X00975324Y01086192D01*
X00975505Y01086118D01*
X00975602Y01086108D01*
X00977102D01*
Y01086108D01*
X00977200Y01086118D01*
X00977380Y01086192D01*
X00977518Y01086330D01*
X00977593Y01086511D01*
X00977602Y01086608D01*
X00977602Y01088858D01*
D01*
Y01088858D01*
Y01088858D01*
X00977602Y01088958D01*
X00977678Y01089141D01*
X00977819Y01089282D01*
X00978003Y01089358D01*
X00978102Y01089358D01*
X00979602Y01089358D01*
Y01089358D01*
X00979702Y01089358D01*
X00979885Y01089282D01*
X00980026Y01089141D01*
X00980102Y01088958D01*
X00980102Y01088858D01*
X00980102Y01086608D01*
Y01086608D01*
X00980112Y01086511D01*
X00980186Y01086330D01*
X00980324Y01086192D01*
X00980505Y01086118D01*
X00980602Y01086108D01*
X00982102D01*
Y01086108D01*
X00982200Y01086118D01*
X00982380Y01086192D01*
X00982518Y01086330D01*
X00982593Y01086511D01*
X00982602Y01086608D01*
X00982602Y01088858D01*
D01*
Y01088858D01*
Y01088858D01*
X00982602Y01088958D01*
X00982678Y01089141D01*
X00982819Y01089282D01*
X00983003Y01089358D01*
X00983102Y01089358D01*
X00984602Y01089358D01*
X00984602Y01089358D01*
X00984702Y01089358D01*
X00984885Y01089282D01*
X00985026Y01089141D01*
X00985102Y01088958D01*
X00985102Y01088858D01*
X00985102Y01086608D01*
Y01086608D01*
X00985112Y01086511D01*
X00985186Y01086330D01*
X00985324Y01086192D01*
X00985505Y01086118D01*
X00985602Y01086108D01*
X00987102D01*
X00987200Y01086118D01*
X00987380Y01086192D01*
X00987518Y01086330D01*
X00987593Y01086511D01*
X00987602Y01086608D01*
X00987602Y01088858D01*
D01*
Y01088858D01*
Y01088858D01*
X00987602Y01088958D01*
X00987678Y01089141D01*
X00987819Y01089282D01*
X00988003Y01089358D01*
X00988102Y01089358D01*
X00989602Y01089358D01*
Y01089358D01*
X00989702Y01089358D01*
X00989885Y01089282D01*
X00990026Y01089141D01*
X00990102Y01088958D01*
X00990102Y01088858D01*
X00990102Y01086608D01*
X00990102Y01086608D01*
X00990112Y01086511D01*
X00990186Y01086330D01*
X00990324Y01086192D01*
X00990505Y01086118D01*
X00990602Y01086108D01*
X00992102D01*
X00992200Y01086118D01*
X00992380Y01086192D01*
X00992518Y01086330D01*
X00992593Y01086511D01*
X00992602Y01086608D01*
X00992602Y01088858D01*
D01*
Y01088858D01*
Y01088858D01*
X00992602Y01088958D01*
X00992678Y01089141D01*
X00992819Y01089282D01*
X00993003Y01089358D01*
X00993102D01*
X00994602Y01089358D01*
X00994602Y01089358D01*
X00994702D01*
X00994885Y01089282D01*
X00995026Y01089141D01*
X00995102Y01088958D01*
X00995102Y01088858D01*
X00995102Y01086608D01*
X00995112Y01086511D01*
X00995186Y01086330D01*
X00995324Y01086192D01*
X00995505Y01086118D01*
X00995602Y01086108D01*
X00997102Y01086108D01*
X00997200Y01086118D01*
X00997380Y01086192D01*
X00997518Y01086330D01*
X00997593Y01086511D01*
X00997602Y01086608D01*
Y01088858D01*
X00997602D01*
Y01088958D01*
X00997678Y01089141D01*
X00997819Y01089282D01*
X00998003Y01089358D01*
X00998102Y01089358D01*
X00999602Y01089358D01*
X00999602Y01089358D01*
D02*
G37*
G36*
X01029005Y01089282D02*
X01029146Y01089141D01*
X01029222Y01088958D01*
X01029222Y01088858D01*
X01029222D01*
Y01085358D01*
X01029232Y01085261D01*
X01029306Y01085080D01*
X01029444Y01084942D01*
X01029625Y01084868D01*
X01029722Y01084858D01*
X01029722Y01084858D01*
X01033722Y01084858D01*
X01033822Y01084858D01*
X01034006Y01084782D01*
X01034146Y01084641D01*
X01034222Y01084458D01*
X01034222Y01084358D01*
X01034222Y01084358D01*
X01034222Y01082858D01*
X01034222Y01082759D01*
X01034146Y01082575D01*
X01034006Y01082434D01*
X01033822Y01082358D01*
X01033722Y01082358D01*
X01033722D01*
X01027222Y01082358D01*
X01027123Y01082358D01*
X01026939Y01082434D01*
X01026798Y01082575D01*
X01026722Y01082759D01*
X01026722Y01082858D01*
X01026722D01*
Y01088858D01*
Y01088958D01*
X01026798Y01089141D01*
X01026939Y01089282D01*
X01027123Y01089358D01*
X01027222Y01089358D01*
Y01089358D01*
X01028722Y01089358D01*
X01028822Y01089358D01*
X01029005Y01089282D01*
D02*
G37*
G36*
X01117421Y01171292D02*
X01117520Y01171292D01*
X01117704Y01171216D01*
X01117844Y01171075D01*
X01117921Y01170891D01*
X01117920Y01170792D01*
X01117921Y01170792D01*
X01117921Y01164792D01*
Y01164692D01*
X01117844Y01164509D01*
X01117704Y01164368D01*
X01117520Y01164292D01*
X01117421Y01164292D01*
X01115920D01*
X01115821Y01164292D01*
X01115637Y01164368D01*
X01115497Y01164509D01*
X01115421Y01164692D01*
X01115421Y01164792D01*
X01115421Y01164792D01*
X01115421Y01168292D01*
X01115411Y01168389D01*
X01115336Y01168570D01*
X01115198Y01168708D01*
X01115018Y01168782D01*
X01114921Y01168792D01*
Y01168792D01*
X01110920D01*
X01110821Y01168792D01*
X01110637Y01168868D01*
X01110497Y01169009D01*
X01110421Y01169192D01*
X01110421Y01169292D01*
Y01170792D01*
X01110421Y01170891D01*
X01110497Y01171075D01*
X01110637Y01171216D01*
X01110821Y01171292D01*
X01110920Y01171292D01*
Y01171292D01*
X01117421Y01171292D01*
D02*
G37*
G36*
X01117704Y01213216D02*
X01117844Y01213075D01*
X01117921Y01212891D01*
X01117921Y01212792D01*
X01117921Y01206792D01*
X01117921D01*
X01117921Y01206692D01*
X01117844Y01206509D01*
X01117704Y01206368D01*
X01117520Y01206292D01*
X01117421Y01206292D01*
X01110920Y01206292D01*
X01110821Y01206292D01*
X01110637Y01206368D01*
X01110497Y01206509D01*
X01110421Y01206692D01*
X01110421Y01206792D01*
Y01208292D01*
X01110421Y01208292D01*
Y01208391D01*
X01110497Y01208575D01*
X01110637Y01208716D01*
X01110821Y01208792D01*
X01110920D01*
X01114921Y01208792D01*
Y01208792D01*
X01115018Y01208801D01*
X01115198Y01208876D01*
X01115336Y01209014D01*
X01115411Y01209194D01*
X01115421Y01209292D01*
Y01212792D01*
X01115421Y01212792D01*
Y01212891D01*
X01115497Y01213075D01*
X01115637Y01213216D01*
X01115821Y01213292D01*
X01115920D01*
X01117421Y01213292D01*
X01117421Y01213292D01*
X01117520Y01213292D01*
X01117704Y01213216D01*
D02*
G37*
G36*
X01176541Y01213292D02*
X01176640D01*
X01176824Y01213216D01*
X01176964Y01213075D01*
X01177040Y01212891D01*
Y01212792D01*
X01177040Y01212792D01*
Y01210542D01*
X01177050Y01210444D01*
X01177125Y01210264D01*
X01177263Y01210126D01*
X01177443Y01210051D01*
X01177540Y01210042D01*
X01177541D01*
X01179081Y01210042D01*
X01179180D01*
X01179364Y01209966D01*
X01179504Y01209825D01*
X01179580Y01209641D01*
Y01209542D01*
X01179581D01*
Y01206792D01*
X01179581Y01206692D01*
X01179504Y01206509D01*
X01179364Y01206368D01*
X01179180Y01206292D01*
X01179081Y01206292D01*
X01142501D01*
X01142401Y01206292D01*
X01142217Y01206368D01*
X01142077Y01206509D01*
X01142001Y01206692D01*
X01142001Y01206792D01*
X01142001Y01209542D01*
Y01209641D01*
X01142077Y01209825D01*
X01142217Y01209966D01*
X01142401Y01210042D01*
X01142501D01*
Y01210042D01*
X01144041D01*
X01144138Y01210051D01*
X01144318Y01210126D01*
X01144456Y01210264D01*
X01144531Y01210444D01*
X01144540Y01210542D01*
X01144540Y01210542D01*
Y01212792D01*
Y01212891D01*
X01144617Y01213075D01*
X01144757Y01213216D01*
X01144941Y01213292D01*
X01145041D01*
X01145041Y01213292D01*
X01146541Y01213292D01*
X01146640Y01213292D01*
X01146824Y01213216D01*
X01146964Y01213075D01*
X01147040Y01212891D01*
Y01212792D01*
X01147040Y01212792D01*
X01147040Y01210542D01*
X01147050Y01210444D01*
X01147125Y01210264D01*
X01147263Y01210126D01*
X01147443Y01210051D01*
X01147541Y01210042D01*
X01149041Y01210042D01*
X01149138Y01210051D01*
X01149318Y01210126D01*
X01149456Y01210264D01*
X01149531Y01210444D01*
X01149540Y01210542D01*
X01149540D01*
X01149540Y01212792D01*
X01149540Y01212891D01*
X01149617Y01213075D01*
X01149757Y01213216D01*
X01149941Y01213292D01*
X01150040D01*
X01150041Y01213292D01*
X01151541Y01213292D01*
X01151640D01*
X01151824Y01213216D01*
X01151964Y01213075D01*
X01152040Y01212891D01*
Y01212792D01*
X01152040D01*
Y01210542D01*
X01152050Y01210444D01*
X01152125Y01210264D01*
X01152263Y01210126D01*
X01152443Y01210051D01*
X01152541Y01210042D01*
X01154041D01*
X01154138Y01210051D01*
X01154318Y01210126D01*
X01154456Y01210264D01*
X01154531Y01210444D01*
X01154540Y01210542D01*
X01154540D01*
Y01212792D01*
X01154540Y01212891D01*
X01154617Y01213075D01*
X01154757Y01213216D01*
X01154941Y01213292D01*
X01155041Y01213292D01*
Y01213292D01*
X01156541Y01213292D01*
X01156640D01*
X01156824Y01213216D01*
X01156964Y01213075D01*
X01157040Y01212891D01*
Y01212792D01*
X01157040D01*
Y01210542D01*
X01157050Y01210444D01*
X01157125Y01210264D01*
X01157263Y01210126D01*
X01157443Y01210051D01*
X01157541Y01210042D01*
X01159041D01*
X01159138Y01210051D01*
X01159318Y01210126D01*
X01159456Y01210264D01*
X01159531Y01210444D01*
X01159540Y01210542D01*
Y01212792D01*
X01159540Y01212891D01*
X01159617Y01213075D01*
X01159757Y01213216D01*
X01159941Y01213292D01*
X01160041Y01213292D01*
Y01213292D01*
X01161541Y01213292D01*
X01161640D01*
X01161824Y01213216D01*
X01161964Y01213075D01*
X01162040Y01212891D01*
Y01212792D01*
X01162040Y01212792D01*
Y01210542D01*
X01162050Y01210444D01*
X01162125Y01210264D01*
X01162263Y01210126D01*
X01162443Y01210051D01*
X01162541Y01210042D01*
X01164041D01*
X01164138Y01210051D01*
X01164318Y01210126D01*
X01164456Y01210264D01*
X01164531Y01210444D01*
X01164540Y01210542D01*
X01164540D01*
Y01212792D01*
X01164540Y01212891D01*
X01164617Y01213075D01*
X01164757Y01213216D01*
X01164941Y01213292D01*
X01165041Y01213292D01*
Y01213292D01*
X01166541Y01213292D01*
X01166640D01*
X01166824Y01213216D01*
X01166964Y01213075D01*
X01167040Y01212891D01*
Y01212792D01*
X01167040Y01212792D01*
Y01210542D01*
X01167050Y01210444D01*
X01167125Y01210264D01*
X01167263Y01210126D01*
X01167443Y01210051D01*
X01167541Y01210042D01*
X01169041D01*
X01169138Y01210051D01*
X01169318Y01210126D01*
X01169456Y01210264D01*
X01169531Y01210444D01*
X01169540Y01210542D01*
X01169540D01*
Y01212792D01*
X01169540Y01212891D01*
X01169617Y01213075D01*
X01169757Y01213216D01*
X01169941Y01213292D01*
X01170041Y01213292D01*
Y01213292D01*
X01171541Y01213292D01*
X01171640D01*
X01171824Y01213216D01*
X01171964Y01213075D01*
X01172040Y01212891D01*
Y01212792D01*
X01172040Y01212792D01*
Y01210542D01*
X01172050Y01210444D01*
X01172125Y01210264D01*
X01172263Y01210126D01*
X01172443Y01210051D01*
X01172541Y01210042D01*
X01174041D01*
X01174138Y01210051D01*
X01174318Y01210126D01*
X01174456Y01210264D01*
X01174531Y01210444D01*
X01174540Y01210542D01*
X01174540D01*
Y01212792D01*
X01174540Y01212891D01*
X01174617Y01213075D01*
X01174757Y01213216D01*
X01174941Y01213292D01*
X01175041Y01213292D01*
Y01213292D01*
X01176541Y01213292D01*
D02*
G37*
G36*
X01260832Y01212903D02*
X01260973Y01212763D01*
X01261049Y01212579D01*
X01261049Y01212479D01*
X01261049D01*
Y01208979D01*
X01261059Y01208882D01*
X01261133Y01208702D01*
X01261271Y01208564D01*
X01261452Y01208489D01*
X01261549Y01208479D01*
X01261549Y01208479D01*
X01265549Y01208479D01*
X01265649Y01208479D01*
X01265832Y01208403D01*
X01265973Y01208263D01*
X01266049Y01208079D01*
X01266049Y01207979D01*
X01266049Y01207979D01*
X01266049Y01206479D01*
X01266049Y01206380D01*
X01265973Y01206196D01*
X01265832Y01206055D01*
X01265649Y01205979D01*
X01265549Y01205979D01*
X01265549D01*
X01259049Y01205979D01*
X01258950Y01205979D01*
X01258766Y01206056D01*
X01258625Y01206196D01*
X01258549Y01206380D01*
X01258549Y01206479D01*
X01258549D01*
Y01212479D01*
Y01212579D01*
X01258625Y01212763D01*
X01258766Y01212903D01*
X01258950Y01212979D01*
X01259049Y01212979D01*
Y01212979D01*
X01260549Y01212979D01*
X01260649Y01212979D01*
X01260832Y01212903D01*
D02*
G37*
G36*
X01231429Y01212979D02*
X01231528Y01212979D01*
X01231712Y01212903D01*
X01231853Y01212763D01*
X01231929Y01212579D01*
X01231929Y01212479D01*
X01231929Y01210229D01*
X01231929D01*
X01231939Y01210132D01*
X01232013Y01209952D01*
X01232151Y01209814D01*
X01232332Y01209739D01*
X01232429Y01209729D01*
X01233969Y01209729D01*
Y01209729D01*
X01234069Y01209729D01*
X01234252Y01209653D01*
X01234393Y01209513D01*
X01234469Y01209329D01*
X01234469Y01209229D01*
X01234469Y01206479D01*
X01234469D01*
X01234469Y01206380D01*
X01234393Y01206196D01*
X01234252Y01206055D01*
X01234069Y01205979D01*
X01233969Y01205979D01*
X01197290D01*
X01197106Y01206056D01*
X01196965Y01206196D01*
X01196889Y01206380D01*
Y01206479D01*
Y01209229D01*
X01196889Y01209329D01*
X01196965Y01209513D01*
X01197106Y01209653D01*
X01197290Y01209729D01*
X01197389Y01209729D01*
X01198929Y01209729D01*
X01198929Y01209729D01*
X01199027Y01209739D01*
X01199207Y01209814D01*
X01199345Y01209952D01*
X01199419Y01210132D01*
X01199429Y01210229D01*
X01199429Y01212479D01*
X01199429Y01212579D01*
X01199505Y01212763D01*
X01199646Y01212903D01*
X01199830Y01212979D01*
X01199929Y01212979D01*
X01201429Y01212979D01*
X01201429Y01212979D01*
X01201529Y01212979D01*
X01201712Y01212903D01*
X01201853Y01212763D01*
X01201929Y01212579D01*
Y01212479D01*
X01201929Y01210229D01*
Y01210229D01*
X01201939Y01210132D01*
X01202013Y01209952D01*
X01202151Y01209814D01*
X01202332Y01209739D01*
X01202429Y01209729D01*
X01203929D01*
Y01209729D01*
X01204027Y01209739D01*
X01204207Y01209814D01*
X01204345Y01209952D01*
X01204419Y01210132D01*
X01204429Y01210229D01*
X01204429Y01212479D01*
X01204429D01*
X01204429Y01212579D01*
X01204505Y01212763D01*
X01204646Y01212903D01*
X01204830Y01212979D01*
X01204929Y01212979D01*
X01206429Y01212979D01*
Y01212979D01*
X01206529Y01212979D01*
X01206712Y01212903D01*
X01206853Y01212763D01*
X01206929Y01212579D01*
X01206929Y01212479D01*
X01206929Y01210229D01*
Y01210229D01*
X01206939Y01210132D01*
X01207013Y01209952D01*
X01207151Y01209814D01*
X01207332Y01209739D01*
X01207429Y01209729D01*
X01208929D01*
Y01209729D01*
X01209027Y01209739D01*
X01209207Y01209814D01*
X01209345Y01209952D01*
X01209419Y01210132D01*
X01209429Y01210229D01*
X01209429Y01212479D01*
D01*
Y01212479D01*
Y01212479D01*
X01209429Y01212579D01*
X01209505Y01212763D01*
X01209646Y01212903D01*
X01209830Y01212979D01*
X01209929Y01212979D01*
X01211429Y01212979D01*
Y01212979D01*
X01211529Y01212979D01*
X01211712Y01212903D01*
X01211853Y01212763D01*
X01211929Y01212579D01*
X01211929Y01212479D01*
X01211929Y01210229D01*
Y01210229D01*
X01211939Y01210132D01*
X01212013Y01209952D01*
X01212151Y01209814D01*
X01212332Y01209739D01*
X01212429Y01209729D01*
X01213929D01*
Y01209729D01*
X01214027Y01209739D01*
X01214207Y01209814D01*
X01214345Y01209952D01*
X01214419Y01210132D01*
X01214429Y01210229D01*
X01214429Y01212479D01*
D01*
Y01212479D01*
Y01212479D01*
X01214429Y01212579D01*
X01214505Y01212763D01*
X01214646Y01212903D01*
X01214830Y01212979D01*
X01214929Y01212979D01*
X01216429Y01212979D01*
X01216429Y01212979D01*
X01216529Y01212979D01*
X01216712Y01212903D01*
X01216853Y01212763D01*
X01216929Y01212579D01*
X01216929Y01212479D01*
X01216929Y01210229D01*
Y01210229D01*
X01216939Y01210132D01*
X01217013Y01209952D01*
X01217151Y01209814D01*
X01217332Y01209739D01*
X01217429Y01209729D01*
X01218929D01*
X01219027Y01209739D01*
X01219207Y01209814D01*
X01219345Y01209952D01*
X01219419Y01210132D01*
X01219429Y01210229D01*
X01219429Y01212479D01*
D01*
Y01212479D01*
Y01212479D01*
X01219429Y01212579D01*
X01219505Y01212763D01*
X01219646Y01212903D01*
X01219830Y01212979D01*
X01219929Y01212979D01*
X01221429Y01212979D01*
Y01212979D01*
X01221529Y01212979D01*
X01221712Y01212903D01*
X01221853Y01212763D01*
X01221929Y01212579D01*
X01221929Y01212479D01*
X01221929Y01210229D01*
X01221929Y01210229D01*
X01221939Y01210132D01*
X01222013Y01209952D01*
X01222151Y01209814D01*
X01222332Y01209739D01*
X01222429Y01209729D01*
X01223929D01*
X01224027Y01209739D01*
X01224207Y01209814D01*
X01224345Y01209951D01*
X01224419Y01210132D01*
X01224429Y01210229D01*
X01224429Y01212479D01*
D01*
Y01212479D01*
Y01212479D01*
X01224429Y01212579D01*
X01224505Y01212763D01*
X01224646Y01212903D01*
X01224830Y01212979D01*
X01224929D01*
X01226429Y01212979D01*
X01226429Y01212979D01*
X01226529D01*
X01226712Y01212903D01*
X01226853Y01212763D01*
X01226929Y01212579D01*
X01226929Y01212479D01*
X01226929Y01210229D01*
X01226939Y01210132D01*
X01227013Y01209952D01*
X01227151Y01209814D01*
X01227332Y01209739D01*
X01227429Y01209729D01*
X01228929Y01209729D01*
X01229027Y01209739D01*
X01229207Y01209814D01*
X01229345Y01209952D01*
X01229419Y01210132D01*
X01229429Y01210229D01*
Y01212479D01*
X01229429D01*
Y01212579D01*
X01229505Y01212763D01*
X01229646Y01212903D01*
X01229830Y01212979D01*
X01229929Y01212979D01*
X01231429Y01212979D01*
X01231429Y01212979D01*
D02*
G37*
G36*
X01180670Y01198292D02*
X01180770D01*
X01180954Y01198216D01*
X01181094Y01198075D01*
X01181171Y01197891D01*
Y01197792D01*
X01181171Y01197292D01*
Y01197292D01*
X01181180Y01197194D01*
X01181255Y01197014D01*
X01181393Y01196876D01*
X01181573Y01196801D01*
X01181671Y01196792D01*
X01183921D01*
X01183921Y01196792D01*
X01184020D01*
X01184204Y01196716D01*
X01184344Y01196575D01*
X01184420Y01196391D01*
Y01196292D01*
X01184420Y01194792D01*
X01184420D01*
X01184420Y01194692D01*
X01184344Y01194509D01*
X01184204Y01194368D01*
X01184020Y01194292D01*
X01183921Y01194292D01*
X01181671Y01194292D01*
Y01194292D01*
X01181573Y01194282D01*
X01181393Y01194208D01*
X01181255Y01194070D01*
X01181180Y01193889D01*
X01181171Y01193792D01*
Y01192292D01*
X01181180Y01192194D01*
X01181255Y01192014D01*
X01181393Y01191876D01*
X01181573Y01191801D01*
X01181671Y01191792D01*
X01183921D01*
X01183921Y01191792D01*
X01184020D01*
X01184204Y01191716D01*
X01184344Y01191575D01*
X01184420Y01191391D01*
Y01191292D01*
X01184420Y01189792D01*
X01184420Y01189792D01*
Y01189692D01*
X01184344Y01189509D01*
X01184204Y01189368D01*
X01184020Y01189292D01*
X01183921Y01189292D01*
X01181671Y01189292D01*
Y01189292D01*
X01181573Y01189282D01*
X01181393Y01189208D01*
X01181255Y01189070D01*
X01181180Y01188889D01*
X01181171Y01188792D01*
Y01187292D01*
X01181180Y01187194D01*
X01181255Y01187014D01*
X01181393Y01186876D01*
X01181573Y01186801D01*
X01181671Y01186792D01*
X01183921Y01186792D01*
X01183921Y01186792D01*
X01184020Y01186792D01*
X01184204Y01186716D01*
X01184344Y01186575D01*
X01184420Y01186391D01*
X01184420Y01186292D01*
X01184420Y01184792D01*
X01184420Y01184792D01*
Y01184692D01*
X01184344Y01184509D01*
X01184204Y01184368D01*
X01184020Y01184292D01*
X01181671D01*
X01181671Y01184292D01*
X01181573Y01184282D01*
X01181393Y01184208D01*
X01181255Y01184070D01*
X01181180Y01183889D01*
X01181171Y01183792D01*
Y01179792D01*
X01181171Y01179792D01*
Y01179692D01*
X01181094Y01179509D01*
X01180954Y01179368D01*
X01180770Y01179292D01*
X01180670D01*
X01162480Y01179292D01*
Y01179292D01*
X01162381Y01179292D01*
X01162197Y01179368D01*
X01162057Y01179509D01*
X01161981Y01179692D01*
X01161981Y01179792D01*
Y01197792D01*
X01161981D01*
Y01197891D01*
X01162057Y01198075D01*
X01162197Y01198216D01*
X01162381Y01198292D01*
X01162480D01*
X01180670Y01198292D01*
Y01198292D01*
D02*
G37*
G36*
X01214272Y01197903D02*
X01214413Y01197763D01*
X01214489Y01197579D01*
X01214489Y01197479D01*
X01214489Y01179479D01*
X01214489Y01179479D01*
Y01179380D01*
X01214413Y01179196D01*
X01214272Y01179055D01*
X01214089Y01178979D01*
X01213989D01*
X01195799Y01178979D01*
X01195700D01*
X01195516Y01179055D01*
X01195375Y01179196D01*
X01195299Y01179380D01*
Y01179479D01*
Y01179979D01*
X01195299D01*
X01195290Y01180077D01*
X01195215Y01180257D01*
X01195077Y01180395D01*
X01194897Y01180470D01*
X01194799Y01180479D01*
X01192549Y01180479D01*
Y01180479D01*
X01192450D01*
X01192266Y01180555D01*
X01192125Y01180696D01*
X01192049Y01180880D01*
Y01180979D01*
X01192049Y01182479D01*
X01192049Y01182479D01*
X01192049Y01182579D01*
X01192125Y01182763D01*
X01192266Y01182903D01*
X01192450Y01182979D01*
X01192549Y01182979D01*
X01194799D01*
X01194897Y01182989D01*
X01195077Y01183064D01*
X01195215Y01183202D01*
X01195290Y01183382D01*
X01195299Y01183479D01*
X01195299Y01184979D01*
X01195299Y01184979D01*
X01195290Y01185077D01*
X01195215Y01185257D01*
X01195077Y01185395D01*
X01194897Y01185470D01*
X01194799Y01185479D01*
X01192549Y01185479D01*
X01192450D01*
X01192266Y01185555D01*
X01192125Y01185696D01*
X01192049Y01185880D01*
Y01185979D01*
X01192049Y01187479D01*
Y01187579D01*
X01192125Y01187763D01*
X01192266Y01187903D01*
X01192450Y01187979D01*
X01192549Y01187979D01*
X01194799D01*
X01194897Y01187989D01*
X01195077Y01188064D01*
X01195215Y01188202D01*
X01195290Y01188382D01*
X01195299Y01188479D01*
X01195299Y01189979D01*
X01195299Y01189979D01*
X01195290Y01190077D01*
X01195215Y01190257D01*
X01195077Y01190395D01*
X01194897Y01190470D01*
X01194799Y01190479D01*
X01192549D01*
X01192450Y01190479D01*
X01192266Y01190555D01*
X01192125Y01190696D01*
X01192049Y01190880D01*
X01192049Y01190979D01*
Y01192479D01*
X01192049D01*
Y01192579D01*
X01192125Y01192763D01*
X01192266Y01192903D01*
X01192450Y01192979D01*
X01192549D01*
X01194799Y01192979D01*
X01194897Y01192989D01*
X01195077Y01193064D01*
X01195215Y01193202D01*
X01195290Y01193382D01*
X01195299Y01193479D01*
X01195299Y01197479D01*
Y01197579D01*
X01195375Y01197763D01*
X01195516Y01197903D01*
X01195700Y01197979D01*
X01213989D01*
X01214089Y01197979D01*
X01214272Y01197903D01*
D02*
G37*
G36*
X01179081Y01171292D02*
X01179180D01*
X01179364Y01171216D01*
X01179504Y01171075D01*
X01179580Y01170891D01*
Y01170792D01*
X01179581Y01168042D01*
X01179580D01*
X01179581Y01167942D01*
X01179504Y01167759D01*
X01179364Y01167618D01*
X01179180Y01167542D01*
X01179081Y01167542D01*
X01177541D01*
Y01167542D01*
X01177443Y01167532D01*
X01177263Y01167458D01*
X01177125Y01167320D01*
X01177050Y01167139D01*
X01177040Y01167042D01*
X01177040Y01164792D01*
X01177040Y01164792D01*
X01177040Y01164692D01*
X01176964Y01164509D01*
X01176824Y01164368D01*
X01176640Y01164292D01*
X01176541Y01164292D01*
X01175041D01*
X01174941Y01164292D01*
X01174757Y01164368D01*
X01174617Y01164509D01*
X01174540Y01164692D01*
Y01164792D01*
Y01167042D01*
X01174540D01*
X01174531Y01167139D01*
X01174456Y01167320D01*
X01174318Y01167458D01*
X01174138Y01167532D01*
X01174041Y01167542D01*
X01172541Y01167542D01*
X01172541Y01167542D01*
X01172443Y01167532D01*
X01172263Y01167458D01*
X01172125Y01167320D01*
X01172050Y01167139D01*
X01172040Y01167042D01*
Y01164792D01*
X01172040Y01164792D01*
X01172040Y01164692D01*
X01171964Y01164509D01*
X01171824Y01164368D01*
X01171640Y01164292D01*
X01171541Y01164292D01*
X01170041D01*
X01170041Y01164292D01*
X01169941Y01164292D01*
X01169757Y01164368D01*
X01169617Y01164509D01*
X01169540Y01164692D01*
X01169540Y01164792D01*
Y01167042D01*
X01169540D01*
X01169531Y01167139D01*
X01169456Y01167320D01*
X01169318Y01167458D01*
X01169138Y01167532D01*
X01169041Y01167542D01*
X01167541Y01167542D01*
X01167540Y01167542D01*
X01167443Y01167532D01*
X01167263Y01167458D01*
X01167125Y01167320D01*
X01167050Y01167139D01*
X01167040Y01167042D01*
Y01164792D01*
X01167040D01*
X01167040Y01164692D01*
X01166964Y01164509D01*
X01166824Y01164368D01*
X01166640Y01164292D01*
X01166541Y01164292D01*
X01165041D01*
X01165041Y01164292D01*
X01164941Y01164292D01*
X01164757Y01164368D01*
X01164617Y01164509D01*
X01164540Y01164692D01*
X01164540Y01164792D01*
Y01167042D01*
X01164540D01*
X01164531Y01167139D01*
X01164456Y01167320D01*
X01164318Y01167458D01*
X01164138Y01167532D01*
X01164041Y01167542D01*
X01162541Y01167542D01*
X01162540Y01167542D01*
X01162443Y01167532D01*
X01162263Y01167458D01*
X01162125Y01167320D01*
X01162050Y01167139D01*
X01162040Y01167042D01*
Y01164792D01*
X01162040D01*
X01162040Y01164692D01*
X01161964Y01164509D01*
X01161824Y01164368D01*
X01161640Y01164292D01*
X01161541Y01164292D01*
X01160041D01*
Y01164292D01*
X01159941Y01164292D01*
X01159757Y01164368D01*
X01159617Y01164509D01*
X01159540Y01164692D01*
X01159540Y01164792D01*
X01159540Y01167042D01*
X01159540D01*
X01159531Y01167139D01*
X01159456Y01167320D01*
X01159318Y01167458D01*
X01159138Y01167532D01*
X01159041Y01167542D01*
X01157541Y01167542D01*
X01157541Y01167542D01*
X01157443Y01167532D01*
X01157263Y01167458D01*
X01157125Y01167320D01*
X01157050Y01167139D01*
X01157040Y01167042D01*
Y01164792D01*
X01157040D01*
X01157040Y01164692D01*
X01156964Y01164509D01*
X01156824Y01164368D01*
X01156640Y01164292D01*
X01156541Y01164292D01*
X01155041D01*
X01155041Y01164292D01*
X01154941Y01164292D01*
X01154757Y01164368D01*
X01154617Y01164509D01*
X01154540Y01164692D01*
X01154540Y01164792D01*
Y01167042D01*
X01154540D01*
X01154531Y01167139D01*
X01154456Y01167320D01*
X01154318Y01167458D01*
X01154138Y01167532D01*
X01154041Y01167542D01*
X01152541Y01167542D01*
X01152540Y01167542D01*
X01152443Y01167532D01*
X01152263Y01167458D01*
X01152125Y01167320D01*
X01152050Y01167139D01*
X01152040Y01167042D01*
Y01164792D01*
X01152040D01*
X01152040Y01164692D01*
X01151964Y01164509D01*
X01151824Y01164368D01*
X01151640Y01164292D01*
X01149941D01*
X01149757Y01164368D01*
X01149617Y01164509D01*
X01149540Y01164692D01*
X01149540Y01164792D01*
X01149540Y01167042D01*
X01149540Y01167042D01*
X01149531Y01167139D01*
X01149456Y01167320D01*
X01149318Y01167458D01*
X01149138Y01167532D01*
X01149041Y01167542D01*
X01147541Y01167542D01*
Y01167542D01*
X01147443Y01167532D01*
X01147263Y01167458D01*
X01147125Y01167320D01*
X01147050Y01167139D01*
X01147040Y01167042D01*
X01147040Y01164792D01*
X01147040Y01164792D01*
Y01164692D01*
X01146964Y01164509D01*
X01146824Y01164368D01*
X01146640Y01164292D01*
X01146541Y01164292D01*
X01145041D01*
Y01164292D01*
X01144941Y01164292D01*
X01144757Y01164368D01*
X01144617Y01164509D01*
X01144540Y01164692D01*
X01144540Y01164792D01*
Y01167042D01*
X01144540Y01167042D01*
X01144531Y01167139D01*
X01144456Y01167320D01*
X01144318Y01167458D01*
X01144138Y01167532D01*
X01144041Y01167542D01*
X01142501Y01167542D01*
X01142501D01*
X01142401Y01167542D01*
X01142217Y01167618D01*
X01142077Y01167759D01*
X01142001Y01167942D01*
X01142001Y01168042D01*
Y01170792D01*
X01142001Y01170891D01*
X01142077Y01171075D01*
X01142217Y01171216D01*
X01142401Y01171292D01*
X01142501Y01171292D01*
X01179081Y01171292D01*
Y01171292D01*
D02*
G37*
G36*
X01265832Y01170903D02*
X01265973Y01170763D01*
X01266049Y01170579D01*
X01266049Y01170479D01*
X01266049Y01168979D01*
X01266049D01*
Y01168880D01*
X01265973Y01168696D01*
X01265832Y01168556D01*
X01265648Y01168479D01*
X01265549D01*
X01261549Y01168479D01*
X01261549D01*
X01261452Y01168470D01*
X01261271Y01168395D01*
X01261133Y01168257D01*
X01261059Y01168077D01*
X01261049Y01167979D01*
X01261049Y01164479D01*
X01261049D01*
Y01164380D01*
X01260973Y01164196D01*
X01260832Y01164055D01*
X01260649Y01163979D01*
X01260549D01*
X01259049Y01163979D01*
X01258950Y01163979D01*
X01258766Y01164055D01*
X01258625Y01164196D01*
X01258549Y01164380D01*
X01258549Y01164479D01*
Y01170479D01*
X01258549Y01170579D01*
X01258625Y01170763D01*
X01258766Y01170903D01*
X01258950Y01170979D01*
X01259049Y01170979D01*
X01265549Y01170979D01*
X01265549Y01170979D01*
X01265649Y01170979D01*
X01265832Y01170903D01*
D02*
G37*
G36*
X01234252D02*
X01234393Y01170763D01*
X01234469Y01170579D01*
X01234469Y01170479D01*
X01234469Y01170479D01*
X01234469Y01167729D01*
Y01167630D01*
X01234393Y01167446D01*
X01234252Y01167306D01*
X01234069Y01167229D01*
X01233969D01*
X01232429Y01167229D01*
X01232332Y01167220D01*
X01232151Y01167145D01*
X01232013Y01167007D01*
X01231939Y01166827D01*
X01231929Y01166729D01*
X01231929D01*
X01231929Y01164479D01*
Y01164380D01*
X01231853Y01164196D01*
X01231712Y01164055D01*
X01231529Y01163979D01*
X01231429D01*
Y01163979D01*
X01229929Y01163979D01*
X01229830Y01163979D01*
X01229646Y01164055D01*
X01229505Y01164196D01*
X01229429Y01164380D01*
Y01164479D01*
Y01166729D01*
X01229419Y01166827D01*
X01229345Y01167007D01*
X01229207Y01167145D01*
X01229027Y01167220D01*
X01228929Y01167229D01*
X01228929Y01167229D01*
X01227429Y01167229D01*
X01227332Y01167220D01*
X01227151Y01167145D01*
X01227013Y01167007D01*
X01226939Y01166827D01*
X01226929Y01166729D01*
X01226929Y01166729D01*
Y01164479D01*
X01226929Y01164380D01*
X01226853Y01164196D01*
X01226712Y01164055D01*
X01226529Y01163979D01*
X01224830D01*
X01224646Y01164055D01*
X01224505Y01164196D01*
X01224429Y01164380D01*
Y01164479D01*
Y01164479D01*
X01224429Y01166729D01*
X01224419Y01166827D01*
X01224345Y01167007D01*
X01224207Y01167145D01*
X01224027Y01167220D01*
X01223929Y01167229D01*
X01223929Y01167229D01*
X01222429Y01167229D01*
X01222332Y01167220D01*
X01222151Y01167145D01*
X01222013Y01167007D01*
X01221939Y01166827D01*
X01221929Y01166729D01*
Y01166729D01*
X01221929Y01164479D01*
X01221929Y01164380D01*
X01221853Y01164196D01*
X01221712Y01164055D01*
X01221529Y01163979D01*
X01221429Y01163979D01*
X01219830D01*
X01219646Y01164055D01*
X01219505Y01164196D01*
X01219429Y01164380D01*
Y01164479D01*
Y01164479D01*
X01219429Y01166729D01*
X01219419Y01166827D01*
X01219345Y01167007D01*
X01219207Y01167145D01*
X01219027Y01167220D01*
X01218929Y01167229D01*
Y01167229D01*
X01217429Y01167229D01*
X01217332Y01167220D01*
X01217151Y01167145D01*
X01217013Y01167007D01*
X01216939Y01166827D01*
X01216929Y01166729D01*
X01216929Y01166729D01*
X01216929Y01164479D01*
X01216929Y01164380D01*
X01216853Y01164196D01*
X01216712Y01164055D01*
X01216529Y01163979D01*
X01216429Y01163979D01*
X01216429D01*
X01214929Y01163979D01*
X01214830D01*
X01214646Y01164055D01*
X01214505Y01164196D01*
X01214429Y01164380D01*
Y01164479D01*
X01214429D01*
X01214429Y01166729D01*
X01214419Y01166827D01*
X01214345Y01167007D01*
X01214207Y01167145D01*
X01214027Y01167220D01*
X01213929Y01167229D01*
Y01167229D01*
X01212429Y01167229D01*
X01212332Y01167220D01*
X01212151Y01167145D01*
X01212013Y01167007D01*
X01211939Y01166827D01*
X01211929Y01166729D01*
Y01166729D01*
X01211929Y01164479D01*
X01211929Y01164380D01*
X01211853Y01164196D01*
X01211712Y01164055D01*
X01211529Y01163979D01*
X01211429Y01163979D01*
X01211429D01*
X01209929Y01163979D01*
X01209830D01*
X01209646Y01164055D01*
X01209505Y01164196D01*
X01209429Y01164380D01*
Y01164479D01*
X01209429D01*
X01209429Y01166729D01*
X01209419Y01166827D01*
X01209345Y01167007D01*
X01209207Y01167145D01*
X01209027Y01167220D01*
X01208929Y01167229D01*
Y01167229D01*
X01207429Y01167229D01*
X01207332Y01167220D01*
X01207151Y01167145D01*
X01207013Y01167007D01*
X01206939Y01166827D01*
X01206929Y01166729D01*
Y01166729D01*
X01206929Y01164479D01*
X01206929Y01164380D01*
X01206853Y01164196D01*
X01206712Y01164055D01*
X01206529Y01163979D01*
X01206429Y01163979D01*
X01206429D01*
X01204929Y01163979D01*
X01204830D01*
X01204646Y01164055D01*
X01204505Y01164196D01*
X01204429Y01164380D01*
Y01164479D01*
X01204429D01*
X01204429Y01166729D01*
X01204419Y01166827D01*
X01204345Y01167007D01*
X01204207Y01167145D01*
X01204027Y01167220D01*
X01203929Y01167229D01*
Y01167229D01*
X01202429Y01167229D01*
X01202332Y01167220D01*
X01202151Y01167145D01*
X01202013Y01167007D01*
X01201939Y01166827D01*
X01201929Y01166729D01*
Y01166729D01*
X01201929Y01164479D01*
X01201929Y01164380D01*
X01201853Y01164196D01*
X01201712Y01164055D01*
X01201529Y01163979D01*
X01201429Y01163979D01*
X01201429D01*
X01199929Y01163979D01*
X01199830D01*
X01199646Y01164055D01*
X01199505Y01164196D01*
X01199429Y01164380D01*
Y01164479D01*
X01199429Y01166729D01*
X01199419Y01166827D01*
X01199345Y01167007D01*
X01199207Y01167145D01*
X01199027Y01167220D01*
X01198929Y01167229D01*
Y01167229D01*
X01197290D01*
X01197106Y01167306D01*
X01196965Y01167446D01*
X01196889Y01167630D01*
Y01167729D01*
Y01167729D01*
X01196889Y01170479D01*
X01196889Y01170579D01*
X01196965Y01170763D01*
X01197106Y01170903D01*
X01197290Y01170979D01*
X01197389Y01170979D01*
X01197389Y01170979D01*
X01233969Y01170979D01*
X01234069Y01170979D01*
X01234252Y01170903D01*
D02*
G37*
G36*
X00982446Y01496282D02*
X00982586Y01496141D01*
X00982662Y01495958D01*
X00982662Y01495858D01*
X00982662Y01477858D01*
X00982662Y01477858D01*
Y01477759D01*
X00982586Y01477575D01*
X00982445Y01477434D01*
X00982262Y01477358D01*
X00982162D01*
X00963972Y01477358D01*
X00963873D01*
X00963689Y01477434D01*
X00963548Y01477575D01*
X00963472Y01477759D01*
Y01477858D01*
Y01478358D01*
X00963472D01*
X00963463Y01478456D01*
X00963388Y01478636D01*
X00963250Y01478774D01*
X00963070Y01478849D01*
X00962972Y01478858D01*
X00960722Y01478858D01*
Y01478858D01*
X00960623D01*
X00960439Y01478934D01*
X00960298Y01479075D01*
X00960222Y01479259D01*
Y01479358D01*
X00960222Y01480858D01*
X00960222Y01480858D01*
X00960222Y01480958D01*
X00960298Y01481142D01*
X00960439Y01481282D01*
X00960623Y01481358D01*
X00960722Y01481358D01*
X00962972D01*
X00963070Y01481368D01*
X00963250Y01481443D01*
X00963388Y01481580D01*
X00963463Y01481761D01*
X00963472Y01481858D01*
X00963472Y01483358D01*
X00963472Y01483358D01*
X00963463Y01483456D01*
X00963388Y01483636D01*
X00963250Y01483774D01*
X00963070Y01483849D01*
X00962972Y01483858D01*
X00960722Y01483858D01*
X00960623D01*
X00960439Y01483934D01*
X00960298Y01484075D01*
X00960222Y01484259D01*
Y01484358D01*
X00960222Y01485858D01*
Y01485958D01*
X00960298Y01486142D01*
X00960439Y01486282D01*
X00960623Y01486358D01*
X00960722Y01486358D01*
X00962972D01*
X00963070Y01486368D01*
X00963250Y01486443D01*
X00963388Y01486580D01*
X00963463Y01486761D01*
X00963472Y01486858D01*
X00963472Y01488358D01*
X00963472Y01488358D01*
X00963463Y01488456D01*
X00963388Y01488636D01*
X00963250Y01488774D01*
X00963070Y01488849D01*
X00962972Y01488858D01*
X00960722D01*
X00960623Y01488858D01*
X00960439Y01488934D01*
X00960298Y01489075D01*
X00960222Y01489259D01*
X00960222Y01489358D01*
Y01490858D01*
X00960222D01*
Y01490958D01*
X00960298Y01491141D01*
X00960439Y01491282D01*
X00960623Y01491358D01*
X00960722D01*
X00962972Y01491358D01*
X00963070Y01491368D01*
X00963250Y01491442D01*
X00963388Y01491580D01*
X00963463Y01491761D01*
X00963472Y01491858D01*
X00963472Y01495858D01*
Y01495958D01*
X00963548Y01496141D01*
X00963689Y01496282D01*
X00963873Y01496358D01*
X00982162D01*
X00982262Y01496358D01*
X00982446Y01496282D01*
D02*
G37*
G36*
X01034006Y01469282D02*
X01034146Y01469141D01*
X01034222Y01468958D01*
X01034222Y01468858D01*
X01034222Y01467358D01*
X01034222D01*
Y01467259D01*
X01034146Y01467075D01*
X01034005Y01466934D01*
X01033822Y01466858D01*
X01033722D01*
X01029722Y01466858D01*
X01029722D01*
X01029625Y01466849D01*
X01029444Y01466774D01*
X01029306Y01466636D01*
X01029232Y01466456D01*
X01029222Y01466358D01*
X01029222Y01462858D01*
X01029222D01*
Y01462759D01*
X01029146Y01462575D01*
X01029005Y01462434D01*
X01028822Y01462358D01*
X01028722D01*
X01027222Y01462358D01*
X01027123Y01462358D01*
X01026939Y01462434D01*
X01026798Y01462575D01*
X01026722Y01462759D01*
X01026722Y01462858D01*
Y01468858D01*
X01026722Y01468958D01*
X01026798Y01469141D01*
X01026939Y01469282D01*
X01027123Y01469358D01*
X01027222Y01469358D01*
X01033722Y01469358D01*
X01033722Y01469358D01*
X01033822Y01469358D01*
X01034006Y01469282D01*
D02*
G37*
G36*
X01002426D02*
X01002566Y01469141D01*
X01002642Y01468958D01*
X01002642Y01468858D01*
X01002642Y01468858D01*
X01002642Y01466108D01*
Y01466009D01*
X01002566Y01465825D01*
X01002425Y01465684D01*
X01002242Y01465608D01*
X01002142D01*
X01000602Y01465608D01*
X01000505Y01465599D01*
X01000324Y01465524D01*
X01000186Y01465386D01*
X01000112Y01465206D01*
X01000102Y01465108D01*
X01000102D01*
X01000102Y01462858D01*
Y01462759D01*
X01000026Y01462575D01*
X00999885Y01462434D01*
X00999702Y01462358D01*
X00999602D01*
Y01462358D01*
X00998102Y01462358D01*
X00998003Y01462358D01*
X00997819Y01462434D01*
X00997678Y01462575D01*
X00997602Y01462759D01*
Y01462858D01*
Y01465108D01*
X00997593Y01465206D01*
X00997518Y01465386D01*
X00997380Y01465524D01*
X00997200Y01465599D01*
X00997102Y01465608D01*
X00997102Y01465608D01*
X00995602Y01465608D01*
X00995505Y01465599D01*
X00995324Y01465524D01*
X00995186Y01465386D01*
X00995112Y01465206D01*
X00995102Y01465108D01*
X00995102Y01465108D01*
Y01462858D01*
X00995102Y01462759D01*
X00995026Y01462575D01*
X00994885Y01462434D01*
X00994702Y01462358D01*
X00993003D01*
X00992819Y01462434D01*
X00992678Y01462575D01*
X00992602Y01462759D01*
Y01462858D01*
Y01462858D01*
X00992602Y01465108D01*
X00992593Y01465206D01*
X00992518Y01465386D01*
X00992380Y01465524D01*
X00992200Y01465599D01*
X00992102Y01465608D01*
X00992102Y01465608D01*
X00990602Y01465608D01*
X00990505Y01465599D01*
X00990324Y01465524D01*
X00990186Y01465386D01*
X00990112Y01465206D01*
X00990102Y01465108D01*
Y01465108D01*
X00990102Y01462858D01*
X00990102Y01462759D01*
X00990026Y01462575D01*
X00989885Y01462434D01*
X00989702Y01462358D01*
X00989602Y01462358D01*
X00988003D01*
X00987819Y01462434D01*
X00987678Y01462575D01*
X00987602Y01462759D01*
Y01462858D01*
Y01462858D01*
X00987602Y01465108D01*
X00987593Y01465206D01*
X00987518Y01465386D01*
X00987380Y01465524D01*
X00987200Y01465599D01*
X00987102Y01465608D01*
Y01465608D01*
X00985602Y01465608D01*
X00985505Y01465599D01*
X00985324Y01465524D01*
X00985186Y01465386D01*
X00985112Y01465206D01*
X00985102Y01465108D01*
X00985102Y01465108D01*
X00985102Y01462858D01*
X00985102Y01462759D01*
X00985026Y01462575D01*
X00984885Y01462434D01*
X00984702Y01462358D01*
X00984602Y01462358D01*
X00984602D01*
X00983102Y01462358D01*
X00983003D01*
X00982819Y01462434D01*
X00982678Y01462575D01*
X00982602Y01462759D01*
Y01462858D01*
X00982602D01*
X00982602Y01465108D01*
X00982593Y01465206D01*
X00982518Y01465386D01*
X00982380Y01465524D01*
X00982200Y01465599D01*
X00982102Y01465608D01*
Y01465608D01*
X00980602Y01465608D01*
X00980505Y01465599D01*
X00980324Y01465524D01*
X00980186Y01465386D01*
X00980112Y01465206D01*
X00980102Y01465108D01*
Y01465108D01*
X00980102Y01462858D01*
X00980102Y01462759D01*
X00980026Y01462575D01*
X00979885Y01462434D01*
X00979702Y01462358D01*
X00979602Y01462358D01*
X00979602D01*
X00978102Y01462358D01*
X00978003D01*
X00977819Y01462434D01*
X00977678Y01462575D01*
X00977602Y01462759D01*
Y01462858D01*
X00977602D01*
X00977602Y01465108D01*
X00977593Y01465206D01*
X00977518Y01465386D01*
X00977380Y01465524D01*
X00977200Y01465599D01*
X00977102Y01465608D01*
Y01465608D01*
X00975602Y01465608D01*
X00975505Y01465599D01*
X00975324Y01465524D01*
X00975186Y01465386D01*
X00975112Y01465206D01*
X00975102Y01465108D01*
Y01465108D01*
X00975102Y01462858D01*
X00975102Y01462759D01*
X00975026Y01462575D01*
X00974885Y01462434D01*
X00974702Y01462358D01*
X00974602Y01462358D01*
X00974602D01*
X00973102Y01462358D01*
X00973003D01*
X00972819Y01462434D01*
X00972678Y01462575D01*
X00972602Y01462759D01*
Y01462858D01*
X00972602D01*
X00972602Y01465108D01*
X00972593Y01465206D01*
X00972518Y01465386D01*
X00972380Y01465524D01*
X00972200Y01465599D01*
X00972102Y01465608D01*
Y01465608D01*
X00970602Y01465608D01*
X00970505Y01465599D01*
X00970324Y01465524D01*
X00970186Y01465386D01*
X00970112Y01465206D01*
X00970102Y01465108D01*
Y01465108D01*
X00970102Y01462858D01*
X00970102Y01462759D01*
X00970026Y01462575D01*
X00969885Y01462434D01*
X00969702Y01462358D01*
X00969602Y01462358D01*
X00969602D01*
X00968102Y01462358D01*
X00968003D01*
X00967819Y01462434D01*
X00967678Y01462575D01*
X00967602Y01462759D01*
Y01462858D01*
X00967602Y01465108D01*
X00967593Y01465206D01*
X00967518Y01465386D01*
X00967380Y01465524D01*
X00967200Y01465599D01*
X00967102Y01465608D01*
Y01465608D01*
X00965463D01*
X00965279Y01465684D01*
X00965138Y01465825D01*
X00965062Y01466009D01*
Y01466108D01*
Y01466108D01*
X00965062Y01468858D01*
X00965062Y01468958D01*
X00965138Y01469141D01*
X00965279Y01469282D01*
X00965463Y01469358D01*
X00965562Y01469358D01*
X00965562Y01469358D01*
X01002142Y01469358D01*
X01002242Y01469358D01*
X01002426Y01469282D01*
D02*
G37*
G36*
X01029005Y01300282D02*
X01029146Y01300141D01*
X01029222Y01299958D01*
X01029222Y01299858D01*
X01029222D01*
Y01296358D01*
X01029232Y01296261D01*
X01029306Y01296080D01*
X01029444Y01295943D01*
X01029625Y01295868D01*
X01029722Y01295858D01*
X01029722Y01295858D01*
X01033722Y01295858D01*
X01033822Y01295858D01*
X01034006Y01295782D01*
X01034146Y01295641D01*
X01034222Y01295458D01*
X01034222Y01295358D01*
X01034222Y01295358D01*
X01034222Y01293858D01*
X01034222Y01293759D01*
X01034146Y01293575D01*
X01034006Y01293434D01*
X01033822Y01293358D01*
X01033722Y01293358D01*
X01033722D01*
X01027222Y01293358D01*
X01027123Y01293358D01*
X01026939Y01293434D01*
X01026798Y01293575D01*
X01026722Y01293759D01*
X01026722Y01293858D01*
X01026722D01*
Y01299858D01*
Y01299958D01*
X01026798Y01300141D01*
X01026939Y01300282D01*
X01027123Y01300358D01*
X01027222Y01300358D01*
Y01300358D01*
X01028722Y01300358D01*
X01028822Y01300358D01*
X01029005Y01300282D01*
D02*
G37*
G36*
X00999602Y01300358D02*
X00999702Y01300358D01*
X00999885Y01300282D01*
X01000026Y01300141D01*
X01000102Y01299958D01*
X01000102Y01299858D01*
X01000102Y01297608D01*
X01000102D01*
X01000112Y01297511D01*
X01000186Y01297330D01*
X01000324Y01297193D01*
X01000505Y01297118D01*
X01000602Y01297108D01*
X01002142Y01297108D01*
Y01297108D01*
X01002242Y01297108D01*
X01002426Y01297032D01*
X01002566Y01296891D01*
X01002642Y01296708D01*
X01002642Y01296608D01*
X01002642Y01293858D01*
X01002642D01*
X01002642Y01293759D01*
X01002566Y01293575D01*
X01002426Y01293434D01*
X01002242Y01293358D01*
X01002142Y01293358D01*
X00965463D01*
X00965279Y01293434D01*
X00965138Y01293575D01*
X00965062Y01293759D01*
Y01293858D01*
Y01296608D01*
X00965062Y01296708D01*
X00965138Y01296891D01*
X00965279Y01297032D01*
X00965463Y01297108D01*
X00965562Y01297108D01*
X00967102Y01297108D01*
X00967102Y01297108D01*
X00967200Y01297118D01*
X00967380Y01297193D01*
X00967518Y01297330D01*
X00967593Y01297511D01*
X00967602Y01297608D01*
X00967602Y01299858D01*
X00967602Y01299958D01*
X00967678Y01300141D01*
X00967819Y01300282D01*
X00968003Y01300358D01*
X00968102Y01300358D01*
X00969602Y01300358D01*
X00969602Y01300358D01*
X00969702Y01300358D01*
X00969885Y01300282D01*
X00970026Y01300141D01*
X00970102Y01299958D01*
Y01299858D01*
X00970102Y01297608D01*
Y01297608D01*
X00970112Y01297511D01*
X00970186Y01297330D01*
X00970324Y01297193D01*
X00970505Y01297118D01*
X00970602Y01297108D01*
X00972102D01*
Y01297108D01*
X00972200Y01297118D01*
X00972380Y01297193D01*
X00972518Y01297330D01*
X00972593Y01297511D01*
X00972602Y01297608D01*
X00972602Y01299858D01*
X00972602D01*
X00972602Y01299958D01*
X00972678Y01300141D01*
X00972819Y01300282D01*
X00973003Y01300358D01*
X00973102Y01300358D01*
X00974602Y01300358D01*
Y01300358D01*
X00974702Y01300358D01*
X00974885Y01300282D01*
X00975026Y01300141D01*
X00975102Y01299958D01*
X00975102Y01299858D01*
X00975102Y01297608D01*
Y01297608D01*
X00975112Y01297511D01*
X00975186Y01297330D01*
X00975324Y01297193D01*
X00975505Y01297118D01*
X00975602Y01297108D01*
X00977102D01*
Y01297108D01*
X00977200Y01297118D01*
X00977380Y01297193D01*
X00977518Y01297330D01*
X00977593Y01297511D01*
X00977602Y01297608D01*
X00977602Y01299858D01*
D01*
Y01299858D01*
Y01299858D01*
X00977602Y01299958D01*
X00977678Y01300141D01*
X00977819Y01300282D01*
X00978003Y01300358D01*
X00978102Y01300358D01*
X00979602Y01300358D01*
Y01300358D01*
X00979702Y01300358D01*
X00979885Y01300282D01*
X00980026Y01300141D01*
X00980102Y01299958D01*
X00980102Y01299858D01*
X00980102Y01297608D01*
Y01297608D01*
X00980112Y01297511D01*
X00980186Y01297330D01*
X00980324Y01297193D01*
X00980505Y01297118D01*
X00980602Y01297108D01*
X00982102D01*
Y01297108D01*
X00982200Y01297118D01*
X00982380Y01297193D01*
X00982518Y01297330D01*
X00982593Y01297511D01*
X00982602Y01297608D01*
X00982602Y01299858D01*
D01*
Y01299858D01*
Y01299858D01*
X00982602Y01299958D01*
X00982678Y01300141D01*
X00982819Y01300282D01*
X00983003Y01300358D01*
X00983102Y01300358D01*
X00984602Y01300358D01*
X00984602Y01300358D01*
X00984702Y01300358D01*
X00984885Y01300282D01*
X00985026Y01300141D01*
X00985102Y01299958D01*
X00985102Y01299858D01*
X00985102Y01297608D01*
Y01297608D01*
X00985112Y01297511D01*
X00985186Y01297330D01*
X00985324Y01297193D01*
X00985505Y01297118D01*
X00985602Y01297108D01*
X00987102D01*
X00987200Y01297118D01*
X00987380Y01297193D01*
X00987518Y01297330D01*
X00987593Y01297511D01*
X00987602Y01297608D01*
X00987602Y01299858D01*
D01*
Y01299858D01*
Y01299858D01*
X00987602Y01299958D01*
X00987678Y01300141D01*
X00987819Y01300282D01*
X00988003Y01300358D01*
X00988102Y01300358D01*
X00989602Y01300358D01*
Y01300358D01*
X00989702Y01300358D01*
X00989885Y01300282D01*
X00990026Y01300141D01*
X00990102Y01299958D01*
X00990102Y01299858D01*
X00990102Y01297608D01*
X00990102Y01297608D01*
X00990112Y01297511D01*
X00990186Y01297330D01*
X00990324Y01297193D01*
X00990505Y01297118D01*
X00990602Y01297108D01*
X00992102D01*
X00992200Y01297118D01*
X00992380Y01297192D01*
X00992518Y01297330D01*
X00992593Y01297511D01*
X00992602Y01297608D01*
X00992602Y01299858D01*
D01*
Y01299858D01*
Y01299858D01*
X00992602Y01299958D01*
X00992678Y01300141D01*
X00992819Y01300282D01*
X00993003Y01300358D01*
X00993102D01*
X00994602Y01300358D01*
X00994602Y01300358D01*
X00994702D01*
X00994885Y01300282D01*
X00995026Y01300141D01*
X00995102Y01299958D01*
X00995102Y01299858D01*
X00995102Y01297608D01*
X00995112Y01297511D01*
X00995186Y01297330D01*
X00995324Y01297193D01*
X00995505Y01297118D01*
X00995602Y01297108D01*
X00997102Y01297108D01*
X00997200Y01297118D01*
X00997380Y01297193D01*
X00997518Y01297330D01*
X00997593Y01297511D01*
X00997602Y01297608D01*
Y01299858D01*
X00997602D01*
Y01299958D01*
X00997678Y01300141D01*
X00997819Y01300282D01*
X00998003Y01300358D01*
X00998102Y01300358D01*
X00999602Y01300358D01*
X00999602Y01300358D01*
D02*
G37*
G36*
X00982446Y01285282D02*
X00982586Y01285141D01*
X00982662Y01284958D01*
X00982662Y01284858D01*
X00982662Y01266858D01*
X00982662Y01266858D01*
Y01266759D01*
X00982586Y01266575D01*
X00982445Y01266434D01*
X00982262Y01266358D01*
X00982162D01*
X00963972Y01266358D01*
X00963873D01*
X00963689Y01266434D01*
X00963548Y01266575D01*
X00963472Y01266759D01*
Y01266858D01*
Y01267358D01*
X00963472D01*
X00963463Y01267456D01*
X00963388Y01267636D01*
X00963250Y01267774D01*
X00963070Y01267849D01*
X00962972Y01267858D01*
X00960722Y01267858D01*
Y01267858D01*
X00960623D01*
X00960439Y01267934D01*
X00960298Y01268075D01*
X00960222Y01268259D01*
Y01268358D01*
X00960222Y01269858D01*
X00960222Y01269858D01*
X00960222Y01269958D01*
X00960298Y01270142D01*
X00960439Y01270282D01*
X00960623Y01270358D01*
X00960722Y01270358D01*
X00962972D01*
X00963070Y01270368D01*
X00963250Y01270443D01*
X00963388Y01270580D01*
X00963463Y01270761D01*
X00963472Y01270858D01*
X00963472Y01272358D01*
X00963472Y01272358D01*
X00963463Y01272456D01*
X00963388Y01272636D01*
X00963250Y01272774D01*
X00963070Y01272849D01*
X00962972Y01272858D01*
X00960722Y01272858D01*
X00960623D01*
X00960439Y01272934D01*
X00960298Y01273075D01*
X00960222Y01273259D01*
Y01273358D01*
X00960222Y01274858D01*
Y01274958D01*
X00960298Y01275141D01*
X00960439Y01275282D01*
X00960623Y01275358D01*
X00960722Y01275358D01*
X00962972D01*
X00963070Y01275368D01*
X00963250Y01275443D01*
X00963388Y01275580D01*
X00963463Y01275761D01*
X00963472Y01275858D01*
X00963472Y01277358D01*
X00963472Y01277358D01*
X00963463Y01277456D01*
X00963388Y01277636D01*
X00963250Y01277774D01*
X00963070Y01277849D01*
X00962972Y01277858D01*
X00960722D01*
X00960623Y01277858D01*
X00960439Y01277934D01*
X00960298Y01278075D01*
X00960222Y01278259D01*
X00960222Y01278358D01*
Y01279858D01*
X00960222D01*
Y01279958D01*
X00960298Y01280141D01*
X00960439Y01280282D01*
X00960623Y01280358D01*
X00960722D01*
X00962972Y01280358D01*
X00963070Y01280368D01*
X00963250Y01280442D01*
X00963388Y01280580D01*
X00963463Y01280761D01*
X00963472Y01280858D01*
X00963472Y01284858D01*
Y01284958D01*
X00963548Y01285141D01*
X00963689Y01285282D01*
X00963873Y01285358D01*
X00982162D01*
X00982262Y01285358D01*
X00982446Y01285282D01*
D02*
G37*
G36*
X01034006Y01258282D02*
X01034146Y01258141D01*
X01034222Y01257958D01*
X01034222Y01257858D01*
X01034222Y01256358D01*
X01034222D01*
Y01256259D01*
X01034146Y01256075D01*
X01034005Y01255934D01*
X01033822Y01255858D01*
X01033722D01*
X01029722Y01255858D01*
X01029722D01*
X01029625Y01255849D01*
X01029444Y01255774D01*
X01029306Y01255636D01*
X01029232Y01255456D01*
X01029222Y01255358D01*
X01029222Y01251858D01*
X01029222D01*
Y01251759D01*
X01029146Y01251575D01*
X01029005Y01251434D01*
X01028822Y01251358D01*
X01028722D01*
X01027222Y01251358D01*
X01027123Y01251358D01*
X01026939Y01251434D01*
X01026798Y01251575D01*
X01026722Y01251759D01*
X01026722Y01251858D01*
Y01257858D01*
X01026722Y01257958D01*
X01026798Y01258141D01*
X01026939Y01258282D01*
X01027123Y01258358D01*
X01027222Y01258358D01*
X01033722Y01258358D01*
X01033722Y01258358D01*
X01033822Y01258358D01*
X01034006Y01258282D01*
D02*
G37*
G36*
X01002426D02*
X01002566Y01258141D01*
X01002642Y01257958D01*
X01002642Y01257858D01*
X01002642Y01257858D01*
X01002642Y01255108D01*
Y01255009D01*
X01002566Y01254825D01*
X01002425Y01254684D01*
X01002242Y01254608D01*
X01002142D01*
X01000602Y01254608D01*
X01000505Y01254599D01*
X01000324Y01254524D01*
X01000186Y01254386D01*
X01000112Y01254206D01*
X01000102Y01254108D01*
X01000102D01*
X01000102Y01251858D01*
Y01251759D01*
X01000026Y01251575D01*
X00999885Y01251434D01*
X00999702Y01251358D01*
X00999602D01*
Y01251358D01*
X00998102Y01251358D01*
X00998003Y01251358D01*
X00997819Y01251434D01*
X00997678Y01251575D01*
X00997602Y01251759D01*
Y01251858D01*
Y01254108D01*
X00997593Y01254206D01*
X00997518Y01254386D01*
X00997380Y01254524D01*
X00997200Y01254599D01*
X00997102Y01254608D01*
X00997102Y01254608D01*
X00995602Y01254608D01*
X00995505Y01254599D01*
X00995324Y01254524D01*
X00995186Y01254386D01*
X00995112Y01254206D01*
X00995102Y01254108D01*
X00995102Y01254108D01*
Y01251858D01*
X00995102Y01251759D01*
X00995026Y01251575D01*
X00994885Y01251434D01*
X00994702Y01251358D01*
X00993003D01*
X00992819Y01251434D01*
X00992678Y01251575D01*
X00992602Y01251759D01*
Y01251858D01*
Y01251858D01*
X00992602Y01254108D01*
X00992593Y01254206D01*
X00992518Y01254386D01*
X00992380Y01254524D01*
X00992200Y01254599D01*
X00992102Y01254608D01*
X00992102Y01254608D01*
X00990602Y01254608D01*
X00990505Y01254599D01*
X00990324Y01254524D01*
X00990186Y01254386D01*
X00990112Y01254206D01*
X00990102Y01254108D01*
Y01254108D01*
X00990102Y01251858D01*
X00990102Y01251759D01*
X00990026Y01251575D01*
X00989885Y01251434D01*
X00989702Y01251358D01*
X00989602Y01251358D01*
X00988003D01*
X00987819Y01251434D01*
X00987678Y01251575D01*
X00987602Y01251759D01*
Y01251858D01*
Y01251858D01*
X00987602Y01254108D01*
X00987593Y01254206D01*
X00987518Y01254386D01*
X00987380Y01254524D01*
X00987200Y01254599D01*
X00987102Y01254608D01*
Y01254608D01*
X00985602Y01254608D01*
X00985505Y01254599D01*
X00985324Y01254524D01*
X00985186Y01254386D01*
X00985112Y01254206D01*
X00985102Y01254108D01*
X00985102Y01254108D01*
X00985102Y01251858D01*
X00985102Y01251759D01*
X00985026Y01251575D01*
X00984885Y01251434D01*
X00984702Y01251358D01*
X00984602Y01251358D01*
X00984602D01*
X00983102Y01251358D01*
X00983003D01*
X00982819Y01251434D01*
X00982678Y01251575D01*
X00982602Y01251759D01*
Y01251858D01*
X00982602D01*
X00982602Y01254108D01*
X00982593Y01254206D01*
X00982518Y01254386D01*
X00982380Y01254524D01*
X00982200Y01254599D01*
X00982102Y01254608D01*
Y01254608D01*
X00980602Y01254608D01*
X00980505Y01254599D01*
X00980324Y01254524D01*
X00980186Y01254386D01*
X00980112Y01254206D01*
X00980102Y01254108D01*
Y01254108D01*
X00980102Y01251858D01*
X00980102Y01251759D01*
X00980026Y01251575D01*
X00979885Y01251434D01*
X00979702Y01251358D01*
X00979602Y01251358D01*
X00979602D01*
X00978102Y01251358D01*
X00978003D01*
X00977819Y01251434D01*
X00977678Y01251575D01*
X00977602Y01251759D01*
Y01251858D01*
X00977602D01*
X00977602Y01254108D01*
X00977593Y01254206D01*
X00977518Y01254386D01*
X00977380Y01254524D01*
X00977200Y01254599D01*
X00977102Y01254608D01*
Y01254608D01*
X00975602Y01254608D01*
X00975505Y01254599D01*
X00975324Y01254524D01*
X00975186Y01254386D01*
X00975112Y01254206D01*
X00975102Y01254108D01*
Y01254108D01*
X00975102Y01251858D01*
X00975102Y01251759D01*
X00975026Y01251575D01*
X00974885Y01251434D01*
X00974702Y01251358D01*
X00974602Y01251358D01*
X00974602D01*
X00973102Y01251358D01*
X00973003D01*
X00972819Y01251434D01*
X00972678Y01251575D01*
X00972602Y01251759D01*
Y01251858D01*
X00972602D01*
X00972602Y01254108D01*
X00972593Y01254206D01*
X00972518Y01254386D01*
X00972380Y01254524D01*
X00972200Y01254599D01*
X00972102Y01254608D01*
Y01254608D01*
X00970602Y01254608D01*
X00970505Y01254599D01*
X00970324Y01254524D01*
X00970186Y01254386D01*
X00970112Y01254206D01*
X00970102Y01254108D01*
Y01254108D01*
X00970102Y01251858D01*
X00970102Y01251759D01*
X00970026Y01251575D01*
X00969885Y01251434D01*
X00969702Y01251358D01*
X00969602Y01251358D01*
X00969602D01*
X00968102Y01251358D01*
X00968003D01*
X00967819Y01251434D01*
X00967678Y01251575D01*
X00967602Y01251759D01*
Y01251858D01*
X00967602Y01254108D01*
X00967593Y01254206D01*
X00967518Y01254386D01*
X00967380Y01254524D01*
X00967200Y01254599D01*
X00967102Y01254608D01*
Y01254608D01*
X00965463D01*
X00965279Y01254684D01*
X00965138Y01254825D01*
X00965062Y01255009D01*
Y01255108D01*
Y01255108D01*
X00965062Y01257858D01*
X00965062Y01257958D01*
X00965138Y01258141D01*
X00965279Y01258282D01*
X00965463Y01258358D01*
X00965562Y01258358D01*
X00965562Y01258358D01*
X01002142Y01258358D01*
X01002242Y01258358D01*
X01002426Y01258282D01*
D02*
G37*
G36*
X00999602Y01511358D02*
X00999702Y01511358D01*
X00999885Y01511282D01*
X01000026Y01511141D01*
X01000102Y01510958D01*
X01000102Y01510858D01*
X01000102Y01508608D01*
X01000102D01*
X01000112Y01508511D01*
X01000186Y01508330D01*
X01000324Y01508192D01*
X01000505Y01508118D01*
X01000602Y01508108D01*
X01002142Y01508108D01*
Y01508108D01*
X01002242Y01508108D01*
X01002426Y01508032D01*
X01002566Y01507891D01*
X01002642Y01507708D01*
X01002642Y01507608D01*
X01002642Y01504858D01*
X01002642D01*
X01002642Y01504759D01*
X01002566Y01504575D01*
X01002426Y01504434D01*
X01002242Y01504358D01*
X01002142Y01504358D01*
X00965463D01*
X00965279Y01504434D01*
X00965138Y01504575D01*
X00965062Y01504759D01*
Y01504858D01*
Y01507608D01*
X00965062Y01507708D01*
X00965138Y01507891D01*
X00965279Y01508032D01*
X00965463Y01508108D01*
X00965562Y01508108D01*
X00967102Y01508108D01*
X00967102Y01508108D01*
X00967200Y01508118D01*
X00967380Y01508192D01*
X00967518Y01508330D01*
X00967593Y01508511D01*
X00967602Y01508608D01*
X00967602Y01510858D01*
X00967602Y01510958D01*
X00967678Y01511142D01*
X00967819Y01511282D01*
X00968003Y01511358D01*
X00968102Y01511358D01*
X00969602Y01511358D01*
X00969602Y01511358D01*
X00969702Y01511358D01*
X00969885Y01511282D01*
X00970026Y01511141D01*
X00970102Y01510958D01*
Y01510858D01*
X00970102Y01508608D01*
Y01508608D01*
X00970112Y01508511D01*
X00970186Y01508330D01*
X00970324Y01508192D01*
X00970505Y01508118D01*
X00970602Y01508108D01*
X00972102D01*
Y01508108D01*
X00972200Y01508118D01*
X00972380Y01508192D01*
X00972518Y01508330D01*
X00972593Y01508511D01*
X00972602Y01508608D01*
X00972602Y01510858D01*
X00972602D01*
X00972602Y01510958D01*
X00972678Y01511142D01*
X00972819Y01511282D01*
X00973003Y01511358D01*
X00973102Y01511358D01*
X00974602Y01511358D01*
Y01511358D01*
X00974702Y01511358D01*
X00974885Y01511282D01*
X00975026Y01511141D01*
X00975102Y01510958D01*
X00975102Y01510858D01*
X00975102Y01508608D01*
Y01508608D01*
X00975112Y01508511D01*
X00975186Y01508330D01*
X00975324Y01508192D01*
X00975505Y01508118D01*
X00975602Y01508108D01*
X00977102D01*
Y01508108D01*
X00977200Y01508118D01*
X00977380Y01508192D01*
X00977518Y01508330D01*
X00977593Y01508511D01*
X00977602Y01508608D01*
X00977602Y01510858D01*
D01*
Y01510858D01*
Y01510858D01*
X00977602Y01510958D01*
X00977678Y01511142D01*
X00977819Y01511282D01*
X00978003Y01511358D01*
X00978102Y01511358D01*
X00979602Y01511358D01*
Y01511358D01*
X00979702Y01511358D01*
X00979885Y01511282D01*
X00980026Y01511141D01*
X00980102Y01510958D01*
X00980102Y01510858D01*
X00980102Y01508608D01*
Y01508608D01*
X00980112Y01508511D01*
X00980186Y01508330D01*
X00980324Y01508192D01*
X00980505Y01508118D01*
X00980602Y01508108D01*
X00982102D01*
Y01508108D01*
X00982200Y01508118D01*
X00982380Y01508192D01*
X00982518Y01508330D01*
X00982593Y01508511D01*
X00982602Y01508608D01*
X00982602Y01510858D01*
D01*
Y01510858D01*
Y01510858D01*
X00982602Y01510958D01*
X00982678Y01511142D01*
X00982819Y01511282D01*
X00983003Y01511358D01*
X00983102Y01511358D01*
X00984602Y01511358D01*
X00984602Y01511358D01*
X00984702Y01511358D01*
X00984885Y01511282D01*
X00985026Y01511141D01*
X00985102Y01510958D01*
X00985102Y01510858D01*
X00985102Y01508608D01*
Y01508608D01*
X00985112Y01508511D01*
X00985186Y01508330D01*
X00985324Y01508192D01*
X00985505Y01508118D01*
X00985602Y01508108D01*
X00987102D01*
X00987200Y01508118D01*
X00987380Y01508192D01*
X00987518Y01508330D01*
X00987593Y01508511D01*
X00987602Y01508608D01*
X00987602Y01510858D01*
D01*
Y01510858D01*
Y01510858D01*
X00987602Y01510958D01*
X00987678Y01511141D01*
X00987819Y01511282D01*
X00988003Y01511358D01*
X00988102Y01511358D01*
X00989602Y01511358D01*
Y01511358D01*
X00989702Y01511358D01*
X00989885Y01511282D01*
X00990026Y01511141D01*
X00990102Y01510958D01*
X00990102Y01510858D01*
X00990102Y01508608D01*
X00990102Y01508608D01*
X00990112Y01508511D01*
X00990186Y01508330D01*
X00990324Y01508192D01*
X00990505Y01508118D01*
X00990602Y01508108D01*
X00992102D01*
X00992200Y01508118D01*
X00992380Y01508192D01*
X00992518Y01508330D01*
X00992593Y01508511D01*
X00992602Y01508608D01*
X00992602Y01510858D01*
D01*
Y01510858D01*
Y01510858D01*
X00992602Y01510958D01*
X00992678Y01511141D01*
X00992819Y01511282D01*
X00993003Y01511358D01*
X00993102D01*
X00994602Y01511358D01*
X00994602Y01511358D01*
X00994702D01*
X00994885Y01511282D01*
X00995026Y01511141D01*
X00995102Y01510958D01*
X00995102Y01510858D01*
X00995102Y01508608D01*
X00995112Y01508511D01*
X00995186Y01508330D01*
X00995324Y01508192D01*
X00995505Y01508118D01*
X00995602Y01508108D01*
X00997102Y01508108D01*
X00997200Y01508118D01*
X00997380Y01508192D01*
X00997518Y01508330D01*
X00997593Y01508511D01*
X00997602Y01508608D01*
Y01510858D01*
X00997602D01*
Y01510958D01*
X00997678Y01511141D01*
X00997819Y01511282D01*
X00998003Y01511358D01*
X00998102Y01511358D01*
X00999602Y01511358D01*
X00999602Y01511358D01*
D02*
G37*
G36*
X01029005Y01511282D02*
X01029146Y01511141D01*
X01029222Y01510958D01*
X01029222Y01510858D01*
X01029222D01*
Y01507358D01*
X01029232Y01507261D01*
X01029306Y01507080D01*
X01029444Y01506942D01*
X01029625Y01506868D01*
X01029722Y01506858D01*
X01029722Y01506858D01*
X01033722Y01506858D01*
X01033822Y01506858D01*
X01034006Y01506782D01*
X01034146Y01506641D01*
X01034222Y01506458D01*
X01034222Y01506358D01*
X01034222Y01506358D01*
X01034222Y01504858D01*
X01034222Y01504759D01*
X01034146Y01504575D01*
X01034006Y01504434D01*
X01033822Y01504358D01*
X01033722Y01504358D01*
X01033722D01*
X01027222Y01504358D01*
X01027123Y01504358D01*
X01026939Y01504434D01*
X01026798Y01504575D01*
X01026722Y01504759D01*
X01026722Y01504858D01*
X01026722D01*
Y01510858D01*
Y01510958D01*
X01026798Y01511141D01*
X01026939Y01511282D01*
X01027123Y01511358D01*
X01027222Y01511358D01*
Y01511358D01*
X01028722Y01511358D01*
X01028822Y01511358D01*
X01029005Y01511282D01*
D02*
G37*
G36*
X01002426Y01680282D02*
X01002566Y01680141D01*
X01002642Y01679958D01*
X01002642Y01679858D01*
X01002642Y01679858D01*
X01002642Y01677108D01*
Y01677009D01*
X01002566Y01676825D01*
X01002425Y01676684D01*
X01002242Y01676608D01*
X01002142D01*
X01000602Y01676608D01*
X01000505Y01676599D01*
X01000324Y01676524D01*
X01000186Y01676386D01*
X01000112Y01676206D01*
X01000102Y01676108D01*
X01000102D01*
X01000102Y01673858D01*
Y01673759D01*
X01000026Y01673575D01*
X00999885Y01673434D01*
X00999702Y01673358D01*
X00999602D01*
Y01673358D01*
X00998102Y01673358D01*
X00998003Y01673358D01*
X00997819Y01673434D01*
X00997678Y01673575D01*
X00997602Y01673759D01*
Y01673858D01*
Y01676108D01*
X00997593Y01676206D01*
X00997518Y01676386D01*
X00997380Y01676524D01*
X00997200Y01676599D01*
X00997102Y01676608D01*
X00997102Y01676608D01*
X00995602Y01676608D01*
X00995505Y01676599D01*
X00995324Y01676524D01*
X00995186Y01676386D01*
X00995112Y01676206D01*
X00995102Y01676108D01*
X00995102Y01676108D01*
Y01673858D01*
X00995102Y01673759D01*
X00995026Y01673575D01*
X00994885Y01673434D01*
X00994702Y01673358D01*
X00993003D01*
X00992819Y01673434D01*
X00992678Y01673575D01*
X00992602Y01673759D01*
Y01673858D01*
Y01673858D01*
X00992602Y01676108D01*
X00992593Y01676206D01*
X00992518Y01676386D01*
X00992380Y01676524D01*
X00992200Y01676599D01*
X00992102Y01676608D01*
X00992102Y01676608D01*
X00990602Y01676608D01*
X00990505Y01676599D01*
X00990324Y01676524D01*
X00990186Y01676386D01*
X00990112Y01676206D01*
X00990102Y01676108D01*
Y01676108D01*
X00990102Y01673858D01*
X00990102Y01673759D01*
X00990026Y01673575D01*
X00989885Y01673434D01*
X00989702Y01673358D01*
X00989602Y01673358D01*
X00988003D01*
X00987819Y01673434D01*
X00987678Y01673575D01*
X00987602Y01673759D01*
Y01673858D01*
Y01673858D01*
X00987602Y01676108D01*
X00987593Y01676206D01*
X00987518Y01676386D01*
X00987380Y01676524D01*
X00987200Y01676599D01*
X00987102Y01676608D01*
Y01676608D01*
X00985602Y01676608D01*
X00985505Y01676599D01*
X00985324Y01676524D01*
X00985186Y01676386D01*
X00985112Y01676206D01*
X00985102Y01676108D01*
X00985102Y01676108D01*
X00985102Y01673858D01*
X00985102Y01673759D01*
X00985026Y01673575D01*
X00984885Y01673434D01*
X00984702Y01673358D01*
X00984602Y01673358D01*
X00984602D01*
X00983102Y01673358D01*
X00983003D01*
X00982819Y01673434D01*
X00982678Y01673575D01*
X00982602Y01673759D01*
Y01673858D01*
X00982602D01*
X00982602Y01676108D01*
X00982593Y01676206D01*
X00982518Y01676386D01*
X00982380Y01676524D01*
X00982200Y01676599D01*
X00982102Y01676608D01*
Y01676608D01*
X00980602Y01676608D01*
X00980505Y01676599D01*
X00980324Y01676524D01*
X00980186Y01676386D01*
X00980112Y01676206D01*
X00980102Y01676108D01*
Y01676108D01*
X00980102Y01673858D01*
X00980102Y01673759D01*
X00980026Y01673575D01*
X00979885Y01673434D01*
X00979702Y01673358D01*
X00979602Y01673358D01*
X00979602D01*
X00978102Y01673358D01*
X00978003D01*
X00977819Y01673434D01*
X00977678Y01673575D01*
X00977602Y01673759D01*
Y01673858D01*
X00977602D01*
X00977602Y01676108D01*
X00977593Y01676206D01*
X00977518Y01676386D01*
X00977380Y01676524D01*
X00977200Y01676599D01*
X00977102Y01676608D01*
Y01676608D01*
X00975602Y01676608D01*
X00975505Y01676599D01*
X00975324Y01676524D01*
X00975186Y01676386D01*
X00975112Y01676206D01*
X00975102Y01676108D01*
Y01676108D01*
X00975102Y01673858D01*
X00975102Y01673759D01*
X00975026Y01673575D01*
X00974885Y01673434D01*
X00974702Y01673358D01*
X00974602Y01673358D01*
X00974602D01*
X00973102Y01673358D01*
X00973003D01*
X00972819Y01673434D01*
X00972678Y01673575D01*
X00972602Y01673759D01*
Y01673858D01*
X00972602D01*
X00972602Y01676108D01*
X00972593Y01676206D01*
X00972518Y01676386D01*
X00972380Y01676524D01*
X00972200Y01676599D01*
X00972102Y01676608D01*
Y01676608D01*
X00970602Y01676608D01*
X00970505Y01676599D01*
X00970324Y01676524D01*
X00970186Y01676386D01*
X00970112Y01676206D01*
X00970102Y01676108D01*
Y01676108D01*
X00970102Y01673858D01*
X00970102Y01673759D01*
X00970026Y01673575D01*
X00969885Y01673434D01*
X00969702Y01673358D01*
X00969602Y01673358D01*
X00969602D01*
X00968102Y01673358D01*
X00968003D01*
X00967819Y01673434D01*
X00967678Y01673575D01*
X00967602Y01673759D01*
Y01673858D01*
X00967602Y01676108D01*
X00967593Y01676206D01*
X00967518Y01676386D01*
X00967380Y01676524D01*
X00967200Y01676599D01*
X00967102Y01676608D01*
Y01676608D01*
X00965463D01*
X00965279Y01676684D01*
X00965138Y01676825D01*
X00965062Y01677009D01*
Y01677108D01*
Y01677108D01*
X00965062Y01679858D01*
X00965062Y01679958D01*
X00965138Y01680141D01*
X00965279Y01680282D01*
X00965463Y01680358D01*
X00965562Y01680358D01*
X00965562Y01680358D01*
X01002142Y01680358D01*
X01002242Y01680358D01*
X01002426Y01680282D01*
D02*
G37*
G36*
X01034006D02*
X01034146Y01680141D01*
X01034222Y01679958D01*
X01034222Y01679858D01*
X01034222Y01678358D01*
X01034222D01*
Y01678259D01*
X01034146Y01678075D01*
X01034005Y01677934D01*
X01033822Y01677858D01*
X01033722D01*
X01029722Y01677858D01*
X01029722D01*
X01029625Y01677849D01*
X01029444Y01677774D01*
X01029306Y01677636D01*
X01029232Y01677456D01*
X01029222Y01677358D01*
X01029222Y01673858D01*
X01029222D01*
Y01673759D01*
X01029146Y01673575D01*
X01029005Y01673434D01*
X01028822Y01673358D01*
X01028722D01*
X01027222Y01673358D01*
X01027123Y01673358D01*
X01026939Y01673434D01*
X01026798Y01673575D01*
X01026722Y01673759D01*
X01026722Y01673858D01*
Y01679858D01*
X01026722Y01679958D01*
X01026798Y01680141D01*
X01026939Y01680282D01*
X01027123Y01680358D01*
X01027222Y01680358D01*
X01033722Y01680358D01*
X01033722Y01680358D01*
X01033822Y01680358D01*
X01034006Y01680282D01*
D02*
G37*
G36*
X00982446Y01707282D02*
X00982586Y01707141D01*
X00982662Y01706958D01*
X00982662Y01706858D01*
X00982662Y01688858D01*
X00982662Y01688858D01*
Y01688759D01*
X00982586Y01688575D01*
X00982445Y01688434D01*
X00982262Y01688358D01*
X00982162D01*
X00963972Y01688358D01*
X00963873D01*
X00963689Y01688434D01*
X00963548Y01688575D01*
X00963472Y01688759D01*
Y01688858D01*
Y01689358D01*
X00963472D01*
X00963463Y01689456D01*
X00963388Y01689636D01*
X00963250Y01689774D01*
X00963070Y01689849D01*
X00962972Y01689858D01*
X00960722Y01689858D01*
Y01689858D01*
X00960623D01*
X00960439Y01689934D01*
X00960298Y01690075D01*
X00960222Y01690259D01*
Y01690358D01*
X00960222Y01691858D01*
X00960222Y01691858D01*
X00960222Y01691958D01*
X00960298Y01692141D01*
X00960439Y01692282D01*
X00960623Y01692358D01*
X00960722Y01692358D01*
X00962972D01*
X00963070Y01692368D01*
X00963250Y01692442D01*
X00963388Y01692580D01*
X00963463Y01692761D01*
X00963472Y01692858D01*
X00963472Y01694358D01*
X00963472Y01694358D01*
X00963463Y01694456D01*
X00963388Y01694636D01*
X00963250Y01694774D01*
X00963070Y01694849D01*
X00962972Y01694858D01*
X00960722Y01694858D01*
X00960623D01*
X00960439Y01694934D01*
X00960298Y01695075D01*
X00960222Y01695259D01*
Y01695358D01*
X00960222Y01696858D01*
Y01696958D01*
X00960298Y01697141D01*
X00960439Y01697282D01*
X00960623Y01697358D01*
X00960722Y01697358D01*
X00962972D01*
X00963070Y01697368D01*
X00963250Y01697442D01*
X00963388Y01697580D01*
X00963463Y01697761D01*
X00963472Y01697858D01*
X00963472Y01699358D01*
X00963472Y01699358D01*
X00963463Y01699456D01*
X00963388Y01699636D01*
X00963250Y01699774D01*
X00963070Y01699849D01*
X00962972Y01699858D01*
X00960722D01*
X00960623Y01699858D01*
X00960439Y01699934D01*
X00960298Y01700075D01*
X00960222Y01700259D01*
X00960222Y01700358D01*
Y01701858D01*
X00960222D01*
Y01701958D01*
X00960298Y01702141D01*
X00960439Y01702282D01*
X00960623Y01702358D01*
X00960722D01*
X00962972Y01702358D01*
X00963070Y01702368D01*
X00963250Y01702442D01*
X00963388Y01702580D01*
X00963463Y01702761D01*
X00963472Y01702858D01*
X00963472Y01706858D01*
Y01706958D01*
X00963548Y01707141D01*
X00963689Y01707282D01*
X00963873Y01707358D01*
X00982162D01*
X00982262Y01707358D01*
X00982446Y01707282D01*
D02*
G37*
G36*
X00999602Y01722358D02*
X00999702Y01722358D01*
X00999885Y01722282D01*
X01000026Y01722141D01*
X01000102Y01721958D01*
X01000102Y01721858D01*
X01000102Y01719608D01*
X01000102D01*
X01000112Y01719511D01*
X01000186Y01719330D01*
X01000324Y01719192D01*
X01000505Y01719118D01*
X01000602Y01719108D01*
X01002142Y01719108D01*
Y01719108D01*
X01002242Y01719108D01*
X01002426Y01719032D01*
X01002566Y01718891D01*
X01002642Y01718708D01*
X01002642Y01718608D01*
X01002642Y01715858D01*
X01002642D01*
X01002642Y01715759D01*
X01002566Y01715575D01*
X01002426Y01715434D01*
X01002242Y01715358D01*
X01002142Y01715358D01*
X00965463D01*
X00965279Y01715434D01*
X00965138Y01715575D01*
X00965062Y01715759D01*
Y01715858D01*
Y01718608D01*
X00965062Y01718708D01*
X00965138Y01718891D01*
X00965279Y01719032D01*
X00965463Y01719108D01*
X00965562Y01719108D01*
X00967102Y01719108D01*
X00967102Y01719108D01*
X00967200Y01719118D01*
X00967380Y01719193D01*
X00967518Y01719330D01*
X00967593Y01719511D01*
X00967602Y01719608D01*
X00967602Y01721858D01*
X00967602Y01721958D01*
X00967678Y01722141D01*
X00967819Y01722282D01*
X00968003Y01722358D01*
X00968102Y01722358D01*
X00969602Y01722358D01*
X00969602Y01722358D01*
X00969702Y01722358D01*
X00969885Y01722282D01*
X00970026Y01722141D01*
X00970102Y01721958D01*
Y01721858D01*
X00970102Y01719608D01*
Y01719608D01*
X00970112Y01719511D01*
X00970186Y01719330D01*
X00970324Y01719192D01*
X00970505Y01719118D01*
X00970602Y01719108D01*
X00972102D01*
Y01719108D01*
X00972200Y01719118D01*
X00972380Y01719193D01*
X00972518Y01719330D01*
X00972593Y01719511D01*
X00972602Y01719608D01*
X00972602Y01721858D01*
X00972602D01*
X00972602Y01721958D01*
X00972678Y01722141D01*
X00972819Y01722282D01*
X00973003Y01722358D01*
X00973102Y01722358D01*
X00974602Y01722358D01*
Y01722358D01*
X00974702Y01722358D01*
X00974885Y01722282D01*
X00975026Y01722141D01*
X00975102Y01721958D01*
X00975102Y01721858D01*
X00975102Y01719608D01*
Y01719608D01*
X00975112Y01719511D01*
X00975186Y01719330D01*
X00975324Y01719192D01*
X00975505Y01719118D01*
X00975602Y01719108D01*
X00977102D01*
Y01719108D01*
X00977200Y01719118D01*
X00977380Y01719193D01*
X00977518Y01719330D01*
X00977593Y01719511D01*
X00977602Y01719608D01*
X00977602Y01721858D01*
D01*
Y01721858D01*
Y01721858D01*
X00977602Y01721958D01*
X00977678Y01722141D01*
X00977819Y01722282D01*
X00978003Y01722358D01*
X00978102Y01722358D01*
X00979602Y01722358D01*
Y01722358D01*
X00979702Y01722358D01*
X00979885Y01722282D01*
X00980026Y01722141D01*
X00980102Y01721958D01*
X00980102Y01721858D01*
X00980102Y01719608D01*
Y01719608D01*
X00980112Y01719511D01*
X00980186Y01719330D01*
X00980324Y01719192D01*
X00980505Y01719118D01*
X00980602Y01719108D01*
X00982102D01*
Y01719108D01*
X00982200Y01719118D01*
X00982380Y01719193D01*
X00982518Y01719330D01*
X00982593Y01719511D01*
X00982602Y01719608D01*
X00982602Y01721858D01*
D01*
Y01721858D01*
Y01721858D01*
X00982602Y01721958D01*
X00982678Y01722141D01*
X00982819Y01722282D01*
X00983003Y01722358D01*
X00983102Y01722358D01*
X00984602Y01722358D01*
X00984602Y01722358D01*
X00984702Y01722358D01*
X00984885Y01722282D01*
X00985026Y01722141D01*
X00985102Y01721958D01*
X00985102Y01721858D01*
X00985102Y01719608D01*
Y01719608D01*
X00985112Y01719511D01*
X00985186Y01719330D01*
X00985324Y01719192D01*
X00985505Y01719118D01*
X00985602Y01719108D01*
X00987102D01*
X00987200Y01719118D01*
X00987380Y01719192D01*
X00987518Y01719330D01*
X00987593Y01719511D01*
X00987602Y01719608D01*
X00987602Y01721858D01*
D01*
Y01721858D01*
Y01721858D01*
X00987602Y01721958D01*
X00987678Y01722141D01*
X00987819Y01722282D01*
X00988003Y01722358D01*
X00988102Y01722358D01*
X00989602Y01722358D01*
Y01722358D01*
X00989702Y01722358D01*
X00989885Y01722282D01*
X00990026Y01722141D01*
X00990102Y01721958D01*
X00990102Y01721858D01*
X00990102Y01719608D01*
X00990102Y01719608D01*
X00990112Y01719511D01*
X00990186Y01719330D01*
X00990324Y01719192D01*
X00990505Y01719118D01*
X00990602Y01719108D01*
X00992102D01*
X00992200Y01719118D01*
X00992380Y01719192D01*
X00992518Y01719330D01*
X00992593Y01719511D01*
X00992602Y01719608D01*
X00992602Y01721858D01*
D01*
Y01721858D01*
Y01721858D01*
X00992602Y01721958D01*
X00992678Y01722141D01*
X00992819Y01722282D01*
X00993003Y01722358D01*
X00993102D01*
X00994602Y01722358D01*
X00994602Y01722358D01*
X00994702D01*
X00994885Y01722282D01*
X00995026Y01722141D01*
X00995102Y01721958D01*
X00995102Y01721858D01*
X00995102Y01719608D01*
X00995112Y01719511D01*
X00995186Y01719330D01*
X00995324Y01719193D01*
X00995505Y01719118D01*
X00995602Y01719108D01*
X00997102Y01719108D01*
X00997200Y01719118D01*
X00997380Y01719192D01*
X00997518Y01719330D01*
X00997593Y01719511D01*
X00997602Y01719608D01*
Y01721858D01*
X00997602D01*
Y01721958D01*
X00997678Y01722141D01*
X00997819Y01722282D01*
X00998003Y01722358D01*
X00998102Y01722358D01*
X00999602Y01722358D01*
X00999602Y01722358D01*
D02*
G37*
G36*
X01029005Y01722282D02*
X01029146Y01722141D01*
X01029222Y01721958D01*
X01029222Y01721858D01*
X01029222D01*
Y01718358D01*
X01029232Y01718261D01*
X01029306Y01718080D01*
X01029444Y01717943D01*
X01029625Y01717868D01*
X01029722Y01717858D01*
X01029722Y01717858D01*
X01033722Y01717858D01*
X01033822Y01717858D01*
X01034006Y01717782D01*
X01034146Y01717641D01*
X01034222Y01717458D01*
X01034222Y01717358D01*
X01034222Y01717358D01*
X01034222Y01715858D01*
X01034222Y01715759D01*
X01034146Y01715575D01*
X01034006Y01715434D01*
X01033822Y01715358D01*
X01033722Y01715358D01*
X01033722D01*
X01027222Y01715358D01*
X01027123Y01715358D01*
X01026939Y01715434D01*
X01026798Y01715575D01*
X01026722Y01715759D01*
X01026722Y01715858D01*
X01026722D01*
Y01721858D01*
Y01721958D01*
X01026798Y01722141D01*
X01026939Y01722282D01*
X01027123Y01722358D01*
X01027222Y01722358D01*
Y01722358D01*
X01028722Y01722358D01*
X01028822Y01722358D01*
X01029005Y01722282D01*
D02*
G37*
%LPC*%
G36*
X00997102Y01086108D02*
D01*
X00997102D01*
X00997102D01*
D02*
G37*
G36*
X01228929Y01209729D02*
D01*
X01228929D01*
X01228929D01*
D02*
G37*
G36*
X00997102Y01297108D02*
D01*
X00997102D01*
X00997102D01*
D02*
G37*
G36*
Y01508108D02*
D01*
X00997102D01*
X00997102D01*
D02*
G37*
G36*
Y01719108D02*
D01*
X00997102D01*
X00997102D01*
D02*
G37*
%LPD*%
G54D25*
X00322326Y00186814D02*
Y00171579D01*
X00329944D01*
X00332483Y00174118D01*
Y00176657D01*
X00329944Y00179196D01*
X00322326D01*
X00329944D01*
X00332483Y00181735D01*
Y00184275D01*
X00329944Y00186814D01*
X00322326D01*
X00340100Y00171579D02*
X00345179D01*
X00347718Y00174118D01*
Y00179196D01*
X00345179Y00181735D01*
X00340100D01*
X00337561Y00179196D01*
Y00174118D01*
X00340100Y00171579D01*
X00355335Y00184275D02*
Y00181735D01*
X00352796D01*
X00357874D01*
X00355335D01*
Y00174118D01*
X00357874Y00171579D01*
X00368031Y00184275D02*
Y00181735D01*
X00365492D01*
X00370570D01*
X00368031D01*
Y00174118D01*
X00370570Y00171579D01*
X00380727D02*
X00385806D01*
X00388345Y00174118D01*
Y00179196D01*
X00385806Y00181735D01*
X00380727D01*
X00378188Y00179196D01*
Y00174118D01*
X00380727Y00171579D01*
X00393423D02*
Y00181735D01*
X00395962D01*
X00398501Y00179196D01*
Y00171579D01*
Y00179196D01*
X00401040Y00181735D01*
X00403580Y00179196D01*
Y00171579D01*
X00434050Y00184275D02*
X00431511Y00186814D01*
X00426432D01*
X00423893Y00184275D01*
Y00181735D01*
X00426432Y00179196D01*
X00431511D01*
X00434050Y00176657D01*
Y00174118D01*
X00431511Y00171579D01*
X00426432D01*
X00423893Y00174118D01*
X00441667Y00171579D02*
X00446746D01*
X00449285Y00174118D01*
Y00179196D01*
X00446746Y00181735D01*
X00441667D01*
X00439128Y00179196D01*
Y00174118D01*
X00441667Y00171579D01*
X00454363D02*
X00459442D01*
X00456903D01*
Y00186814D01*
X00454363D01*
X00477216D02*
Y00171579D01*
X00469598D01*
X00467059Y00174118D01*
Y00179196D01*
X00469598Y00181735D01*
X00477216D01*
X00489912Y00171579D02*
X00484833D01*
X00482294Y00174118D01*
Y00179196D01*
X00484833Y00181735D01*
X00489912D01*
X00492451Y00179196D01*
Y00176657D01*
X00482294D01*
X00497529Y00181735D02*
Y00171579D01*
Y00176657D01*
X00500069Y00179196D01*
X00502608Y00181735D01*
X00505147D01*
G54D81*
X00830518Y01202136D02*
D03*
X00820518D02*
D03*
X00839018D02*
D03*
X00849018D02*
D03*
X00830518Y01413136D02*
D03*
X00820518D02*
D03*
X00839018D02*
D03*
X00849018D02*
D03*
X00839018Y00991136D02*
D03*
X00849018D02*
D03*
X00830518D02*
D03*
X00820518D02*
D03*
Y01624136D02*
D03*
X00830518D02*
D03*
X00849018D02*
D03*
X00839018D02*
D03*
G54D120*
X01005198Y01817636D02*
D03*
X01021198D02*
D03*
X01363968Y01581636D02*
D03*
X01379968D02*
D03*
X01437968Y01582636D02*
D03*
X01453968D02*
D03*
X00866518Y01258386D02*
D03*
X00850518D02*
D03*
X00866518Y01469386D02*
D03*
X00850518D02*
D03*
X00866518Y01047386D02*
D03*
X00850518D02*
D03*
Y01680386D02*
D03*
X00866518D02*
D03*
G54D127*
X01638968Y01615636D02*
D03*
Y01599636D02*
D03*
X01024768Y01852636D02*
D03*
Y01868636D02*
D03*
X01413468Y01603636D02*
D03*
Y01587636D02*
D03*
X01446768Y01602636D02*
D03*
Y01618636D02*
D03*
X01428968Y01618636D02*
D03*
Y01634636D02*
D03*
X01413468Y01618636D02*
D03*
Y01634636D02*
D03*
X00748768Y01251636D02*
D03*
Y01235636D02*
D03*
Y01462636D02*
D03*
Y01446636D02*
D03*
Y01040636D02*
D03*
Y01024636D02*
D03*
Y01657636D02*
D03*
Y01673636D02*
D03*
G54D132*
X00820518Y01184886D02*
D03*
X00849518D02*
D03*
X00820518Y01395886D02*
D03*
X00849518D02*
D03*
X00820518Y00973886D02*
D03*
X00849518D02*
D03*
Y01606886D02*
D03*
X00820518D02*
D03*
G54D133*
X00871768Y01723636D02*
D03*
Y01735636D02*
D03*
X00818218Y01013786D02*
D03*
Y01001786D02*
D03*
X00989305Y01814636D02*
D03*
Y01802636D02*
D03*
X01007768Y01856636D02*
D03*
Y01868636D02*
D03*
X01294268Y01239636D02*
D03*
Y01227636D02*
D03*
X00981198Y01868636D02*
D03*
Y01856636D02*
D03*
X01320768Y01696636D02*
D03*
Y01684636D02*
D03*
X00991198Y01856636D02*
D03*
Y01868636D02*
D03*
X01228929Y01232636D02*
D03*
Y01244636D02*
D03*
X01239702Y01232636D02*
D03*
Y01244636D02*
D03*
X01136768Y01144635D02*
D03*
Y01132635D02*
D03*
X01147518Y01144636D02*
D03*
Y01132636D02*
D03*
X01273268Y01238636D02*
D03*
Y01226636D02*
D03*
X01283768Y01226636D02*
D03*
Y01238636D02*
D03*
X01262768Y01226636D02*
D03*
Y01238636D02*
D03*
X01252268Y01226636D02*
D03*
Y01238636D02*
D03*
X01124202Y01150635D02*
D03*
Y01138635D02*
D03*
X01113702D02*
D03*
Y01150635D02*
D03*
X01092702Y01138635D02*
D03*
Y01150635D02*
D03*
X01103202Y01150635D02*
D03*
Y01138635D02*
D03*
X01082202Y01158635D02*
D03*
Y01146635D02*
D03*
X00978625Y01319046D02*
D03*
Y01331046D02*
D03*
X00968125Y01319046D02*
D03*
Y01331046D02*
D03*
X00726018Y01224636D02*
D03*
Y01236636D02*
D03*
X01051375Y01326296D02*
D03*
Y01314296D02*
D03*
X01061875Y01326296D02*
D03*
Y01314296D02*
D03*
X01020625Y01326046D02*
D03*
Y01314046D02*
D03*
X00838018Y01247136D02*
D03*
Y01259136D02*
D03*
X00706768Y01213136D02*
D03*
Y01202136D02*
D03*
X00989305Y01319046D02*
D03*
Y01331046D02*
D03*
X00999875Y01319046D02*
D03*
Y01331046D02*
D03*
X00736268Y01236636D02*
D03*
Y01224636D02*
D03*
X01040875Y01314296D02*
D03*
Y01326296D02*
D03*
X00818218Y01212786D02*
D03*
Y01224786D02*
D03*
X00863518Y01212636D02*
D03*
Y01224636D02*
D03*
X00827518Y01259136D02*
D03*
Y01247136D02*
D03*
X01030625Y01326046D02*
D03*
Y01314046D02*
D03*
X00871768Y01301636D02*
D03*
Y01313636D02*
D03*
X00978625Y01530046D02*
D03*
Y01542046D02*
D03*
X00968125Y01530046D02*
D03*
Y01542046D02*
D03*
X00726018Y01435636D02*
D03*
Y01447636D02*
D03*
X01051375Y01537296D02*
D03*
Y01525296D02*
D03*
X01061875Y01537296D02*
D03*
Y01525296D02*
D03*
X01020625Y01537046D02*
D03*
Y01525046D02*
D03*
X00838018Y01458136D02*
D03*
Y01470136D02*
D03*
X00713768Y01446136D02*
D03*
Y01435136D02*
D03*
X00989305Y01530046D02*
D03*
Y01542046D02*
D03*
X00999875Y01530046D02*
D03*
Y01542046D02*
D03*
X00736268Y01447636D02*
D03*
Y01435636D02*
D03*
X01040875Y01525296D02*
D03*
Y01537296D02*
D03*
X00818218Y01423786D02*
D03*
Y01435786D02*
D03*
X00863518Y01423636D02*
D03*
Y01435636D02*
D03*
X00827518Y01470136D02*
D03*
Y01458136D02*
D03*
X01030625Y01537046D02*
D03*
Y01525046D02*
D03*
X00871768Y01512636D02*
D03*
Y01524636D02*
D03*
Y01090636D02*
D03*
Y01102636D02*
D03*
X01030625Y01115046D02*
D03*
Y01103046D02*
D03*
X00827518Y01048136D02*
D03*
Y01036136D02*
D03*
X00863518Y01001636D02*
D03*
Y01013636D02*
D03*
X01040875Y01103296D02*
D03*
Y01115296D02*
D03*
X00736268Y01025636D02*
D03*
Y01013636D02*
D03*
X00999875Y01108046D02*
D03*
Y01120046D02*
D03*
X00989305Y01108046D02*
D03*
Y01120046D02*
D03*
X00706768Y01002136D02*
D03*
Y00991136D02*
D03*
X00838018Y01036136D02*
D03*
Y01048136D02*
D03*
X01020625Y01115046D02*
D03*
Y01103046D02*
D03*
X01061875Y01108296D02*
D03*
Y01096296D02*
D03*
X01051375Y01115296D02*
D03*
Y01103296D02*
D03*
X00726018Y01013636D02*
D03*
Y01025636D02*
D03*
X00968125Y01108046D02*
D03*
Y01120046D02*
D03*
X00978625Y01108046D02*
D03*
Y01120046D02*
D03*
X00818218Y01634786D02*
D03*
Y01646786D02*
D03*
X01061875Y01748296D02*
D03*
Y01736296D02*
D03*
X01051375D02*
D03*
Y01748296D02*
D03*
X00999875Y01741046D02*
D03*
Y01753046D02*
D03*
X01030625Y01748046D02*
D03*
Y01736046D02*
D03*
X01020625Y01748046D02*
D03*
Y01736046D02*
D03*
X01040875Y01748296D02*
D03*
Y01736296D02*
D03*
X00978625Y01753046D02*
D03*
Y01741046D02*
D03*
X00989305Y01741046D02*
D03*
Y01753046D02*
D03*
X00968125Y01753046D02*
D03*
Y01741046D02*
D03*
X00838018Y01681136D02*
D03*
Y01669136D02*
D03*
X00726018Y01658636D02*
D03*
Y01646636D02*
D03*
X00863518D02*
D03*
Y01634636D02*
D03*
X00827518Y01669136D02*
D03*
Y01681136D02*
D03*
X00736268Y01646636D02*
D03*
Y01658636D02*
D03*
X00713768Y01646136D02*
D03*
Y01657136D02*
D03*
G54D140*
X02655768Y02350636D02*
D03*
X00705768Y02397636D02*
D03*
X00815768Y00909636D02*
D03*
G54D144*
X01280202Y01209417D02*
D03*
X01292202D02*
D03*
X01280268Y01199136D02*
D03*
X01292268D02*
D03*
X01292268Y01188636D02*
D03*
X01280268D02*
D03*
X01292268Y01178386D02*
D03*
X01280268D02*
D03*
Y01168028D02*
D03*
X01292268D02*
D03*
X01084202Y01178135D02*
D03*
X01096202D02*
D03*
X01084202Y01209243D02*
D03*
X01096202D02*
D03*
X01096202Y01188635D02*
D03*
X01084202D02*
D03*
X01084202Y01198885D02*
D03*
X01096202D02*
D03*
X01096268Y01167855D02*
D03*
X01084268D02*
D03*
X01060375Y01265796D02*
D03*
X01048375D02*
D03*
X01060375Y01286295D02*
D03*
X01048375D02*
D03*
X01060375Y01296796D02*
D03*
X01048375D02*
D03*
X00777768Y01237636D02*
D03*
X00765768D02*
D03*
X00777768Y01258636D02*
D03*
X00765768D02*
D03*
X01048375Y01276046D02*
D03*
X01060375D02*
D03*
X00765768Y01247636D02*
D03*
X00777768D02*
D03*
X00765768Y01268636D02*
D03*
X00777768D02*
D03*
X00789768Y01279636D02*
D03*
X00777768D02*
D03*
X01060375Y01255295D02*
D03*
X01048375D02*
D03*
X01060375Y01476796D02*
D03*
X01048375D02*
D03*
X01060375Y01497296D02*
D03*
X01048375D02*
D03*
X01060375Y01507796D02*
D03*
X01048375D02*
D03*
X00777768Y01448636D02*
D03*
X00765768D02*
D03*
X00777768Y01469636D02*
D03*
X00765768D02*
D03*
X01048375Y01487046D02*
D03*
X01060375D02*
D03*
X00765768Y01458636D02*
D03*
X00777768D02*
D03*
X00765768Y01479636D02*
D03*
X00777768D02*
D03*
X00789768Y01490636D02*
D03*
X00777768D02*
D03*
X01060375Y01466295D02*
D03*
X01048375D02*
D03*
X01060375Y01044296D02*
D03*
X01048375D02*
D03*
X00789768Y01068636D02*
D03*
X00777768D02*
D03*
X00765768Y01057636D02*
D03*
X00777768D02*
D03*
X00765768Y01036636D02*
D03*
X00777768D02*
D03*
X01048375Y01065045D02*
D03*
X01060375D02*
D03*
X00777768Y01047636D02*
D03*
X00765768D02*
D03*
X00777768Y01026636D02*
D03*
X00765768D02*
D03*
X01060375Y01085796D02*
D03*
X01048375D02*
D03*
X01060375Y01075295D02*
D03*
X01048375D02*
D03*
X01060375Y01054796D02*
D03*
X01048375D02*
D03*
X01060375Y01687796D02*
D03*
X01048375D02*
D03*
X01060375Y01718795D02*
D03*
X01048375D02*
D03*
X01060375Y01677296D02*
D03*
X01048375D02*
D03*
X01060375Y01698046D02*
D03*
X01048375D02*
D03*
X01048375Y01708295D02*
D03*
X01060375D02*
D03*
X00765768Y01680636D02*
D03*
X00777768D02*
D03*
X00765768Y01659636D02*
D03*
X00777768D02*
D03*
Y01701636D02*
D03*
X00789768D02*
D03*
X00777768Y01669636D02*
D03*
X00765768D02*
D03*
X00777768Y01690636D02*
D03*
X00765768D02*
D03*
G54D170*
X00790268Y01263886D02*
D03*
Y01250886D02*
D03*
X00812768D02*
D03*
Y01257386D02*
D03*
Y01263886D02*
D03*
X00790268Y01474886D02*
D03*
Y01461886D02*
D03*
X00812768D02*
D03*
Y01468386D02*
D03*
Y01474886D02*
D03*
X00790268Y01052886D02*
D03*
Y01039886D02*
D03*
X00812768D02*
D03*
Y01046386D02*
D03*
Y01052886D02*
D03*
Y01685886D02*
D03*
Y01679386D02*
D03*
Y01672886D02*
D03*
X00790268D02*
D03*
Y01685886D02*
D03*
G54D172*
X00823268Y02617136D02*
D03*
X00923268D02*
D03*
Y02397136D02*
D03*
X01235768Y02637136D02*
D03*
Y02737136D02*
D03*
X01455768D02*
D03*
G54D173*
X00823268Y02397136D02*
D03*
G54D174*
X02605768Y00679636D02*
D03*
X01145768Y00689636D02*
D03*
X00985768D02*
D03*
X02465768Y00679636D02*
D03*
X02325768D02*
D03*
X02185768D02*
D03*
G54D175*
X02554968Y00616036D02*
D03*
Y00717636D02*
D03*
X02656568Y00616036D02*
D03*
Y00717636D02*
D03*
X01196568Y00727636D02*
D03*
Y00626036D02*
D03*
X01094968Y00727636D02*
D03*
Y00626036D02*
D03*
X01036568Y00727636D02*
D03*
Y00626036D02*
D03*
X00934968Y00727636D02*
D03*
Y00626036D02*
D03*
X02516568Y00717636D02*
D03*
Y00616036D02*
D03*
X02414968Y00717636D02*
D03*
Y00616036D02*
D03*
X00493768Y01039201D02*
D03*
X00392168D02*
D03*
X00493768Y01140801D02*
D03*
X00392168D02*
D03*
X00493768Y00908836D02*
D03*
X00392168D02*
D03*
X00493768Y01010436D02*
D03*
X00392168D02*
D03*
X00493768Y01298836D02*
D03*
X00392168D02*
D03*
X00493768Y01400436D02*
D03*
X00392168D02*
D03*
X00493768Y01168836D02*
D03*
X00392168D02*
D03*
X00493768Y01270436D02*
D03*
X00392168D02*
D03*
X00493768Y01558836D02*
D03*
X00392168D02*
D03*
X00493768Y01660436D02*
D03*
X00392168D02*
D03*
X00493768Y01428836D02*
D03*
X00392168D02*
D03*
X00493768Y01530436D02*
D03*
X00392168D02*
D03*
X00493768Y01818836D02*
D03*
X00392168D02*
D03*
X00493768Y01920436D02*
D03*
X00392168D02*
D03*
X00493768Y01688836D02*
D03*
X00392168D02*
D03*
X00493768Y01790436D02*
D03*
X00392168D02*
D03*
X00493768Y02118836D02*
D03*
X00392168D02*
D03*
X00493768Y02220436D02*
D03*
X00392168D02*
D03*
X00493768Y02418836D02*
D03*
X00392168D02*
D03*
X00493768Y02520436D02*
D03*
X00392168D02*
D03*
X00493768Y02268836D02*
D03*
X00392168D02*
D03*
X00493768Y02370436D02*
D03*
X00392168D02*
D03*
X02376568Y00717636D02*
D03*
Y00616036D02*
D03*
X02274968Y00717636D02*
D03*
Y00616036D02*
D03*
X02236568Y00717636D02*
D03*
Y00616036D02*
D03*
X02134968Y00717636D02*
D03*
Y00616036D02*
D03*
G54D176*
X01155768Y01574636D02*
D03*
X02551918Y01936936D02*
D03*
X02010373Y01906436D02*
D03*
G54D177*
X01155768Y01649636D02*
D03*
X02551918Y01962336D02*
D03*
X02010373Y01931836D02*
D03*
G54D178*
X00730018Y01150886D02*
D03*
Y01361886D02*
D03*
Y01572886D02*
D03*
Y01783886D02*
D03*
X01698268Y02804636D02*
D03*
Y02879636D02*
D03*
X00798897Y02857136D02*
D03*
Y02782136D02*
D03*
X01485768Y02804636D02*
D03*
Y02879636D02*
D03*
X00715768Y02797136D02*
D03*
Y02722136D02*
D03*
G54D179*
X00730018Y01100886D02*
D03*
Y01311886D02*
D03*
Y01522886D02*
D03*
Y01733886D02*
D03*
G54D180*
X00724018Y02143336D02*
D03*
G54D181*
Y02194136D02*
D03*
Y02244936D02*
D03*
G54D182*
X01378268Y02002136D02*
D03*
X01200694Y01934636D02*
D03*
X01418268Y02002136D02*
D03*
X01125768Y01947136D02*
D03*
X02655768Y01427136D02*
D03*
Y01459636D02*
D03*
Y01492136D02*
D03*
X02325768Y00819636D02*
D03*
X02605768D02*
D03*
X02655768Y01222136D02*
D03*
X01588268Y00849636D02*
D03*
X01858268D02*
D03*
X01793268D02*
D03*
X01825768D02*
D03*
X01523268D02*
D03*
X01555768D02*
D03*
X02655768Y01157136D02*
D03*
Y01189636D02*
D03*
X00595768Y01089636D02*
D03*
Y00959636D02*
D03*
Y01349636D02*
D03*
Y01219636D02*
D03*
Y01609636D02*
D03*
Y01479636D02*
D03*
Y01869636D02*
D03*
Y01739636D02*
D03*
Y02119636D02*
D03*
Y02469636D02*
D03*
Y02219636D02*
D03*
X00985768Y00819636D02*
D03*
X02465768D02*
D03*
X01145768D02*
D03*
X02185768D02*
D03*
X02420768Y01784636D02*
D03*
X02060768Y00929636D02*
D03*
X01152768Y01472636D02*
D03*
X01116268Y01510372D02*
D03*
X01147768Y01510636D02*
D03*
X01944768Y01862567D02*
D03*
Y01895496D02*
D03*
X01180768Y00948636D02*
D03*
X02073768Y01244636D02*
D03*
X02230768Y01672136D02*
D03*
X02640768Y02145636D02*
D03*
X02073768Y01168636D02*
D03*
X02335768Y01744636D02*
D03*
X02420768D02*
D03*
X02335768Y01784636D02*
D03*
Y01824636D02*
D03*
X02420768D02*
D03*
X02335768Y01859636D02*
D03*
X02420768D02*
D03*
X02133018Y01918196D02*
D03*
X00880768Y02139636D02*
D03*
X01210018Y02138836D02*
D03*
X02129209Y01884697D02*
D03*
X00880045Y02259636D02*
D03*
X01259831Y02118995D02*
D03*
X01297796Y02116770D02*
D03*
X01975768Y01918636D02*
D03*
X01355768Y02279636D02*
D03*
X01794412Y02101000D02*
D03*
X01457843Y02196101D02*
D03*
X01444768Y01736636D02*
D03*
X00782768Y00928636D02*
D03*
G54D183*
X00455768Y01090001D02*
D03*
Y00959636D02*
D03*
Y01349636D02*
D03*
Y01219636D02*
D03*
Y01609636D02*
D03*
Y01479636D02*
D03*
Y01869636D02*
D03*
Y01739636D02*
D03*
Y02169636D02*
D03*
Y02469636D02*
D03*
Y02319636D02*
D03*
G54D184*
X01691194Y00784636D02*
D03*
X01961194D02*
D03*
X01421194D02*
D03*
G54D185*
X01995768Y02447136D02*
D03*
X02550768Y02017136D02*
D03*
X00966617Y02307136D02*
D03*
G54D186*
X00923268Y02397136D02*
D03*
X00823268D02*
D03*
Y02617136D02*
D03*
X00923268D02*
D03*
X01455768Y02637136D02*
D03*
Y02737136D02*
D03*
X01235768Y02637136D02*
D03*
Y02737136D02*
D03*
G54D187*
X01528768Y01590636D02*
D03*
X02620768Y02429636D02*
D03*
Y02829636D02*
D03*
X02630768Y00934636D02*
D03*
X00720768Y02844636D02*
D03*
X01593268D02*
D03*
X00720768Y01984636D02*
D03*
X02127852Y02629636D02*
D03*
X01410439Y02428105D02*
D03*
X01887589Y02237522D02*
D03*
X01880768Y01844636D02*
D03*
X00720768Y00934636D02*
D03*
G54D188*
X01274768Y01514636D02*
D03*
G54D189*
Y01439636D02*
D03*
Y01364636D02*
D03*
Y01289636D02*
D03*
Y01139636D02*
D03*
Y01064636D02*
D03*
Y00989636D02*
D03*
Y00914636D02*
D03*
X02014768Y01064636D02*
D03*
Y01139636D02*
D03*
Y01289636D02*
D03*
Y01364636D02*
D03*
G54D190*
X02550768Y02292136D02*
D03*
X00803268Y02079636D02*
D03*
X00966617Y02232136D02*
D03*
X00878268Y01999636D02*
D03*
X01763268Y02819636D02*
D03*
X00863268Y02824636D02*
D03*
X01995768Y02722136D02*
D03*
G54D191*
X01588268Y02689036D02*
D03*
Y02638636D02*
D03*
Y02588236D02*
D03*
X01513268Y02435636D02*
D03*
Y02588236D02*
D03*
Y02638636D02*
D03*
Y02689036D02*
D03*
G54D192*
X01588268Y02435636D02*
D03*
G54D193*
X00878268Y02079636D02*
D03*
X00803268Y01999636D02*
D03*
X02038268Y02819636D02*
D03*
X01088268Y02824636D02*
D03*
G54D194*
X01655768Y02639636D02*
D03*
G54D195*
Y02689636D02*
D03*
G54D196*
X01177694Y02018636D02*
D03*
G54D197*
X01237694Y01990636D02*
D03*
G54D198*
X01200694Y01965636D02*
D03*
G54D199*
X02125768Y02429636D02*
D03*
G54D200*
Y02829636D02*
D03*
G54D201*
X02620768Y02429636D02*
D03*
Y02829636D02*
D03*
G54D202*
X01455768Y02637136D02*
D03*
G54D203*
X01421194Y00684636D02*
D03*
X01961194D02*
D03*
X01691194D02*
D03*
G54D204*
X01279768Y01580936D02*
D03*
X01310768D02*
D03*
G54D205*
X01279768Y01606336D02*
D03*
X01310768D02*
D03*
G54D206*
X00840768Y01282636D02*
D03*
Y01493636D02*
D03*
Y01071636D02*
D03*
Y01704636D02*
D03*
G54D207*
X01005868Y01230336D02*
D03*
Y01441336D02*
D03*
Y01019336D02*
D03*
Y01652336D02*
D03*
G54D208*
X00729768Y01206636D02*
D03*
Y01417636D02*
D03*
Y00995636D02*
D03*
Y01628636D02*
D03*
G54D209*
Y01256636D02*
D03*
Y01467636D02*
D03*
Y01045636D02*
D03*
Y01678636D02*
D03*
G54D210*
X01419699Y01837856D02*
D03*
X00838699D02*
D03*
G54D211*
X01396199Y01852855D02*
D03*
X00862198Y01837856D02*
D03*
G54D212*
X01381468Y01621636D02*
D03*
Y01608636D02*
D03*
Y01595636D02*
D03*
X01394468Y01621636D02*
D03*
Y01608636D02*
D03*
Y01595636D02*
D03*
G54D213*
X01336768Y01694136D02*
D03*
Y01683136D02*
D03*
X01867241Y02081265D02*
D03*
Y02070265D02*
D03*
G54D233*
X01558268Y01590636D02*
G03*
X01558268Y01590636I-00029500J00000000D01*
G01*
X02650268Y02429636D02*
G03*
X02650268Y02429636I-00029500J00000000D01*
G01*
Y02829636D02*
G03*
X02650268Y02829636I-00029500J00000000D01*
G01*
X02660268Y00934636D02*
G03*
X02660268Y00934636I-00029500J00000000D01*
G01*
X00750268Y02844636D02*
G03*
X00750268Y02844636I-00029500J00000000D01*
G01*
X01622768D02*
G03*
X01622768Y02844636I-00029500J00000000D01*
G01*
X00750268Y01984636D02*
G03*
X00750268Y01984636I-00029500J00000000D01*
G01*
X02157352Y02629636D02*
G03*
X02157352Y02629636I-00029500J00000000D01*
G01*
X01439939Y02428105D02*
G03*
X01439939Y02428105I-00029500J00000000D01*
G01*
X01917089Y02237522D02*
G03*
X01917089Y02237522I-00029500J00000000D01*
G01*
X01910268Y01844636D02*
G03*
X01910268Y01844636I-00029500J00000000D01*
G01*
X00750268Y00934636D02*
G03*
X00750268Y00934636I-00029500J00000000D01*
G01*
G54D234*
X02217918Y02401886D02*
D03*
X02224418D02*
D03*
X02230918D02*
D03*
X02237418D02*
D03*
X02243918D02*
D03*
X02250418D02*
D03*
X02256918D02*
D03*
X02263418D02*
D03*
X02269918D02*
D03*
X01926375Y01612136D02*
D03*
X01919875D02*
D03*
X01913375D02*
D03*
X01906875D02*
D03*
X01900375D02*
D03*
X01893875D02*
D03*
X01887375D02*
D03*
X01880875D02*
D03*
X01874375D02*
D03*
Y01497636D02*
D03*
X01880875D02*
D03*
X01887375D02*
D03*
X01893875D02*
D03*
X01900375D02*
D03*
X01906875D02*
D03*
X01913375D02*
D03*
X01919875D02*
D03*
X01926375D02*
D03*
X02068875Y01612136D02*
D03*
X02062375D02*
D03*
X02055875D02*
D03*
X02049375D02*
D03*
X02042875D02*
D03*
X02036375D02*
D03*
X02029875D02*
D03*
X02023375D02*
D03*
X02016875D02*
D03*
Y01497636D02*
D03*
X02023375D02*
D03*
X02029875D02*
D03*
X02036375D02*
D03*
X02042875D02*
D03*
X02049375D02*
D03*
X02055875D02*
D03*
X02062375D02*
D03*
X02068875D02*
D03*
X02077918Y02287386D02*
D03*
X02084418D02*
D03*
X02090918D02*
D03*
X02097418D02*
D03*
X02103918D02*
D03*
X02110418D02*
D03*
X02116918D02*
D03*
X02123418D02*
D03*
X02129918D02*
D03*
Y02401886D02*
D03*
X02123418D02*
D03*
X02116918D02*
D03*
X02110418D02*
D03*
X02103918D02*
D03*
X02097418D02*
D03*
X02090918D02*
D03*
X02084418D02*
D03*
X02077918D02*
D03*
X02217918Y02287386D02*
D03*
X02224418D02*
D03*
X02230918D02*
D03*
X02237418D02*
D03*
X02243918D02*
D03*
X02250418D02*
D03*
X02256918D02*
D03*
X02263418D02*
D03*
X02269918D02*
D03*
G54D235*
X02288018Y02386886D02*
D03*
Y02380386D02*
D03*
Y02373886D02*
D03*
Y02367386D02*
D03*
Y02360886D02*
D03*
Y02354386D02*
D03*
Y02347886D02*
D03*
Y02341386D02*
D03*
Y02334886D02*
D03*
Y02328386D02*
D03*
Y02321886D02*
D03*
Y02315386D02*
D03*
X01856275Y01597136D02*
D03*
Y01590636D02*
D03*
Y01584136D02*
D03*
Y01577636D02*
D03*
Y01571136D02*
D03*
Y01564636D02*
D03*
Y01558136D02*
D03*
Y01551636D02*
D03*
Y01545136D02*
D03*
Y01538636D02*
D03*
Y01532136D02*
D03*
Y01525636D02*
D03*
Y01519136D02*
D03*
Y01512636D02*
D03*
X01970775D02*
D03*
Y01519136D02*
D03*
Y01525636D02*
D03*
Y01532136D02*
D03*
Y01538636D02*
D03*
Y01545136D02*
D03*
Y01551636D02*
D03*
Y01558136D02*
D03*
Y01564636D02*
D03*
Y01571136D02*
D03*
Y01577636D02*
D03*
Y01584136D02*
D03*
Y01590636D02*
D03*
Y01597136D02*
D03*
X01998775D02*
D03*
Y01590636D02*
D03*
Y01584136D02*
D03*
Y01577636D02*
D03*
Y01571136D02*
D03*
Y01564636D02*
D03*
Y01558136D02*
D03*
Y01551636D02*
D03*
Y01545136D02*
D03*
Y01538636D02*
D03*
Y01532136D02*
D03*
Y01525636D02*
D03*
Y01519136D02*
D03*
Y01512636D02*
D03*
X02113275D02*
D03*
Y01519136D02*
D03*
Y01525636D02*
D03*
Y01532136D02*
D03*
Y01538636D02*
D03*
Y01545136D02*
D03*
Y01551636D02*
D03*
Y01558136D02*
D03*
Y01564636D02*
D03*
Y01571136D02*
D03*
Y01577636D02*
D03*
Y01584136D02*
D03*
Y01590636D02*
D03*
Y01597136D02*
D03*
X02148018Y02302386D02*
D03*
Y02308886D02*
D03*
Y02315386D02*
D03*
Y02321886D02*
D03*
Y02328386D02*
D03*
Y02334886D02*
D03*
Y02341386D02*
D03*
Y02347886D02*
D03*
Y02354386D02*
D03*
Y02360886D02*
D03*
Y02367386D02*
D03*
Y02373886D02*
D03*
Y02380386D02*
D03*
Y02386886D02*
D03*
X02033518D02*
D03*
Y02380386D02*
D03*
Y02373886D02*
D03*
Y02367386D02*
D03*
Y02360886D02*
D03*
Y02354386D02*
D03*
Y02347886D02*
D03*
Y02341386D02*
D03*
Y02334886D02*
D03*
Y02328386D02*
D03*
Y02321886D02*
D03*
Y02315386D02*
D03*
Y02308886D02*
D03*
Y02302386D02*
D03*
X02288018D02*
D03*
Y02308886D02*
D03*
X02173518Y02386886D02*
D03*
Y02380386D02*
D03*
Y02373886D02*
D03*
Y02367386D02*
D03*
Y02360886D02*
D03*
Y02354386D02*
D03*
Y02347886D02*
D03*
Y02341386D02*
D03*
Y02334886D02*
D03*
Y02328386D02*
D03*
Y02321886D02*
D03*
Y02315386D02*
D03*
Y02308886D02*
D03*
Y02302386D02*
D03*
G54D236*
X01933955Y01612136D02*
D03*
X01933955Y01497636D02*
D03*
X02076455Y01612136D02*
D03*
X02076455Y01497636D02*
D03*
X02070338Y02287386D02*
D03*
X02070338Y02401886D02*
D03*
X02210338Y02287386D02*
D03*
X02210338Y02401886D02*
D03*
G54D237*
X01856275Y01606886D02*
D03*
Y01502886D02*
D03*
X01970775D02*
D03*
Y01606886D02*
D03*
X01998775D02*
D03*
Y01502886D02*
D03*
X02113275D02*
D03*
Y01606886D02*
D03*
X02148018Y02292636D02*
D03*
Y02396636D02*
D03*
X02033518D02*
D03*
Y02292636D02*
D03*
X02288018D02*
D03*
Y02396636D02*
D03*
X02173518D02*
D03*
Y02292636D02*
D03*
G54D240*
X01215702Y01168792D02*
D03*
X01160768Y01169104D02*
D03*
X01160768Y01208479D02*
D03*
X01215702Y01208167D02*
D03*
X00983875Y01295546D02*
D03*
X00983875Y01256171D02*
D03*
X00983875Y01506546D02*
D03*
X00983875Y01467171D02*
D03*
X00983875Y01084546D02*
D03*
X00983875Y01045171D02*
D03*
Y01678171D02*
D03*
X00983875Y01717546D02*
D03*
G54D241*
X01015572Y01129136D02*
D03*
X01030372D02*
D03*
G54D242*
X01171952Y01189386D02*
D03*
X01204518Y01187886D02*
D03*
X00972691Y01275265D02*
D03*
Y01486264D02*
D03*
Y01064264D02*
D03*
Y01697264D02*
D03*
G54D243*
X01147101Y01188792D02*
D03*
X01229369Y01188479D02*
D03*
X00997542Y01275858D02*
D03*
Y01486858D02*
D03*
Y01064858D02*
D03*
Y01697858D02*
D03*
G54D244*
X01127570Y01191042D02*
D03*
X01248899Y01186229D02*
D03*
X01017072Y01273608D02*
D03*
Y01484608D02*
D03*
Y01062608D02*
D03*
Y01695608D02*
D03*
G54D245*
X01113921Y01180542D02*
D03*
Y01185542D02*
D03*
Y01190542D02*
D03*
Y01195542D02*
D03*
Y01200542D02*
D03*
X01262549Y01196729D02*
D03*
Y01191729D02*
D03*
Y01186729D02*
D03*
Y01181729D02*
D03*
Y01176729D02*
D03*
X01030722Y01284108D02*
D03*
Y01279108D02*
D03*
Y01274108D02*
D03*
Y01269108D02*
D03*
Y01264108D02*
D03*
Y01495108D02*
D03*
Y01490108D02*
D03*
Y01485108D02*
D03*
Y01480108D02*
D03*
Y01475108D02*
D03*
Y01073108D02*
D03*
Y01068108D02*
D03*
Y01063108D02*
D03*
Y01058108D02*
D03*
Y01053108D02*
D03*
Y01686108D02*
D03*
Y01691108D02*
D03*
Y01696108D02*
D03*
Y01701108D02*
D03*
Y01706108D02*
D03*
G54D246*
X01121671Y01167792D02*
D03*
X01126671D02*
D03*
X01131671D02*
D03*
X01121671Y01209792D02*
D03*
X01126671D02*
D03*
X01131671D02*
D03*
X01254799Y01209479D02*
D03*
X01249799D02*
D03*
X01244799D02*
D03*
X01254799Y01167479D02*
D03*
X01249799D02*
D03*
X01244799D02*
D03*
X01022972Y01296858D02*
D03*
X01017972D02*
D03*
X01012972D02*
D03*
X01022972Y01254858D02*
D03*
X01017972D02*
D03*
X01012972D02*
D03*
X01022972Y01507858D02*
D03*
X01017972D02*
D03*
X01012972D02*
D03*
X01022972Y01465858D02*
D03*
X01017972D02*
D03*
X01012972D02*
D03*
X01022972Y01085858D02*
D03*
X01017972D02*
D03*
X01012972D02*
D03*
X01022972Y01043858D02*
D03*
X01017972D02*
D03*
X01012972D02*
D03*
Y01676858D02*
D03*
X01017972D02*
D03*
X01022972D02*
D03*
X01012972Y01718858D02*
D03*
X01017972D02*
D03*
X01022972D02*
D03*
G54D247*
X01116171Y01169542D02*
D03*
Y01208042D02*
D03*
X01260299Y01207729D02*
D03*
Y01169229D02*
D03*
X01028472Y01295108D02*
D03*
Y01256608D02*
D03*
Y01506108D02*
D03*
Y01467608D02*
D03*
Y01084108D02*
D03*
Y01045608D02*
D03*
Y01678608D02*
D03*
Y01717108D02*
D03*
G54D248*
X00852018Y01227786D02*
D03*
Y01221286D02*
D03*
Y01214786D02*
D03*
X00830018D02*
D03*
Y01221286D02*
D03*
Y01227786D02*
D03*
X00852018Y01438786D02*
D03*
Y01432286D02*
D03*
Y01425786D02*
D03*
X00830018D02*
D03*
Y01432286D02*
D03*
Y01438786D02*
D03*
X00852018Y01016786D02*
D03*
Y01010286D02*
D03*
Y01003786D02*
D03*
X00830018D02*
D03*
Y01010286D02*
D03*
Y01016786D02*
D03*
X00852018Y01649786D02*
D03*
Y01643286D02*
D03*
Y01636786D02*
D03*
X00830018D02*
D03*
Y01643286D02*
D03*
Y01649786D02*
D03*
G54D252*
X00783468Y01203986D02*
D03*
Y01414986D02*
D03*
Y00992986D02*
D03*
Y01625986D02*
D03*
G54D253*
X00767668Y01227711D02*
D03*
Y01180261D02*
D03*
Y01438711D02*
D03*
Y01391261D02*
D03*
Y01016711D02*
D03*
Y00969261D02*
D03*
Y01602261D02*
D03*
Y01649711D02*
D03*
G54D254*
X01187595Y01188705D02*
D03*
G54D255*
X00767668Y01183286D02*
D03*
Y01224686D02*
D03*
Y01394286D02*
D03*
Y01435686D02*
D03*
Y00972286D02*
D03*
Y01013686D02*
D03*
X00767669Y01646686D02*
D03*
Y01605286D02*
D03*
G54D256*
X01162768Y01240886D02*
D03*
X01210679Y01135635D02*
D03*
G54D257*
X00747768Y01184936D02*
D03*
Y01197636D02*
D03*
Y01210336D02*
D03*
Y01223036D02*
D03*
X00804168D02*
D03*
Y01210336D02*
D03*
Y01197636D02*
D03*
Y01184936D02*
D03*
X00747768Y01395936D02*
D03*
Y01408636D02*
D03*
Y01421336D02*
D03*
Y01434036D02*
D03*
X00804168D02*
D03*
Y01421336D02*
D03*
Y01408636D02*
D03*
Y01395936D02*
D03*
X00747768Y00973936D02*
D03*
Y00986636D02*
D03*
Y00999336D02*
D03*
Y01012036D02*
D03*
X00804168D02*
D03*
Y00999336D02*
D03*
Y00986636D02*
D03*
Y00973936D02*
D03*
Y01606936D02*
D03*
Y01619636D02*
D03*
Y01632336D02*
D03*
Y01645036D02*
D03*
X00747768D02*
D03*
Y01632336D02*
D03*
Y01619636D02*
D03*
Y01606936D02*
D03*
M02*
