G04*
G04 #@! TF.GenerationSoftware,Altium Limited,Altium Designer,24.3.1 (35)*
G04*
G04 Layer_Color=8454143*
%FSAX44Y44*%
%MOMM*%
G71*
G04*
G04 #@! TF.SameCoordinates,E5C3A734-9551-4337-A472-1AACCBF89162*
G04*
G04*
G04 #@! TF.FilePolarity,Positive*
G04*
G01*
G75*
%ADD17C,0.2540*%
%ADD18C,0.3810*%
%ADD25C,0.2032*%
%ADD262C,0.0254*%
G54D17*
X03885453Y03730106D02*
Y03714871D01*
X03895610D01*
X03903227Y03725028D02*
X03908306D01*
X03910845Y03722488D01*
Y03714871D01*
X03903227D01*
X03900688Y03717410D01*
X03903227Y03719949D01*
X03910845D01*
X03915923Y03725028D02*
Y03717410D01*
X03918462Y03714871D01*
X03926080D01*
Y03712332D01*
X03923541Y03709793D01*
X03921002D01*
X03926080Y03714871D02*
Y03725028D01*
X03938776Y03714871D02*
X03933698D01*
X03931158Y03717410D01*
Y03722488D01*
X03933698Y03725028D01*
X03938776D01*
X03941315Y03722488D01*
Y03719949D01*
X03931158D01*
X03946393Y03725028D02*
Y03714871D01*
Y03719949D01*
X03948932Y03722488D01*
X03951472Y03725028D01*
X03954011D01*
X03895610Y03562471D02*
X03885453D01*
X03895610Y03572628D01*
Y03575167D01*
X03893070Y03577706D01*
X03887992D01*
X03885453Y03575167D01*
Y03623431D02*
X03890531D01*
X03887992D01*
Y03638666D01*
X03885453Y03636127D01*
X03989571Y03714871D02*
Y03730106D01*
X03999727Y03714871D01*
Y03730106D01*
X04007345Y03725028D02*
X04012423D01*
X04014962Y03722488D01*
Y03714871D01*
X04007345D01*
X04004806Y03717410D01*
X04007345Y03719949D01*
X04014962D01*
X04020041Y03714871D02*
Y03725028D01*
X04022580D01*
X04025119Y03722488D01*
Y03714871D01*
Y03722488D01*
X04027658Y03725028D01*
X04030198Y03722488D01*
Y03714871D01*
X04042894D02*
X04037815D01*
X04035276Y03717410D01*
Y03722488D01*
X04037815Y03725028D01*
X04042894D01*
X04045433Y03722488D01*
Y03719949D01*
X04035276D01*
X03989571Y03516746D02*
Y03501511D01*
X03997188D01*
X03999727Y03504050D01*
Y03506589D01*
X03997188Y03509128D01*
X03989571D01*
X03997188D01*
X03999727Y03511668D01*
Y03514207D01*
X03997188Y03516746D01*
X03989571D01*
X04007345Y03501511D02*
X04012423D01*
X04014962Y03504050D01*
Y03509128D01*
X04012423Y03511668D01*
X04007345D01*
X04004806Y03509128D01*
Y03504050D01*
X04007345Y03501511D01*
X04022580Y03514207D02*
Y03511668D01*
X04020041D01*
X04025119D01*
X04022580D01*
Y03504050D01*
X04025119Y03501511D01*
X04035276Y03514207D02*
Y03511668D01*
X04032737D01*
X04037815D01*
X04035276D01*
Y03504050D01*
X04037815Y03501511D01*
X04047972D02*
X04053050D01*
X04055590Y03504050D01*
Y03509128D01*
X04053050Y03511668D01*
X04047972D01*
X04045433Y03509128D01*
Y03504050D01*
X04047972Y03501511D01*
X04060668D02*
Y03511668D01*
X04063207D01*
X04065746Y03509128D01*
Y03501511D01*
Y03509128D01*
X04068286Y03511668D01*
X04070825Y03509128D01*
Y03501511D01*
X04098755Y03516746D02*
X04093677D01*
X04091138Y03514207D01*
Y03504050D01*
X04093677Y03501511D01*
X04098755D01*
X04101295Y03504050D01*
Y03514207D01*
X04098755Y03516746D01*
X04106373Y03511668D02*
X04111451Y03501511D01*
X04116530Y03511668D01*
X04129226Y03501511D02*
X04124147D01*
X04121608Y03504050D01*
Y03509128D01*
X04124147Y03511668D01*
X04129226D01*
X04131765Y03509128D01*
Y03506589D01*
X04121608D01*
X04136843Y03511668D02*
Y03501511D01*
Y03506589D01*
X04139382Y03509128D01*
X04141921Y03511668D01*
X04144461D01*
X04152078Y03501511D02*
X04157157D01*
X04154617D01*
Y03516746D01*
X04152078D01*
X04167313Y03511668D02*
X04172392D01*
X04174931Y03509128D01*
Y03501511D01*
X04167313D01*
X04164774Y03504050D01*
X04167313Y03506589D01*
X04174931D01*
X04180009Y03511668D02*
Y03504050D01*
X04182549Y03501511D01*
X04190166D01*
Y03498972D01*
X04187627Y03496433D01*
X04185088D01*
X04190166Y03501511D02*
Y03511668D01*
X03989571Y03547226D02*
Y03531991D01*
X03997188D01*
X03999727Y03534530D01*
Y03537069D01*
X03997188Y03539608D01*
X03989571D01*
X03997188D01*
X03999727Y03542148D01*
Y03544687D01*
X03997188Y03547226D01*
X03989571D01*
X04007345Y03531991D02*
X04012423D01*
X04014962Y03534530D01*
Y03539608D01*
X04012423Y03542148D01*
X04007345D01*
X04004806Y03539608D01*
Y03534530D01*
X04007345Y03531991D01*
X04022580Y03544687D02*
Y03542148D01*
X04020041D01*
X04025119D01*
X04022580D01*
Y03534530D01*
X04025119Y03531991D01*
X04035276Y03544687D02*
Y03542148D01*
X04032737D01*
X04037815D01*
X04035276D01*
Y03534530D01*
X04037815Y03531991D01*
X04047972D02*
X04053050D01*
X04055590Y03534530D01*
Y03539608D01*
X04053050Y03542148D01*
X04047972D01*
X04045433Y03539608D01*
Y03534530D01*
X04047972Y03531991D01*
X04060668D02*
Y03542148D01*
X04063207D01*
X04065746Y03539608D01*
Y03531991D01*
Y03539608D01*
X04068286Y03542148D01*
X04070825Y03539608D01*
Y03531991D01*
X04101295Y03544687D02*
X04098755Y03547226D01*
X04093677D01*
X04091138Y03544687D01*
Y03542148D01*
X04093677Y03539608D01*
X04098755D01*
X04101295Y03537069D01*
Y03534530D01*
X04098755Y03531991D01*
X04093677D01*
X04091138Y03534530D01*
X04108912Y03531991D02*
X04113990D01*
X04116530Y03534530D01*
Y03539608D01*
X04113990Y03542148D01*
X04108912D01*
X04106373Y03539608D01*
Y03534530D01*
X04108912Y03531991D01*
X04121608D02*
X04126686D01*
X04124147D01*
Y03547226D01*
X04121608D01*
X04144461D02*
Y03531991D01*
X04136843D01*
X04134304Y03534530D01*
Y03539608D01*
X04136843Y03542148D01*
X04144461D01*
X04157157Y03531991D02*
X04152078D01*
X04149539Y03534530D01*
Y03539608D01*
X04152078Y03542148D01*
X04157157D01*
X04159696Y03539608D01*
Y03537069D01*
X04149539D01*
X04164774Y03542148D02*
Y03531991D01*
Y03537069D01*
X04167313Y03539608D01*
X04169853Y03542148D01*
X04172392D01*
X03989571Y03577706D02*
Y03562471D01*
X03997188D01*
X03999727Y03565010D01*
Y03567549D01*
X03997188Y03570089D01*
X03989571D01*
X03997188D01*
X03999727Y03572628D01*
Y03575167D01*
X03997188Y03577706D01*
X03989571D01*
X04007345Y03562471D02*
X04012423D01*
X04014962Y03565010D01*
Y03570089D01*
X04012423Y03572628D01*
X04007345D01*
X04004806Y03570089D01*
Y03565010D01*
X04007345Y03562471D01*
X04022580Y03575167D02*
Y03572628D01*
X04020041D01*
X04025119D01*
X04022580D01*
Y03565010D01*
X04025119Y03562471D01*
X04035276Y03575167D02*
Y03572628D01*
X04032737D01*
X04037815D01*
X04035276D01*
Y03565010D01*
X04037815Y03562471D01*
X04047972D02*
X04053050D01*
X04055590Y03565010D01*
Y03570089D01*
X04053050Y03572628D01*
X04047972D01*
X04045433Y03570089D01*
Y03565010D01*
X04047972Y03562471D01*
X04060668D02*
Y03572628D01*
X04063207D01*
X04065746Y03570089D01*
Y03562471D01*
Y03570089D01*
X04068286Y03572628D01*
X04070825Y03570089D01*
Y03562471D01*
X04091138Y03577706D02*
Y03562471D01*
X04101295D01*
X04108912Y03572628D02*
X04113990D01*
X04116530Y03570089D01*
Y03562471D01*
X04108912D01*
X04106373Y03565010D01*
X04108912Y03567549D01*
X04116530D01*
X04121608Y03572628D02*
Y03565010D01*
X04124147Y03562471D01*
X04131765D01*
Y03559932D01*
X04129226Y03557393D01*
X04126686D01*
X04131765Y03562471D02*
Y03572628D01*
X04144461Y03562471D02*
X04139382D01*
X04136843Y03565010D01*
Y03570089D01*
X04139382Y03572628D01*
X04144461D01*
X04147000Y03570089D01*
Y03567549D01*
X04136843D01*
X04152078Y03572628D02*
Y03562471D01*
Y03567549D01*
X04154617Y03570089D01*
X04157157Y03572628D01*
X04159696D01*
X03989571Y03608186D02*
Y03592951D01*
X03997188D01*
X03999727Y03595490D01*
Y03605647D01*
X03997188Y03608186D01*
X03989571D01*
X04004806Y03592951D02*
X04009884D01*
X04007345D01*
Y03603108D01*
X04004806D01*
X04025119Y03592951D02*
X04020041D01*
X04017502Y03595490D01*
Y03600569D01*
X04020041Y03603108D01*
X04025119D01*
X04027658Y03600569D01*
Y03598029D01*
X04017502D01*
X04032737Y03592951D02*
X04037815D01*
X04035276D01*
Y03608186D01*
X04032737D01*
X04053050Y03592951D02*
X04047972D01*
X04045433Y03595490D01*
Y03600569D01*
X04047972Y03603108D01*
X04053050D01*
X04055590Y03600569D01*
Y03598029D01*
X04045433D01*
X04070825Y03603108D02*
X04063207D01*
X04060668Y03600569D01*
Y03595490D01*
X04063207Y03592951D01*
X04070825D01*
X04078442Y03605647D02*
Y03603108D01*
X04075903D01*
X04080981D01*
X04078442D01*
Y03595490D01*
X04080981Y03592951D01*
X04088599Y03603108D02*
Y03592951D01*
Y03598029D01*
X04091138Y03600569D01*
X04093677Y03603108D01*
X04096216D01*
X04103834Y03592951D02*
X04108912D01*
X04106373D01*
Y03603108D01*
X04103834D01*
X04126686D02*
X04119069D01*
X04116530Y03600569D01*
Y03595490D01*
X04119069Y03592951D01*
X04126686D01*
X04131765D02*
X04136843D01*
X04134304D01*
Y03608186D01*
X04131765Y03605647D01*
X03989571Y03638666D02*
X03999727D01*
X03994649D01*
Y03623431D01*
X04007345D02*
X04012423D01*
X04014962Y03625970D01*
Y03631049D01*
X04012423Y03633588D01*
X04007345D01*
X04004806Y03631049D01*
Y03625970D01*
X04007345Y03623431D01*
X04020041Y03618353D02*
Y03633588D01*
X04027658D01*
X04030198Y03631049D01*
Y03625970D01*
X04027658Y03623431D01*
X04020041D01*
X04050511Y03638666D02*
Y03623431D01*
X04060668D01*
X04068286Y03633588D02*
X04073364D01*
X04075903Y03631049D01*
Y03623431D01*
X04068286D01*
X04065746Y03625970D01*
X04068286Y03628510D01*
X04075903D01*
X04080981Y03633588D02*
Y03625970D01*
X04083521Y03623431D01*
X04091138D01*
Y03620892D01*
X04088599Y03618353D01*
X04086060D01*
X04091138Y03623431D02*
Y03633588D01*
X04103834Y03623431D02*
X04098755D01*
X04096216Y03625970D01*
Y03631049D01*
X04098755Y03633588D01*
X04103834D01*
X04106373Y03631049D01*
Y03628510D01*
X04096216D01*
X04111451Y03633588D02*
Y03623431D01*
Y03628510D01*
X04113990Y03631049D01*
X04116530Y03633588D01*
X04119069D01*
X03989571Y03669146D02*
X03999727D01*
X03994649D01*
Y03653911D01*
X04007345D02*
X04012423D01*
X04014962Y03656450D01*
Y03661529D01*
X04012423Y03664068D01*
X04007345D01*
X04004806Y03661529D01*
Y03656450D01*
X04007345Y03653911D01*
X04020041Y03648833D02*
Y03664068D01*
X04027658D01*
X04030198Y03661529D01*
Y03656450D01*
X04027658Y03653911D01*
X04020041D01*
X04060668Y03666607D02*
X04058129Y03669146D01*
X04053050D01*
X04050511Y03666607D01*
Y03664068D01*
X04053050Y03661529D01*
X04058129D01*
X04060668Y03658989D01*
Y03656450D01*
X04058129Y03653911D01*
X04053050D01*
X04050511Y03656450D01*
X04068286Y03653911D02*
X04073364D01*
X04075903Y03656450D01*
Y03661529D01*
X04073364Y03664068D01*
X04068286D01*
X04065746Y03661529D01*
Y03656450D01*
X04068286Y03653911D01*
X04080981D02*
X04086060D01*
X04083521D01*
Y03669146D01*
X04080981D01*
X04103834D02*
Y03653911D01*
X04096216D01*
X04093677Y03656450D01*
Y03661529D01*
X04096216Y03664068D01*
X04103834D01*
X04116530Y03653911D02*
X04111451D01*
X04108912Y03656450D01*
Y03661529D01*
X04111451Y03664068D01*
X04116530D01*
X04119069Y03661529D01*
Y03658989D01*
X04108912D01*
X04124147Y03664068D02*
Y03653911D01*
Y03658989D01*
X04126686Y03661529D01*
X04129226Y03664068D01*
X04131765D01*
X03989571Y03699626D02*
X03999727D01*
X03994649D01*
Y03684391D01*
X04007345D02*
X04012423D01*
X04014962Y03686930D01*
Y03692008D01*
X04012423Y03694548D01*
X04007345D01*
X04004806Y03692008D01*
Y03686930D01*
X04007345Y03684391D01*
X04020041Y03679313D02*
Y03694548D01*
X04027658D01*
X04030198Y03692008D01*
Y03686930D01*
X04027658Y03684391D01*
X04020041D01*
X04058129Y03699626D02*
X04053050D01*
X04050511Y03697087D01*
Y03686930D01*
X04053050Y03684391D01*
X04058129D01*
X04060668Y03686930D01*
Y03697087D01*
X04058129Y03699626D01*
X04065746Y03694548D02*
X04070825Y03684391D01*
X04075903Y03694548D01*
X04088599Y03684391D02*
X04083521D01*
X04080981Y03686930D01*
Y03692008D01*
X04083521Y03694548D01*
X04088599D01*
X04091138Y03692008D01*
Y03689469D01*
X04080981D01*
X04096216Y03694548D02*
Y03684391D01*
Y03689469D01*
X04098755Y03692008D01*
X04101295Y03694548D01*
X04103834D01*
X04111451Y03684391D02*
X04116530D01*
X04113990D01*
Y03699626D01*
X04111451D01*
X04126686Y03694548D02*
X04131765D01*
X04134304Y03692008D01*
Y03684391D01*
X04126686D01*
X04124147Y03686930D01*
X04126686Y03689469D01*
X04134304D01*
X04139382Y03694548D02*
Y03686930D01*
X04141922Y03684391D01*
X04149539D01*
Y03681852D01*
X04147000Y03679313D01*
X04144461D01*
X04149539Y03684391D02*
Y03694548D01*
X04225726Y03714871D02*
Y03730106D01*
X04230804Y03725028D01*
X04235883Y03730106D01*
Y03714871D01*
X04243500Y03725028D02*
X04248578D01*
X04251118Y03722488D01*
Y03714871D01*
X04243500D01*
X04240961Y03717410D01*
X04243500Y03719949D01*
X04251118D01*
X04258735Y03727567D02*
Y03725028D01*
X04256196D01*
X04261274D01*
X04258735D01*
Y03717410D01*
X04261274Y03714871D01*
X04276509D02*
X04271431D01*
X04268892Y03717410D01*
Y03722488D01*
X04271431Y03725028D01*
X04276509D01*
X04279049Y03722488D01*
Y03719949D01*
X04268892D01*
X04284127Y03725028D02*
Y03714871D01*
Y03719949D01*
X04286666Y03722488D01*
X04289205Y03725028D01*
X04291745D01*
X04299362Y03714871D02*
X04304441D01*
X04301901D01*
Y03725028D01*
X04299362D01*
X04314597D02*
X04319676D01*
X04322215Y03722488D01*
Y03714871D01*
X04314597D01*
X04312058Y03717410D01*
X04314597Y03719949D01*
X04322215D01*
X04327293Y03714871D02*
X04332372D01*
X04329832D01*
Y03730106D01*
X04327293D01*
X04235883Y03544687D02*
X04233344Y03547226D01*
X04228265D01*
X04225726Y03544687D01*
Y03542148D01*
X04228265Y03539608D01*
X04233344D01*
X04235883Y03537069D01*
Y03534530D01*
X04233344Y03531991D01*
X04228265D01*
X04225726Y03534530D01*
X04243500Y03531991D02*
X04248578D01*
X04251118Y03534530D01*
Y03539608D01*
X04248578Y03542148D01*
X04243500D01*
X04240961Y03539608D01*
Y03534530D01*
X04243500Y03531991D01*
X04256196D02*
X04261274D01*
X04258735D01*
Y03547226D01*
X04256196D01*
X04279049D02*
Y03531991D01*
X04271431D01*
X04268892Y03534530D01*
Y03539608D01*
X04271431Y03542148D01*
X04279049D01*
X04291745Y03531991D02*
X04286666D01*
X04284127Y03534530D01*
Y03539608D01*
X04286666Y03542148D01*
X04291745D01*
X04294284Y03539608D01*
Y03537069D01*
X04284127D01*
X04299362Y03542148D02*
Y03531991D01*
Y03537069D01*
X04301901Y03539608D01*
X04304441Y03542148D01*
X04306980D01*
X04329832Y03531991D02*
Y03547226D01*
X04337450D01*
X04339989Y03544687D01*
Y03539608D01*
X04337450Y03537069D01*
X04329832D01*
X04334911D02*
X04339989Y03531991D01*
X04352685D02*
X04347607D01*
X04345067Y03534530D01*
Y03539608D01*
X04347607Y03542148D01*
X04352685D01*
X04355224Y03539608D01*
Y03537069D01*
X04345067D01*
X04360302Y03531991D02*
X04367920D01*
X04370459Y03534530D01*
X04367920Y03537069D01*
X04362841D01*
X04360302Y03539608D01*
X04362841Y03542148D01*
X04370459D01*
X04375537Y03531991D02*
X04380616D01*
X04378077D01*
Y03542148D01*
X04375537D01*
X04388233Y03531991D02*
X04395851D01*
X04398390Y03534530D01*
X04395851Y03537069D01*
X04390772D01*
X04388233Y03539608D01*
X04390772Y03542148D01*
X04398390D01*
X04406008Y03544687D02*
Y03542148D01*
X04403468D01*
X04408547D01*
X04406008D01*
Y03534530D01*
X04408547Y03531991D01*
X04235883Y03608186D02*
X04225726D01*
Y03600569D01*
X04230804D01*
X04225726D01*
Y03592951D01*
X04240961D02*
Y03608186D01*
X04248578D01*
X04251118Y03605647D01*
Y03600569D01*
X04248578Y03598029D01*
X04240961D01*
X04246039D02*
X04251118Y03592951D01*
X04256196Y03600569D02*
X04266353D01*
X04279049Y03592951D02*
Y03608186D01*
X04271431Y03600569D01*
X04281588D01*
X04301901Y03608186D02*
Y03592951D01*
Y03600569D01*
X04312058D01*
Y03608186D01*
Y03592951D01*
X04317137D02*
X04322215D01*
X04319676D01*
Y03603108D01*
X04317137D01*
X04334911Y03587873D02*
X04337450D01*
X04339989Y03590412D01*
Y03603108D01*
X04332372D01*
X04329832Y03600569D01*
Y03595490D01*
X04332372Y03592951D01*
X04339989D01*
X04345067Y03608186D02*
Y03592951D01*
Y03600569D01*
X04347607Y03603108D01*
X04352685D01*
X04355224Y03600569D01*
Y03592951D01*
X04375537Y03608186D02*
X04385694D01*
X04380616D01*
Y03592951D01*
X04395851Y03587873D02*
X04398390D01*
X04400929Y03590412D01*
Y03603108D01*
X04393312D01*
X04390772Y03600569D01*
Y03595490D01*
X04393312Y03592951D01*
X04400929D01*
X04235883Y03666607D02*
X04233344Y03669146D01*
X04228265D01*
X04225726Y03666607D01*
Y03664068D01*
X04228265Y03661529D01*
X04233344D01*
X04235883Y03658989D01*
Y03656450D01*
X04233344Y03653911D01*
X04228265D01*
X04225726Y03656450D01*
X04243500Y03653911D02*
X04248578D01*
X04251118Y03656450D01*
Y03661529D01*
X04248578Y03664068D01*
X04243500D01*
X04240961Y03661529D01*
Y03656450D01*
X04243500Y03653911D01*
X04256196D02*
X04261274D01*
X04258735D01*
Y03669146D01*
X04256196D01*
X04279049D02*
Y03653911D01*
X04271431D01*
X04268892Y03656450D01*
Y03661529D01*
X04271431Y03664068D01*
X04279049D01*
X04291745Y03653911D02*
X04286666D01*
X04284127Y03656450D01*
Y03661529D01*
X04286666Y03664068D01*
X04291745D01*
X04294284Y03661529D01*
Y03658989D01*
X04284127D01*
X04299362Y03664068D02*
Y03653911D01*
Y03658989D01*
X04301901Y03661529D01*
X04304441Y03664068D01*
X04306980D01*
X04329832Y03653911D02*
Y03669146D01*
X04337450D01*
X04339989Y03666607D01*
Y03661529D01*
X04337450Y03658989D01*
X04329832D01*
X04334911D02*
X04339989Y03653911D01*
X04352685D02*
X04347607D01*
X04345067Y03656450D01*
Y03661529D01*
X04347607Y03664068D01*
X04352685D01*
X04355224Y03661529D01*
Y03658989D01*
X04345067D01*
X04360302Y03653911D02*
X04367920D01*
X04370459Y03656450D01*
X04367920Y03658989D01*
X04362841D01*
X04360302Y03661529D01*
X04362841Y03664068D01*
X04370459D01*
X04375537Y03653911D02*
X04380616D01*
X04378077D01*
Y03664068D01*
X04375537D01*
X04388233Y03653911D02*
X04395851D01*
X04398390Y03656450D01*
X04395851Y03658989D01*
X04390772D01*
X04388233Y03661529D01*
X04390772Y03664068D01*
X04398390D01*
X04406008Y03666607D02*
Y03664068D01*
X04403468D01*
X04408547D01*
X04406008D01*
Y03656450D01*
X04408547Y03653911D01*
X04444107Y03730106D02*
X04454264D01*
X04449185D01*
Y03714871D01*
X04459342Y03730106D02*
Y03714871D01*
Y03722488D01*
X04461881Y03725028D01*
X04466960D01*
X04469499Y03722488D01*
Y03714871D01*
X04474577D02*
X04479655D01*
X04477116D01*
Y03725028D01*
X04474577D01*
X04497430D02*
X04489812D01*
X04487273Y03722488D01*
Y03717410D01*
X04489812Y03714871D01*
X04497430D01*
X04502508D02*
Y03730106D01*
Y03719949D02*
X04510125Y03725028D01*
X04502508Y03719949D02*
X04510125Y03714871D01*
X04517743D02*
Y03725028D01*
X04525360D01*
X04527900Y03722488D01*
Y03714871D01*
X04540596D02*
X04535517D01*
X04532978Y03717410D01*
Y03722488D01*
X04535517Y03725028D01*
X04540596D01*
X04543135Y03722488D01*
Y03719949D01*
X04532978D01*
X04548213Y03714871D02*
X04555831D01*
X04558370Y03717410D01*
X04555831Y03719949D01*
X04550752D01*
X04548213Y03722488D01*
X04550752Y03725028D01*
X04558370D01*
X04563448Y03714871D02*
X04571066D01*
X04573605Y03717410D01*
X04571066Y03719949D01*
X04565988D01*
X04563448Y03722488D01*
X04565988Y03725028D01*
X04573605D01*
X04444107Y03544687D02*
X04446646Y03547226D01*
X04451724D01*
X04454264Y03544687D01*
Y03534530D01*
X04451724Y03531991D01*
X04446646D01*
X04444107Y03534530D01*
Y03544687D01*
X04461881Y03529452D02*
X04464420Y03531991D01*
Y03534530D01*
X04461881D01*
Y03531991D01*
X04464420D01*
X04461881Y03529452D01*
X04459342Y03526913D01*
X04482195Y03531991D02*
Y03547226D01*
X04474577Y03539608D01*
X04484734D01*
X04489812Y03544687D02*
X04492351Y03547226D01*
X04497430D01*
X04499969Y03544687D01*
Y03534530D01*
X04497430Y03531991D01*
X04492351D01*
X04489812Y03534530D01*
Y03544687D01*
X04505047Y03531991D02*
Y03542148D01*
X04507586D01*
X04510125Y03539608D01*
Y03531991D01*
Y03539608D01*
X04512664Y03542148D01*
X04515204Y03539608D01*
Y03531991D01*
X04520282D02*
X04525360D01*
X04522821D01*
Y03542148D01*
X04520282D01*
X04532978Y03531991D02*
X04538056D01*
X04535517D01*
Y03547226D01*
X04532978D01*
X04444107Y03562471D02*
X04449185D01*
X04446646D01*
Y03577706D01*
X04444107Y03575167D01*
X04459342Y03559932D02*
X04461881Y03562471D01*
Y03565010D01*
X04459342D01*
Y03562471D01*
X04461881D01*
X04459342Y03559932D01*
X04456803Y03557393D01*
X04479655Y03562471D02*
Y03577706D01*
X04472038Y03570089D01*
X04482195D01*
X04487273Y03575167D02*
X04489812Y03577706D01*
X04494890D01*
X04497430Y03575167D01*
Y03565010D01*
X04494890Y03562471D01*
X04489812D01*
X04487273Y03565010D01*
Y03575167D01*
X04502508Y03562471D02*
Y03572628D01*
X04505047D01*
X04507586Y03570089D01*
Y03562471D01*
Y03570089D01*
X04510125Y03572628D01*
X04512664Y03570089D01*
Y03562471D01*
X04517743D02*
X04522821D01*
X04520282D01*
Y03572628D01*
X04517743D01*
X04530439Y03562471D02*
X04535517D01*
X04532978D01*
Y03577706D01*
X04530439D01*
X04454264Y03608186D02*
X04444107D01*
Y03600569D01*
X04449185Y03603108D01*
X04451724D01*
X04454264Y03600569D01*
Y03595490D01*
X04451724Y03592951D01*
X04446646D01*
X04444107Y03595490D01*
X04459342D02*
X04461881Y03592951D01*
X04466960D01*
X04469499Y03595490D01*
Y03605647D01*
X04466960Y03608186D01*
X04461881D01*
X04459342Y03605647D01*
Y03603108D01*
X04461881Y03600569D01*
X04469499D01*
X04477116Y03590412D02*
X04479655Y03592951D01*
Y03595490D01*
X04477116D01*
Y03592951D01*
X04479655D01*
X04477116Y03590412D01*
X04474577Y03587873D01*
X04499969Y03592951D02*
X04489812D01*
X04499969Y03603108D01*
Y03605647D01*
X04497430Y03608186D01*
X04492351D01*
X04489812Y03605647D01*
X04505047D02*
X04507586Y03608186D01*
X04512664D01*
X04515204Y03605647D01*
Y03595490D01*
X04512664Y03592951D01*
X04507586D01*
X04505047Y03595490D01*
Y03605647D01*
X04520282Y03592951D02*
Y03603108D01*
X04522821D01*
X04525360Y03600569D01*
Y03592951D01*
Y03600569D01*
X04527900Y03603108D01*
X04530439Y03600569D01*
Y03592951D01*
X04535517D02*
X04540596D01*
X04538056D01*
Y03603108D01*
X04535517D01*
X04548213Y03592951D02*
X04553292D01*
X04550752D01*
Y03608186D01*
X04548213D01*
X04444107Y03623431D02*
X04449185D01*
X04446646D01*
Y03638666D01*
X04444107Y03636127D01*
X04459342Y03620892D02*
X04461881Y03623431D01*
Y03625970D01*
X04459342D01*
Y03623431D01*
X04461881D01*
X04459342Y03620892D01*
X04456803Y03618353D01*
X04479655Y03623431D02*
Y03638666D01*
X04472038Y03631049D01*
X04482195D01*
X04487273Y03636127D02*
X04489812Y03638666D01*
X04494890D01*
X04497430Y03636127D01*
Y03625970D01*
X04494890Y03623431D01*
X04489812D01*
X04487273Y03625970D01*
Y03636127D01*
X04502508Y03623431D02*
Y03633588D01*
X04505047D01*
X04507586Y03631049D01*
Y03623431D01*
Y03631049D01*
X04510125Y03633588D01*
X04512664Y03631049D01*
Y03623431D01*
X04517743D02*
X04522821D01*
X04520282D01*
Y03633588D01*
X04517743D01*
X04530439Y03623431D02*
X04535517D01*
X04532978D01*
Y03638666D01*
X04530439D01*
X04444107Y03666607D02*
X04446646Y03669146D01*
X04451724D01*
X04454264Y03666607D01*
Y03656450D01*
X04451724Y03653911D01*
X04446646D01*
X04444107Y03656450D01*
Y03666607D01*
X04461881Y03651372D02*
X04464420Y03653911D01*
Y03656450D01*
X04461881D01*
Y03653911D01*
X04464420D01*
X04461881Y03651372D01*
X04459342Y03648833D01*
X04482195Y03653911D02*
Y03669146D01*
X04474577Y03661529D01*
X04484734D01*
X04489812Y03666607D02*
X04492351Y03669146D01*
X04497430D01*
X04499969Y03666607D01*
Y03656450D01*
X04497430Y03653911D01*
X04492351D01*
X04489812Y03656450D01*
Y03666607D01*
X04505047Y03653911D02*
Y03664068D01*
X04507586D01*
X04510125Y03661529D01*
Y03653911D01*
Y03661529D01*
X04512664Y03664068D01*
X04515204Y03661529D01*
Y03653911D01*
X04520282D02*
X04525360D01*
X04522821D01*
Y03664068D01*
X04520282D01*
X04532978Y03653911D02*
X04538056D01*
X04535517D01*
Y03669146D01*
X04532978D01*
X04619322Y03727567D02*
X04616783Y03730106D01*
X04611704D01*
X04609165Y03727567D01*
Y03717410D01*
X04611704Y03714871D01*
X04616783D01*
X04619322Y03717410D01*
X04626939Y03714871D02*
X04632018D01*
X04634557Y03717410D01*
Y03722488D01*
X04632018Y03725028D01*
X04626939D01*
X04624400Y03722488D01*
Y03717410D01*
X04626939Y03714871D01*
X04639635D02*
Y03725028D01*
X04647253D01*
X04649792Y03722488D01*
Y03714871D01*
X04654870D02*
X04662488D01*
X04665027Y03717410D01*
X04662488Y03719949D01*
X04657409D01*
X04654870Y03722488D01*
X04657409Y03725028D01*
X04665027D01*
X04672644Y03727567D02*
Y03725028D01*
X04670105D01*
X04675183D01*
X04672644D01*
Y03717410D01*
X04675183Y03714871D01*
X04685340Y03725028D02*
X04690419D01*
X04692958Y03722488D01*
Y03714871D01*
X04685340D01*
X04682801Y03717410D01*
X04685340Y03719949D01*
X04692958D01*
X04698036Y03714871D02*
Y03725028D01*
X04705654D01*
X04708193Y03722488D01*
Y03714871D01*
X04715811Y03727567D02*
Y03725028D01*
X04713271D01*
X04718350D01*
X04715811D01*
Y03717410D01*
X04718350Y03714871D01*
X04609165Y03544687D02*
X04611704Y03547226D01*
X04616783D01*
X04619322Y03544687D01*
Y03542148D01*
X04616783Y03539608D01*
X04614243D01*
X04616783D01*
X04619322Y03537069D01*
Y03534530D01*
X04616783Y03531991D01*
X04611704D01*
X04609165Y03534530D01*
X04624400Y03531991D02*
Y03534530D01*
X04626939D01*
Y03531991D01*
X04624400D01*
X04647253Y03547226D02*
X04637096D01*
Y03539608D01*
X04642174Y03542148D01*
X04644713D01*
X04647253Y03539608D01*
Y03534530D01*
X04644713Y03531991D01*
X04639635D01*
X04637096Y03534530D01*
X04616783Y03592951D02*
Y03608186D01*
X04609165Y03600569D01*
X04619322D01*
X04624400Y03592951D02*
Y03595490D01*
X04626939D01*
Y03592951D01*
X04624400D01*
X04637096Y03605647D02*
X04639635Y03608186D01*
X04644713D01*
X04647253Y03605647D01*
Y03603108D01*
X04644713Y03600569D01*
X04647253Y03598029D01*
Y03595490D01*
X04644713Y03592951D01*
X04639635D01*
X04637096Y03595490D01*
Y03598029D01*
X04639635Y03600569D01*
X04637096Y03603108D01*
Y03605647D01*
X04639635Y03600569D02*
X04644713D01*
X04609165Y03666607D02*
X04611704Y03669146D01*
X04616783D01*
X04619322Y03666607D01*
Y03664068D01*
X04616783Y03661529D01*
X04614243D01*
X04616783D01*
X04619322Y03658989D01*
Y03656450D01*
X04616783Y03653911D01*
X04611704D01*
X04609165Y03656450D01*
X04624400Y03653911D02*
Y03656450D01*
X04626939D01*
Y03653911D01*
X04624400D01*
X04647253Y03669146D02*
X04637096D01*
Y03661529D01*
X04642174Y03664068D01*
X04644713D01*
X04647253Y03661529D01*
Y03656450D01*
X04644713Y03653911D01*
X04639635D01*
X04637096Y03656450D01*
X04753910Y03730106D02*
Y03714871D01*
X04761527D01*
X04764066Y03717410D01*
Y03719949D01*
X04761527Y03722488D01*
X04753910D01*
X04761527D01*
X04764066Y03725028D01*
Y03727567D01*
X04761527Y03730106D01*
X04753910D01*
X04771684Y03714871D02*
X04776762D01*
X04779301Y03717410D01*
Y03722488D01*
X04776762Y03725028D01*
X04771684D01*
X04769145Y03722488D01*
Y03717410D01*
X04771684Y03714871D01*
X04786919Y03725028D02*
X04791997D01*
X04794536Y03722488D01*
Y03714871D01*
X04786919D01*
X04784380Y03717410D01*
X04786919Y03719949D01*
X04794536D01*
X04799615Y03725028D02*
Y03714871D01*
Y03719949D01*
X04802154Y03722488D01*
X04804693Y03725028D01*
X04807232D01*
X04825007Y03730106D02*
Y03714871D01*
X04817389D01*
X04814850Y03717410D01*
Y03722488D01*
X04817389Y03725028D01*
X04825007D01*
X04845320Y03730106D02*
Y03714871D01*
X04855477D01*
X04863094Y03725028D02*
X04868173D01*
X04870712Y03722488D01*
Y03714871D01*
X04863094D01*
X04860555Y03717410D01*
X04863094Y03719949D01*
X04870712D01*
X04875790Y03725028D02*
Y03717410D01*
X04878329Y03714871D01*
X04885947D01*
Y03712332D01*
X04883408Y03709793D01*
X04880869D01*
X04885947Y03714871D02*
Y03725028D01*
X04898643Y03714871D02*
X04893564D01*
X04891025Y03717410D01*
Y03722488D01*
X04893564Y03725028D01*
X04898643D01*
X04901182Y03722488D01*
Y03719949D01*
X04891025D01*
X04906260Y03725028D02*
Y03714871D01*
Y03719949D01*
X04908799Y03722488D01*
X04911339Y03725028D01*
X04913878D01*
X04946887Y03727567D02*
X04944348Y03730106D01*
X04939270D01*
X04936730Y03727567D01*
Y03725028D01*
X04939270Y03722488D01*
X04944348D01*
X04946887Y03719949D01*
Y03717410D01*
X04944348Y03714871D01*
X04939270D01*
X04936730Y03717410D01*
X04954505Y03727567D02*
Y03725028D01*
X04951966D01*
X04957044D01*
X04954505D01*
Y03717410D01*
X04957044Y03714871D01*
X04967201Y03725028D02*
X04972279D01*
X04974818Y03722488D01*
Y03714871D01*
X04967201D01*
X04964661Y03717410D01*
X04967201Y03719949D01*
X04974818D01*
X04990053Y03725028D02*
X04982436D01*
X04979897Y03722488D01*
Y03717410D01*
X04982436Y03714871D01*
X04990053D01*
X04995132D02*
Y03730106D01*
Y03719949D02*
X05002749Y03725028D01*
X04995132Y03719949D02*
X05002749Y03714871D01*
G54D18*
X03867673Y03707251D02*
X05020529D01*
X03867673Y03737731D02*
X05020529D01*
X03867673Y03493891D02*
Y03737731D01*
Y03493891D02*
X03971791D01*
X03867673Y03524371D02*
X03971791D01*
X03867673Y03554851D02*
X03971791D01*
X03867673Y03585331D02*
X03971791D01*
X03867673Y03615811D02*
X03971791D01*
X03867673Y03646291D02*
X03971791D01*
X03867673Y03676771D02*
X03971791D01*
Y03493891D02*
Y03737731D01*
Y03493891D02*
X04207946D01*
X03971791Y03524371D02*
X04207946D01*
X03971791Y03554851D02*
X04207946D01*
X03971791Y03585331D02*
X04207946D01*
X03971791Y03615811D02*
X04207946D01*
X03971791Y03646291D02*
X04207946D01*
X03971791Y03676771D02*
X04207946D01*
Y03493891D02*
Y03737731D01*
Y03493891D02*
X04426327D01*
X04207946Y03524371D02*
X04426327D01*
X04207946Y03554851D02*
X04426327D01*
X04207946Y03585331D02*
X04426327D01*
X04207946Y03615811D02*
X04426327D01*
X04207946Y03646291D02*
X04426327D01*
X04207946Y03676771D02*
X04426327D01*
Y03493891D02*
Y03737731D01*
Y03493891D02*
X04591385D01*
X04426327Y03524371D02*
X04591385D01*
X04426327Y03554851D02*
X04591385D01*
X04426327Y03585331D02*
X04591385D01*
X04426327Y03615811D02*
X04591385D01*
X04426327Y03646291D02*
X04591385D01*
X04426327Y03676771D02*
X04591385D01*
Y03493891D02*
Y03737731D01*
Y03493891D02*
X04736129D01*
X04591385Y03524371D02*
X04736129D01*
X04591385Y03554851D02*
X04736129D01*
X04591385Y03585331D02*
X04736129D01*
X04591385Y03615811D02*
X04736129D01*
X04591385Y03646291D02*
X04736129D01*
X04591385Y03676771D02*
X04736129D01*
Y03493891D02*
Y03737731D01*
Y03493891D02*
X05020529D01*
X04736129Y03524371D02*
X05020529D01*
X04736129Y03554851D02*
X05020529D01*
X04736129Y03585331D02*
X05020529D01*
X04736129Y03615811D02*
X05020529D01*
X04736129Y03646291D02*
X05020529D01*
X04736129Y03676771D02*
X05020529D01*
Y03493891D02*
Y03737731D01*
G54D25*
X00322326Y00171579D02*
Y00186814D01*
X00327404Y00181735D01*
X00332483Y00186814D01*
Y00171579D01*
X00337561D02*
X00342639D01*
X00340100D01*
Y00186814D01*
X00337561Y00184275D01*
X00360414Y00171579D02*
X00350257D01*
X00360414Y00181735D01*
Y00184275D01*
X00357874Y00186814D01*
X00352796D01*
X00350257Y00184275D01*
X00390884D02*
X00388345Y00186814D01*
X00383266D01*
X00380727Y00184275D01*
Y00181735D01*
X00383266Y00179196D01*
X00388345D01*
X00390884Y00176657D01*
Y00174118D01*
X00388345Y00171579D01*
X00383266D01*
X00380727Y00174118D01*
X00398501Y00184275D02*
Y00181735D01*
X00395962D01*
X00401040D01*
X00398501D01*
Y00174118D01*
X00401040Y00171579D01*
X00411197Y00181735D02*
X00416276D01*
X00418815Y00179196D01*
Y00171579D01*
X00411197D01*
X00408658Y00174118D01*
X00411197Y00176657D01*
X00418815D01*
X00434050Y00181735D02*
X00426432D01*
X00423893Y00179196D01*
Y00174118D01*
X00426432Y00171579D01*
X00434050D01*
X00439128D02*
Y00186814D01*
Y00176657D02*
X00446746Y00181735D01*
X00439128Y00176657D02*
X00446746Y00171579D01*
X00454363Y00181735D02*
Y00174118D01*
X00456903Y00171579D01*
X00464520D01*
Y00181735D01*
X00469598Y00166500D02*
Y00181735D01*
X00477216D01*
X00479755Y00179196D01*
Y00174118D01*
X00477216Y00171579D01*
X00469598D01*
G54D262*
X05005289Y03493891D02*
X05020529Y03509131D01*
X04990049Y03493891D02*
X05020529Y03524371D01*
X04974809Y03493891D02*
X05005289Y03524371D01*
X04959569Y03493891D02*
X04990049Y03524371D01*
X04944329Y03493891D02*
X04974809Y03524371D01*
X04929089Y03493891D02*
X04959569Y03524371D01*
X04913849Y03493891D02*
X04944329Y03524371D01*
X04898609Y03493891D02*
X04929089Y03524371D01*
X04883369Y03493891D02*
X04913849Y03524371D01*
X04868129Y03493891D02*
X04898609Y03524371D01*
X04852889Y03493891D02*
X04883369Y03524371D01*
X04837649Y03493891D02*
X04868129Y03524371D01*
X04822409Y03493891D02*
X04852889Y03524371D01*
X04807169Y03493891D02*
X04837649Y03524371D01*
X04791929Y03493891D02*
X04822409Y03524371D01*
X04776689Y03493891D02*
X04807169Y03524371D01*
X04761449Y03493891D02*
X04791929Y03524371D01*
X04746209Y03493891D02*
X04776689Y03524371D01*
X04736129Y03499052D02*
X04761449Y03524371D01*
X04736129Y03514291D02*
X04746209Y03524371D01*
X05005289D02*
X05020529Y03539611D01*
X04990049Y03524371D02*
X05020529Y03554851D01*
X04974809Y03524371D02*
X05005289Y03554851D01*
X04959569Y03524371D02*
X04990049Y03554851D01*
X04944329Y03524371D02*
X04974809Y03554851D01*
X04929089Y03524371D02*
X04959569Y03554851D01*
X04913849Y03524371D02*
X04944329Y03554851D01*
X04898609Y03524371D02*
X04929089Y03554851D01*
X04883369Y03524371D02*
X04913849Y03554851D01*
X04868129Y03524371D02*
X04898609Y03554851D01*
X04852889Y03524371D02*
X04883369Y03554851D01*
X04837649Y03524371D02*
X04868129Y03554851D01*
X04822409Y03524371D02*
X04852889Y03554851D01*
X04807169Y03524371D02*
X04837649Y03554851D01*
X04791929Y03524371D02*
X04822409Y03554851D01*
X04776689Y03524371D02*
X04807169Y03554851D01*
X04761449Y03524371D02*
X04791929Y03554851D01*
X04746209Y03524371D02*
X04776689Y03554851D01*
X04736129Y03529532D02*
X04761449Y03554851D01*
X04736129Y03544771D02*
X04746209Y03554851D01*
X05005289D02*
X05020529Y03570091D01*
X04990049Y03554851D02*
X05020529Y03585331D01*
X04974809Y03554851D02*
X05005289Y03585331D01*
X04959569Y03554851D02*
X04990049Y03585331D01*
X04944329Y03554851D02*
X04974809Y03585331D01*
X04929089Y03554851D02*
X04959569Y03585331D01*
X04913849Y03554851D02*
X04944329Y03585331D01*
X04898609Y03554851D02*
X04929089Y03585331D01*
X04883369Y03554851D02*
X04913849Y03585331D01*
X04868129Y03554851D02*
X04898609Y03585331D01*
X04852889Y03554851D02*
X04883369Y03585331D01*
X04837649Y03554851D02*
X04868129Y03585331D01*
X04822409Y03554851D02*
X04852889Y03585331D01*
X04807169Y03554851D02*
X04837649Y03585331D01*
X04791929Y03554851D02*
X04822409Y03585331D01*
X04776689Y03554851D02*
X04807169Y03585331D01*
X04761449Y03554851D02*
X04791929Y03585331D01*
X04746209Y03554851D02*
X04776689Y03585331D01*
X04736129Y03560012D02*
X04761449Y03585331D01*
X04736129Y03575251D02*
X04746209Y03585331D01*
X05005289D02*
X05020529Y03600571D01*
X04990049Y03585331D02*
X05020529Y03615811D01*
X04974809Y03585331D02*
X05005289Y03615811D01*
X04959569Y03585331D02*
X04990049Y03615811D01*
X04944329Y03585331D02*
X04974809Y03615811D01*
X04929089Y03585331D02*
X04959569Y03615811D01*
X04913849Y03585331D02*
X04944329Y03615811D01*
X04898609Y03585331D02*
X04929089Y03615811D01*
X04883369Y03585331D02*
X04913849Y03615811D01*
X04868129Y03585331D02*
X04898609Y03615811D01*
X04852889Y03585331D02*
X04883369Y03615811D01*
X04837649Y03585331D02*
X04868129Y03615811D01*
X04822409Y03585331D02*
X04852889Y03615811D01*
X04807169Y03585331D02*
X04837649Y03615811D01*
X04791929Y03585331D02*
X04822409Y03615811D01*
X04776689Y03585331D02*
X04807169Y03615811D01*
X04761449Y03585331D02*
X04791929Y03615811D01*
X04746209Y03585331D02*
X04776689Y03615811D01*
X04736129Y03590492D02*
X04761449Y03615811D01*
X04736129Y03605732D02*
X04746209Y03615811D01*
X05005289D02*
X05020529Y03631051D01*
X04990049Y03615811D02*
X05020529Y03646291D01*
X04974809Y03615811D02*
X05005289Y03646291D01*
X04959569Y03615811D02*
X04990049Y03646291D01*
X04944329Y03615811D02*
X04974809Y03646291D01*
X04929089Y03615811D02*
X04959569Y03646291D01*
X04913849Y03615811D02*
X04944329Y03646291D01*
X04898609Y03615811D02*
X04929089Y03646291D01*
X04883369Y03615811D02*
X04913849Y03646291D01*
X04868129Y03615811D02*
X04898609Y03646291D01*
X04852889Y03615811D02*
X04883369Y03646291D01*
X04837649Y03615811D02*
X04868129Y03646291D01*
X04822409Y03615811D02*
X04852889Y03646291D01*
X04807169Y03615811D02*
X04837649Y03646291D01*
X04791929Y03615811D02*
X04822409Y03646291D01*
X04776689Y03615811D02*
X04807169Y03646291D01*
X04761449Y03615811D02*
X04791929Y03646291D01*
X04746209Y03615811D02*
X04776689Y03646291D01*
X04736129Y03620971D02*
X04761449Y03646291D01*
X04736129Y03636212D02*
X04746209Y03646291D01*
X05005289D02*
X05020529Y03661531D01*
X04990049Y03646291D02*
X05020529Y03676771D01*
X04974809Y03646291D02*
X05005289Y03676771D01*
X04959569Y03646291D02*
X04990049Y03676771D01*
X04944329Y03646291D02*
X04974809Y03676771D01*
X04929089Y03646291D02*
X04959569Y03676771D01*
X04913849Y03646291D02*
X04944329Y03676771D01*
X04898609Y03646291D02*
X04929089Y03676771D01*
X04883369Y03646291D02*
X04913849Y03676771D01*
X04868129Y03646291D02*
X04898609Y03676771D01*
X04852889Y03646291D02*
X04883369Y03676771D01*
X04837649Y03646291D02*
X04868129Y03676771D01*
X04822409Y03646291D02*
X04852889Y03676771D01*
X04807169Y03646291D02*
X04837649Y03676771D01*
X04791929Y03646291D02*
X04822409Y03676771D01*
X04776689Y03646291D02*
X04807169Y03676771D01*
X04761449Y03646291D02*
X04791929Y03676771D01*
X04746209Y03646291D02*
X04776689Y03676771D01*
X04736129Y03651451D02*
X04761449Y03676771D01*
X04736129Y03666692D02*
X04746209Y03676771D01*
X05005289D02*
X05020529Y03692011D01*
X04990049Y03676771D02*
X05020529Y03707251D01*
X04974809Y03676771D02*
X05005289Y03707251D01*
X04959569Y03676771D02*
X04990049Y03707251D01*
X04944329Y03676771D02*
X04974809Y03707251D01*
X04929089Y03676771D02*
X04959569Y03707251D01*
X04913849Y03676771D02*
X04944329Y03707251D01*
X04898609Y03676771D02*
X04929089Y03707251D01*
X04883369Y03676771D02*
X04913849Y03707251D01*
X04868129Y03676771D02*
X04898609Y03707251D01*
X04852889Y03676771D02*
X04883369Y03707251D01*
X04837649Y03676771D02*
X04868129Y03707251D01*
X04822409Y03676771D02*
X04852889Y03707251D01*
X04807169Y03676771D02*
X04837649Y03707251D01*
X04791929Y03676771D02*
X04822409Y03707251D01*
X04776689Y03676771D02*
X04807169Y03707251D01*
X04761449Y03676771D02*
X04791929Y03707251D01*
X04746209Y03676771D02*
X04776689Y03707251D01*
X04736129Y03681931D02*
X04761449Y03707251D01*
X04736129Y03697172D02*
X04746209Y03707251D01*
M02*
